%TF.GenerationSoftware,KiCad,Pcbnew,8.0.7*%
%TF.CreationDate,2025-01-16T15:43:03+03:00*%
%TF.ProjectId,bitshoka,62697473-686f-46b6-912e-6b696361645f,rev?*%
%TF.SameCoordinates,Original*%
%TF.FileFunction,Copper,L4,Bot*%
%TF.FilePolarity,Positive*%
%FSLAX46Y46*%
G04 Gerber Fmt 4.6, Leading zero omitted, Abs format (unit mm)*
G04 Created by KiCad (PCBNEW 8.0.7) date 2025-01-16 15:43:03*
%MOMM*%
%LPD*%
G01*
G04 APERTURE LIST*
G04 Aperture macros list*
%AMRoundRect*
0 Rectangle with rounded corners*
0 $1 Rounding radius*
0 $2 $3 $4 $5 $6 $7 $8 $9 X,Y pos of 4 corners*
0 Add a 4 corners polygon primitive as box body*
4,1,4,$2,$3,$4,$5,$6,$7,$8,$9,$2,$3,0*
0 Add four circle primitives for the rounded corners*
1,1,$1+$1,$2,$3*
1,1,$1+$1,$4,$5*
1,1,$1+$1,$6,$7*
1,1,$1+$1,$8,$9*
0 Add four rect primitives between the rounded corners*
20,1,$1+$1,$2,$3,$4,$5,0*
20,1,$1+$1,$4,$5,$6,$7,0*
20,1,$1+$1,$6,$7,$8,$9,0*
20,1,$1+$1,$8,$9,$2,$3,0*%
G04 Aperture macros list end*
%TA.AperFunction,EtchedComponent*%
%ADD10C,0.000000*%
%TD*%
%TA.AperFunction,ComponentPad*%
%ADD11C,0.800000*%
%TD*%
%TA.AperFunction,ComponentPad*%
%ADD12C,6.000000*%
%TD*%
%TA.AperFunction,ComponentPad*%
%ADD13R,1.700000X1.700000*%
%TD*%
%TA.AperFunction,ComponentPad*%
%ADD14O,1.700000X1.700000*%
%TD*%
%TA.AperFunction,ComponentPad*%
%ADD15C,0.400000*%
%TD*%
%TA.AperFunction,ComponentPad*%
%ADD16C,1.574800*%
%TD*%
%TA.AperFunction,ComponentPad*%
%ADD17C,1.700000*%
%TD*%
%TA.AperFunction,SMDPad,CuDef*%
%ADD18C,1.000000*%
%TD*%
%TA.AperFunction,SMDPad,CuDef*%
%ADD19RoundRect,0.150000X0.425000X-0.150000X0.425000X0.150000X-0.425000X0.150000X-0.425000X-0.150000X0*%
%TD*%
%TA.AperFunction,SMDPad,CuDef*%
%ADD20RoundRect,0.075000X0.500000X-0.075000X0.500000X0.075000X-0.500000X0.075000X-0.500000X-0.075000X0*%
%TD*%
%TA.AperFunction,ComponentPad*%
%ADD21O,1.800000X1.000000*%
%TD*%
%TA.AperFunction,ComponentPad*%
%ADD22O,2.100000X1.000000*%
%TD*%
%TA.AperFunction,SMDPad,CuDef*%
%ADD23R,0.900000X1.500000*%
%TD*%
%TA.AperFunction,SMDPad,CuDef*%
%ADD24R,1.500000X0.900000*%
%TD*%
%TA.AperFunction,SMDPad,CuDef*%
%ADD25R,0.900000X0.900000*%
%TD*%
%TA.AperFunction,ConnectorPad*%
%ADD26C,0.787400*%
%TD*%
%TA.AperFunction,SMDPad,CuDef*%
%ADD27RoundRect,0.055250X0.340750X0.055250X-0.340750X0.055250X-0.340750X-0.055250X0.340750X-0.055250X0*%
%TD*%
%TA.AperFunction,SMDPad,CuDef*%
%ADD28R,6.330000X2.000000*%
%TD*%
%TA.AperFunction,SMDPad,CuDef*%
%ADD29R,6.330000X5.300000*%
%TD*%
%TA.AperFunction,SMDPad,CuDef*%
%ADD30R,2.000000X2.000000*%
%TD*%
%TA.AperFunction,SMDPad,CuDef*%
%ADD31R,0.900000X1.800000*%
%TD*%
%TA.AperFunction,SMDPad,CuDef*%
%ADD32RoundRect,0.150000X-0.150000X-0.625000X0.150000X-0.625000X0.150000X0.625000X-0.150000X0.625000X0*%
%TD*%
%TA.AperFunction,SMDPad,CuDef*%
%ADD33RoundRect,0.250000X-0.350000X-0.650000X0.350000X-0.650000X0.350000X0.650000X-0.350000X0.650000X0*%
%TD*%
%TA.AperFunction,ViaPad*%
%ADD34C,0.800000*%
%TD*%
%TA.AperFunction,ViaPad*%
%ADD35C,1.000000*%
%TD*%
%TA.AperFunction,ViaPad*%
%ADD36C,0.500000*%
%TD*%
%TA.AperFunction,ViaPad*%
%ADD37C,1.200000*%
%TD*%
%TA.AperFunction,Conductor*%
%ADD38C,0.508000*%
%TD*%
%TA.AperFunction,Conductor*%
%ADD39C,0.254000*%
%TD*%
%TA.AperFunction,Conductor*%
%ADD40C,1.000000*%
%TD*%
%TA.AperFunction,Conductor*%
%ADD41C,0.200000*%
%TD*%
G04 APERTURE END LIST*
D10*
%TA.AperFunction,EtchedComponent*%
%TO.C,G\u002A\u002A\u002A*%
G36*
X116157849Y-85222473D02*
G01*
X116493764Y-85558387D01*
X116150555Y-85902664D01*
X115807346Y-86246940D01*
X115470376Y-85911014D01*
X115133405Y-85575088D01*
X115477670Y-85230823D01*
X115821934Y-84886558D01*
X116157849Y-85222473D01*
G37*
%TD.AperFunction*%
%TA.AperFunction,EtchedComponent*%
G36*
X116493929Y-87277414D02*
G01*
X116518567Y-87315131D01*
X116634195Y-87493580D01*
X116716962Y-87628986D01*
X116767781Y-87729398D01*
X116787566Y-87802862D01*
X116777231Y-87857426D01*
X116737690Y-87901137D01*
X116669855Y-87942043D01*
X116574643Y-87988192D01*
X116388456Y-88076405D01*
X116386886Y-89082810D01*
X116385316Y-90089216D01*
X116464891Y-90183786D01*
X116477077Y-90197705D01*
X116545881Y-90261701D01*
X116605655Y-90297777D01*
X116657432Y-90324950D01*
X116654127Y-90360103D01*
X116588569Y-90401165D01*
X116580824Y-90405029D01*
X116510509Y-90460833D01*
X116447922Y-90539129D01*
X116443348Y-90546776D01*
X116429514Y-90573593D01*
X116418052Y-90606175D01*
X116408721Y-90650202D01*
X116401280Y-90711353D01*
X116395487Y-90795308D01*
X116391103Y-90907747D01*
X116387886Y-91054350D01*
X116385596Y-91240795D01*
X116383990Y-91472764D01*
X116382829Y-91755934D01*
X116381870Y-92095986D01*
X116378191Y-93550543D01*
X116023365Y-93886811D01*
X115950756Y-93955295D01*
X115836700Y-94061431D01*
X115743495Y-94146338D01*
X115679252Y-94202670D01*
X115652085Y-94223080D01*
X115637095Y-94207441D01*
X115600799Y-94149177D01*
X115554314Y-94062610D01*
X115549770Y-94053974D01*
X115484119Y-93955734D01*
X115375860Y-93822033D01*
X115229198Y-93657813D01*
X115048338Y-93468018D01*
X115032089Y-93451383D01*
X114903742Y-93318252D01*
X114793911Y-93201313D01*
X114708994Y-93107609D01*
X114655390Y-93044182D01*
X114639500Y-93018075D01*
X114642065Y-93016647D01*
X114680005Y-93028853D01*
X114740835Y-93069518D01*
X114764975Y-93086357D01*
X114887121Y-93130328D01*
X115022064Y-93129138D01*
X115144315Y-93081999D01*
X115227926Y-93027215D01*
X115227926Y-91839050D01*
X115227925Y-91797434D01*
X115227647Y-91480907D01*
X115226321Y-91220205D01*
X115223141Y-91009308D01*
X115217300Y-90842193D01*
X115207991Y-90712841D01*
X115194409Y-90615230D01*
X115175746Y-90543339D01*
X115151195Y-90491148D01*
X115119951Y-90452636D01*
X115081207Y-90421782D01*
X115034155Y-90392564D01*
X115030816Y-90390589D01*
X114971585Y-90351936D01*
X114961768Y-90329590D01*
X114995560Y-90311337D01*
X115000505Y-90309303D01*
X115064738Y-90267728D01*
X115134084Y-90204433D01*
X115212286Y-90120323D01*
X115221186Y-88932750D01*
X115230086Y-87745177D01*
X115088242Y-87603334D01*
X115020360Y-87532875D01*
X114966887Y-87471821D01*
X114946399Y-87440500D01*
X114959450Y-87432337D01*
X115019302Y-87423102D01*
X115111281Y-87419509D01*
X115297190Y-87391739D01*
X115502055Y-87308762D01*
X115716667Y-87173864D01*
X115934705Y-86990339D01*
X116164096Y-86772440D01*
X116493929Y-87277414D01*
G37*
%TD.AperFunction*%
%TA.AperFunction,EtchedComponent*%
G36*
X112816361Y-85668475D02*
G01*
X112865927Y-85805278D01*
X112973649Y-86058400D01*
X113090422Y-86271069D01*
X113223998Y-86458310D01*
X113353650Y-86599984D01*
X113501109Y-86708365D01*
X113669168Y-86773935D01*
X113875846Y-86806313D01*
X114113644Y-86825778D01*
X114276070Y-87107305D01*
X114438495Y-87388832D01*
X114160400Y-87397826D01*
X113882304Y-87406820D01*
X113882304Y-88736633D01*
X113882368Y-89026034D01*
X113883000Y-89317439D01*
X113884883Y-89556785D01*
X113888705Y-89749779D01*
X113895149Y-89902127D01*
X113904902Y-90019535D01*
X113918649Y-90107709D01*
X113937075Y-90172357D01*
X113960867Y-90219183D01*
X113990708Y-90253895D01*
X114027286Y-90282199D01*
X114071286Y-90309801D01*
X114163388Y-90365812D01*
X114084338Y-90408118D01*
X114079246Y-90410975D01*
X114007517Y-90470202D01*
X113943796Y-90549921D01*
X113939891Y-90556352D01*
X113926144Y-90582579D01*
X113914776Y-90614607D01*
X113905560Y-90658113D01*
X113898271Y-90718773D01*
X113892684Y-90802262D01*
X113888574Y-90914256D01*
X113885717Y-91060432D01*
X113883886Y-91246465D01*
X113882857Y-91478032D01*
X113882404Y-91760808D01*
X113882304Y-92100470D01*
X113882304Y-93551522D01*
X113503903Y-93905982D01*
X113125502Y-94260441D01*
X113051029Y-94099700D01*
X113040698Y-94078957D01*
X112978245Y-93981614D01*
X112878588Y-93856487D01*
X112738203Y-93699374D01*
X112553568Y-93506070D01*
X112451612Y-93400985D01*
X112305345Y-93246222D01*
X112204506Y-93133034D01*
X112148718Y-93060902D01*
X112137603Y-93029306D01*
X112170783Y-93037729D01*
X112247882Y-93085650D01*
X112292590Y-93111935D01*
X112424682Y-93150628D01*
X112554922Y-93139808D01*
X112664781Y-93079738D01*
X112666804Y-93077882D01*
X112681880Y-93060840D01*
X112694101Y-93036542D01*
X112703764Y-92998843D01*
X112711169Y-92941598D01*
X112716614Y-92858661D01*
X112720399Y-92743888D01*
X112722823Y-92591134D01*
X112724184Y-92394253D01*
X112724782Y-92147101D01*
X112724914Y-91843532D01*
X112724518Y-91632503D01*
X112722616Y-91352579D01*
X112719263Y-91106978D01*
X112714599Y-90901346D01*
X112708761Y-90741331D01*
X112701887Y-90632579D01*
X112694115Y-90580737D01*
X112688031Y-90567433D01*
X112632596Y-90496918D01*
X112553329Y-90434835D01*
X112443344Y-90369942D01*
X112544572Y-90301724D01*
X112581725Y-90276350D01*
X112617478Y-90247934D01*
X112646679Y-90214634D01*
X112669991Y-90170685D01*
X112688083Y-90110317D01*
X112701619Y-90027762D01*
X112711265Y-89917254D01*
X112717687Y-89773024D01*
X112721551Y-89589303D01*
X112723523Y-89360325D01*
X112724268Y-89080322D01*
X112724453Y-88743524D01*
X112724914Y-87408069D01*
X112592917Y-87398450D01*
X112560333Y-87395504D01*
X112507526Y-87384289D01*
X112459026Y-87358524D01*
X112404095Y-87309546D01*
X112331995Y-87228694D01*
X112231987Y-87107305D01*
X112003054Y-86825778D01*
X112363984Y-86816965D01*
X112724914Y-86808152D01*
X112727269Y-86113147D01*
X112729624Y-85418142D01*
X112816361Y-85668475D01*
G37*
%TD.AperFunction*%
%TA.AperFunction,EtchedComponent*%
G36*
X102360109Y-90317004D02*
G01*
X102444555Y-90368221D01*
X102349670Y-90417288D01*
X102335391Y-90424756D01*
X102290887Y-90450864D01*
X102254257Y-90481390D01*
X102224733Y-90522148D01*
X102201551Y-90578953D01*
X102183945Y-90657619D01*
X102171148Y-90763959D01*
X102162395Y-90903789D01*
X102156920Y-91082923D01*
X102153957Y-91307175D01*
X102152741Y-91582360D01*
X102152506Y-91914291D01*
X102152506Y-93146691D01*
X102259846Y-93185506D01*
X102309399Y-93208156D01*
X102428939Y-93300181D01*
X102528567Y-93426942D01*
X102591177Y-93568656D01*
X102592547Y-93573796D01*
X102610461Y-93663290D01*
X102608550Y-93709887D01*
X102589499Y-93707405D01*
X102555993Y-93649661D01*
X102550794Y-93639615D01*
X102491567Y-93571934D01*
X102408683Y-93516477D01*
X102379763Y-93503071D01*
X102345742Y-93490757D01*
X102308201Y-93484972D01*
X102261061Y-93487527D01*
X102198240Y-93500236D01*
X102113658Y-93524910D01*
X102001235Y-93563363D01*
X101854890Y-93617406D01*
X101668543Y-93688852D01*
X101436113Y-93779513D01*
X101151521Y-93891202D01*
X101112810Y-93906394D01*
X100900677Y-93989270D01*
X100708335Y-94063793D01*
X100543463Y-94127036D01*
X100413738Y-94176067D01*
X100326837Y-94207958D01*
X100290440Y-94219779D01*
X100289446Y-94219781D01*
X100260947Y-94191992D01*
X100218557Y-94121414D01*
X100171066Y-94022566D01*
X100152034Y-93980506D01*
X100004210Y-93722324D01*
X99818080Y-93487869D01*
X99608448Y-93296257D01*
X99582296Y-93276624D01*
X99433130Y-93173090D01*
X99291221Y-93093623D01*
X99139173Y-93030848D01*
X98959591Y-92977387D01*
X98735080Y-92925863D01*
X98649058Y-92907821D01*
X98649058Y-91757988D01*
X98649060Y-91706221D01*
X98648982Y-91405730D01*
X98648095Y-91160550D01*
X98645496Y-90964404D01*
X98640279Y-90811012D01*
X98631542Y-90694096D01*
X98618380Y-90607377D01*
X98599889Y-90544576D01*
X98575166Y-90499415D01*
X98543306Y-90465615D01*
X98503406Y-90436896D01*
X98454562Y-90406981D01*
X98449073Y-90403637D01*
X98393517Y-90366440D01*
X98387299Y-90346137D01*
X98425558Y-90329787D01*
X98435437Y-90325958D01*
X98501213Y-90282026D01*
X98569482Y-90214793D01*
X98649058Y-90120223D01*
X98648740Y-89004334D01*
X98648546Y-88325368D01*
X99806447Y-88325368D01*
X99806447Y-90742314D01*
X99806461Y-90825469D01*
X99806880Y-91204559D01*
X99807851Y-91563936D01*
X99809327Y-91898839D01*
X99811261Y-92204507D01*
X99813608Y-92476179D01*
X99816320Y-92709095D01*
X99819353Y-92898492D01*
X99822659Y-93039611D01*
X99826193Y-93127691D01*
X99829907Y-93157970D01*
X99837569Y-93156173D01*
X99893467Y-93137240D01*
X99992185Y-93101141D01*
X100122589Y-93052178D01*
X100273545Y-92994654D01*
X100433916Y-92932872D01*
X100592569Y-92871136D01*
X100738368Y-92813748D01*
X100860179Y-92765012D01*
X100946867Y-92729229D01*
X100987297Y-92710704D01*
X100991006Y-92705670D01*
X100998074Y-92676558D01*
X101004206Y-92619472D01*
X101009456Y-92530956D01*
X101013880Y-92407548D01*
X101017535Y-92245792D01*
X101020474Y-92042228D01*
X101022755Y-91793397D01*
X101024432Y-91495842D01*
X101025561Y-91146101D01*
X101026198Y-90740718D01*
X101026398Y-90276234D01*
X101026314Y-89957535D01*
X101025856Y-89536737D01*
X101024950Y-89172698D01*
X101023538Y-88861959D01*
X101021566Y-88601061D01*
X101018975Y-88386543D01*
X101015710Y-88214947D01*
X101011715Y-88082811D01*
X101006932Y-87986677D01*
X101001306Y-87923085D01*
X100994780Y-87888575D01*
X100987297Y-87879688D01*
X100985854Y-87880197D01*
X100940566Y-87896961D01*
X100847376Y-87931904D01*
X100715977Y-87981376D01*
X100556062Y-88041730D01*
X100377321Y-88109315D01*
X99806447Y-88325368D01*
X98648546Y-88325368D01*
X98648421Y-87888446D01*
X98526378Y-87837207D01*
X98469006Y-87806412D01*
X98355863Y-87703475D01*
X98269029Y-87566769D01*
X98222565Y-87415799D01*
X98205234Y-87294111D01*
X98269068Y-87393778D01*
X98309914Y-87449865D01*
X98411506Y-87533097D01*
X98531435Y-87559998D01*
X98554894Y-87555405D01*
X98634585Y-87531113D01*
X98760234Y-87488310D01*
X98924373Y-87429682D01*
X99119535Y-87357910D01*
X99338252Y-87275679D01*
X99573057Y-87185672D01*
X99733328Y-87124068D01*
X99952941Y-87041062D01*
X100149015Y-86968606D01*
X100314616Y-86909173D01*
X100442807Y-86865239D01*
X100526657Y-86839277D01*
X100559229Y-86833763D01*
X100573207Y-86858432D01*
X100605519Y-86928562D01*
X100645253Y-87023326D01*
X100708899Y-87159237D01*
X100871804Y-87405506D01*
X101080756Y-87627983D01*
X101325524Y-87818035D01*
X101595875Y-87967031D01*
X101881576Y-88066337D01*
X102152506Y-88133222D01*
X102152506Y-89072325D01*
X102152624Y-89270966D01*
X102153397Y-89500379D01*
X102155274Y-89680157D01*
X102158689Y-89817840D01*
X102164079Y-89920962D01*
X102171878Y-89997063D01*
X102182522Y-90053679D01*
X102196445Y-90098348D01*
X102214084Y-90138607D01*
X102229236Y-90167037D01*
X102293053Y-90256130D01*
X102315199Y-90276234D01*
X102360109Y-90317004D01*
G37*
%TD.AperFunction*%
%TA.AperFunction,EtchedComponent*%
G36*
X106870398Y-84729982D02*
G01*
X106969446Y-84884070D01*
X107057189Y-85024455D01*
X107126543Y-85139582D01*
X107172113Y-85220492D01*
X107188502Y-85258223D01*
X107187021Y-85271329D01*
X107149993Y-85328937D01*
X107060280Y-85396484D01*
X106914003Y-85477064D01*
X106748986Y-85559761D01*
X106757599Y-87820267D01*
X106758996Y-88175533D01*
X106760693Y-88559457D01*
X106762480Y-88888798D01*
X106764480Y-89167958D01*
X106766817Y-89401338D01*
X106769613Y-89593339D01*
X106772992Y-89748364D01*
X106777077Y-89870813D01*
X106781991Y-89965087D01*
X106787858Y-90035589D01*
X106794800Y-90086720D01*
X106802942Y-90122881D01*
X106812405Y-90148474D01*
X106823314Y-90167900D01*
X106889425Y-90239150D01*
X106977390Y-90295802D01*
X107074365Y-90336577D01*
X106978233Y-90386288D01*
X106968528Y-90391696D01*
X106885745Y-90465475D01*
X106816336Y-90571853D01*
X106811042Y-90582918D01*
X106796405Y-90616760D01*
X106784342Y-90654300D01*
X106774604Y-90701424D01*
X106766942Y-90764017D01*
X106761108Y-90847967D01*
X106756853Y-90959160D01*
X106753929Y-91103482D01*
X106752087Y-91286820D01*
X106751079Y-91515060D01*
X106750657Y-91794089D01*
X106750571Y-92129793D01*
X106750571Y-93551881D01*
X106393224Y-93887281D01*
X106319412Y-93956254D01*
X106204967Y-94061873D01*
X106111621Y-94146347D01*
X106047479Y-94202382D01*
X106020645Y-94222682D01*
X106010034Y-94212391D01*
X105977757Y-94159982D01*
X105935414Y-94078084D01*
X105909692Y-94034665D01*
X105835807Y-93935044D01*
X105727004Y-93804483D01*
X105589638Y-93650497D01*
X105430066Y-93480601D01*
X105338593Y-93384918D01*
X105191401Y-93227616D01*
X105089081Y-93112740D01*
X105031309Y-93039856D01*
X105017758Y-93008527D01*
X105048102Y-93018319D01*
X105122016Y-93068794D01*
X105136242Y-93078789D01*
X105265205Y-93131926D01*
X105400059Y-93131104D01*
X105522601Y-93075996D01*
X105608822Y-93011625D01*
X105616823Y-90426513D01*
X105617489Y-90201601D01*
X105618487Y-89815361D01*
X105619249Y-89450231D01*
X105619774Y-89110817D01*
X105620062Y-88801724D01*
X105620114Y-88527557D01*
X105619929Y-88292924D01*
X105619508Y-88102429D01*
X105618849Y-87960678D01*
X105617955Y-87872277D01*
X105616823Y-87841831D01*
X105614647Y-87842472D01*
X105571987Y-87858057D01*
X105481821Y-87891969D01*
X105352970Y-87940862D01*
X105194252Y-88001394D01*
X105014487Y-88070220D01*
X104420152Y-88298180D01*
X104420152Y-91064926D01*
X104420154Y-91158698D01*
X104420240Y-91628938D01*
X104420515Y-92041477D01*
X104421058Y-92400415D01*
X104421949Y-92709852D01*
X104423266Y-92973890D01*
X104425089Y-93196627D01*
X104427497Y-93382166D01*
X104430571Y-93534605D01*
X104434389Y-93658047D01*
X104439031Y-93756590D01*
X104444576Y-93834336D01*
X104451104Y-93895386D01*
X104458694Y-93943839D01*
X104467425Y-93983795D01*
X104477377Y-94019357D01*
X104479646Y-94026747D01*
X104586423Y-94298017D01*
X104724792Y-94528971D01*
X104889939Y-94712992D01*
X105077049Y-94843464D01*
X105089232Y-94849818D01*
X105151230Y-94886355D01*
X105161679Y-94904185D01*
X105118536Y-94903329D01*
X105019756Y-94883806D01*
X104863295Y-94845640D01*
X104807796Y-94830592D01*
X104531079Y-94732573D01*
X104259806Y-94602057D01*
X104022396Y-94452335D01*
X103934036Y-94383294D01*
X103720960Y-94179160D01*
X103538817Y-93949546D01*
X103397510Y-93708072D01*
X103306943Y-93468356D01*
X103301507Y-93439304D01*
X103291476Y-93335715D01*
X103282353Y-93171687D01*
X103274183Y-92948625D01*
X103267016Y-92667932D01*
X103260896Y-92331011D01*
X103255871Y-91939267D01*
X103241039Y-90547355D01*
X103121671Y-90433803D01*
X103002302Y-90320251D01*
X103080460Y-90278422D01*
X103104072Y-90265354D01*
X103141778Y-90239810D01*
X103172204Y-90207352D01*
X103196131Y-90161796D01*
X103214338Y-90096960D01*
X103227604Y-90006661D01*
X103236710Y-89884716D01*
X103242435Y-89724942D01*
X103245559Y-89521155D01*
X103246862Y-89267173D01*
X103247123Y-88956814D01*
X103247123Y-87848183D01*
X103174003Y-87829832D01*
X103119969Y-87810111D01*
X103005037Y-87729616D01*
X102906190Y-87612664D01*
X102836739Y-87477135D01*
X102809995Y-87340909D01*
X102809959Y-87322513D01*
X102814042Y-87288845D01*
X102831630Y-87301861D01*
X102871884Y-87365149D01*
X102909079Y-87415728D01*
X103021244Y-87499167D01*
X103158789Y-87528593D01*
X103173112Y-87525359D01*
X103239939Y-87503778D01*
X103351974Y-87464658D01*
X103500682Y-87411196D01*
X103677524Y-87346590D01*
X103873966Y-87274038D01*
X104081470Y-87196739D01*
X104291501Y-87117890D01*
X104495522Y-87040689D01*
X104684995Y-86968335D01*
X104851386Y-86904026D01*
X104986158Y-86850959D01*
X105080773Y-86812332D01*
X105126697Y-86791344D01*
X105135759Y-86797241D01*
X105169249Y-86845221D01*
X105219138Y-86931175D01*
X105278419Y-87043463D01*
X105302784Y-87090213D01*
X105378425Y-87223280D01*
X105454186Y-87342068D01*
X105516817Y-87425350D01*
X105621858Y-87544234D01*
X105623160Y-86369267D01*
X105624463Y-85194299D01*
X105533710Y-85127203D01*
X105452007Y-85054510D01*
X105377965Y-84968833D01*
X105312972Y-84877560D01*
X105445257Y-84892141D01*
X105546736Y-84892781D01*
X105736088Y-84847439D01*
X105945955Y-84743919D01*
X106175691Y-84582570D01*
X106424647Y-84363742D01*
X106552295Y-84241480D01*
X106870398Y-84729982D01*
G37*
%TD.AperFunction*%
%TA.AperFunction,EtchedComponent*%
G36*
X109762095Y-86855539D02*
G01*
X109774023Y-86867428D01*
X109792832Y-86919742D01*
X109900343Y-87152965D01*
X110044326Y-87368002D01*
X110236494Y-87582974D01*
X110269651Y-87615816D01*
X110466671Y-87789263D01*
X110661395Y-87917258D01*
X110872632Y-88010373D01*
X111119186Y-88079180D01*
X111347325Y-88129936D01*
X111347325Y-89049579D01*
X111347325Y-89969223D01*
X111254656Y-89969223D01*
X111199461Y-89975371D01*
X111094748Y-89999766D01*
X110980949Y-90036387D01*
X110940995Y-90052113D01*
X110821395Y-90104549D01*
X110667242Y-90177045D01*
X110487624Y-90264869D01*
X110291626Y-90363288D01*
X110088335Y-90467571D01*
X109886835Y-90572985D01*
X109696214Y-90674796D01*
X109525557Y-90768274D01*
X109383950Y-90848685D01*
X109280480Y-90911297D01*
X109224232Y-90951377D01*
X109177214Y-90995776D01*
X109126921Y-91050188D01*
X109087334Y-91108008D01*
X109057167Y-91176629D01*
X109035133Y-91263446D01*
X109019947Y-91375853D01*
X109010321Y-91521244D01*
X109004972Y-91707012D01*
X109002611Y-91940553D01*
X109001953Y-92229260D01*
X109001991Y-92310183D01*
X109003196Y-92537816D01*
X109005874Y-92741279D01*
X109009817Y-92912893D01*
X109014816Y-93044980D01*
X109020664Y-93129863D01*
X109027153Y-93159863D01*
X109061313Y-93151100D01*
X109138201Y-93124380D01*
X109238299Y-93085968D01*
X109339971Y-93045817D01*
X109481922Y-92990306D01*
X109644722Y-92927015D01*
X109809520Y-92863293D01*
X110195484Y-92714515D01*
X110184889Y-92100428D01*
X110182358Y-91975521D01*
X110174492Y-91753296D01*
X110161370Y-91581341D01*
X110140754Y-91451330D01*
X110110408Y-91354939D01*
X110068091Y-91283840D01*
X110011568Y-91229709D01*
X109938598Y-91184219D01*
X109915509Y-91171141D01*
X109876819Y-91139301D01*
X109891850Y-91125670D01*
X109955581Y-91131332D01*
X110062991Y-91157370D01*
X110104926Y-91172208D01*
X110178276Y-91212799D01*
X110260265Y-91278388D01*
X110357782Y-91375482D01*
X110477715Y-91510590D01*
X110626953Y-91690219D01*
X110698938Y-91777082D01*
X110835789Y-91929485D01*
X110955752Y-92039909D01*
X111069539Y-92116180D01*
X111187861Y-92166122D01*
X111321430Y-92197562D01*
X111520052Y-92231584D01*
X111433688Y-92317948D01*
X111401243Y-92352020D01*
X111375394Y-92389872D01*
X111359492Y-92438655D01*
X111351123Y-92511276D01*
X111347872Y-92620642D01*
X111347325Y-92779662D01*
X111347325Y-93155011D01*
X111455784Y-93190806D01*
X111517795Y-93217177D01*
X111643227Y-93317348D01*
X111737462Y-93466880D01*
X111796569Y-93660356D01*
X111817186Y-93769839D01*
X111755974Y-93670172D01*
X111744461Y-93652077D01*
X111658875Y-93557439D01*
X111553417Y-93513612D01*
X111412724Y-93513587D01*
X111358676Y-93527264D01*
X111256974Y-93559649D01*
X111116559Y-93607441D01*
X110946314Y-93667350D01*
X110755122Y-93736082D01*
X110551866Y-93810346D01*
X110345430Y-93886849D01*
X110144696Y-93962300D01*
X109958548Y-94033407D01*
X109795869Y-94096877D01*
X109665541Y-94149419D01*
X109576448Y-94187741D01*
X109537473Y-94208550D01*
X109537109Y-94208911D01*
X109501456Y-94222988D01*
X109460780Y-94193233D01*
X109410617Y-94114327D01*
X109346504Y-93980950D01*
X109345762Y-93979291D01*
X109281423Y-93849026D01*
X109209239Y-93735913D01*
X109115564Y-93621180D01*
X108986751Y-93486053D01*
X108868749Y-93374836D01*
X108611660Y-93181895D01*
X108342389Y-93046562D01*
X108055022Y-92965534D01*
X107843876Y-92926630D01*
X107843876Y-91952063D01*
X107843876Y-90977496D01*
X108055022Y-90955043D01*
X108339679Y-90909259D01*
X108667204Y-90822070D01*
X109020939Y-90693822D01*
X109406025Y-90522632D01*
X109827600Y-90306621D01*
X109862514Y-90287916D01*
X109949875Y-90241595D01*
X110020271Y-90200508D01*
X110075471Y-90157877D01*
X110117247Y-90106922D01*
X110147369Y-90040865D01*
X110167609Y-89952926D01*
X110179736Y-89836325D01*
X110185521Y-89684285D01*
X110186736Y-89490024D01*
X110185150Y-89246765D01*
X110182535Y-88947728D01*
X110174295Y-87879716D01*
X109595601Y-88105728D01*
X109016906Y-88331740D01*
X109019941Y-88814213D01*
X109020991Y-88915879D01*
X109027540Y-89125834D01*
X109041534Y-89286269D01*
X109065228Y-89406353D01*
X109100875Y-89495253D01*
X109150727Y-89562136D01*
X109217037Y-89616170D01*
X109323325Y-89687696D01*
X109239251Y-89687696D01*
X109168086Y-89680053D01*
X109061599Y-89638899D01*
X108946320Y-89557593D01*
X108815488Y-89431055D01*
X108662342Y-89254203D01*
X108554946Y-89126461D01*
X108445347Y-89002549D01*
X108348811Y-88899564D01*
X108278164Y-88831612D01*
X108266287Y-88821666D01*
X108106367Y-88718578D01*
X107928187Y-88649417D01*
X107756794Y-88624149D01*
X107649576Y-88624149D01*
X107746726Y-88533397D01*
X107751314Y-88529105D01*
X107795653Y-88484235D01*
X107822948Y-88440655D01*
X107837329Y-88382401D01*
X107842928Y-88293513D01*
X107843876Y-88158027D01*
X107843264Y-88046569D01*
X107839377Y-87953081D01*
X107829640Y-87900939D01*
X107811500Y-87878322D01*
X107782403Y-87873410D01*
X107741136Y-87866435D01*
X107650324Y-87814791D01*
X107559987Y-87725531D01*
X107481736Y-87613832D01*
X107427180Y-87494873D01*
X107407928Y-87383830D01*
X107409995Y-87335396D01*
X107417740Y-87320964D01*
X107436603Y-87360777D01*
X107441741Y-87372681D01*
X107520397Y-87475414D01*
X107634658Y-87538865D01*
X107765674Y-87552077D01*
X107787528Y-87547691D01*
X107872152Y-87522936D01*
X108002873Y-87479471D01*
X108171529Y-87420194D01*
X108369955Y-87348005D01*
X108589988Y-87265801D01*
X108823466Y-87176481D01*
X108894267Y-87149104D01*
X109142374Y-87053759D01*
X109339558Y-86979321D01*
X109491545Y-86923926D01*
X109604065Y-86885713D01*
X109682844Y-86862819D01*
X109733612Y-86853382D01*
X109762095Y-86855539D01*
G37*
%TD.AperFunction*%
%TA.AperFunction,EtchedComponent*%
G36*
X97563570Y-88859374D02*
G01*
X97565590Y-89142778D01*
X97567935Y-89379956D01*
X97570726Y-89575301D01*
X97574087Y-89733205D01*
X97578138Y-89858063D01*
X97583003Y-89954268D01*
X97588803Y-90026213D01*
X97595661Y-90078291D01*
X97603699Y-90114897D01*
X97613039Y-90140422D01*
X97623804Y-90159262D01*
X97690334Y-90230142D01*
X97776957Y-90289039D01*
X97873848Y-90335965D01*
X97775731Y-90386703D01*
X97742543Y-90403734D01*
X97701461Y-90426749D01*
X97667337Y-90452991D01*
X97639458Y-90487854D01*
X97617111Y-90536730D01*
X97599583Y-90605014D01*
X97586160Y-90698100D01*
X97576129Y-90821379D01*
X97568778Y-90980247D01*
X97563393Y-91180096D01*
X97559261Y-91426320D01*
X97555668Y-91724312D01*
X97551902Y-92079466D01*
X97536262Y-93553608D01*
X97187922Y-93887362D01*
X97119824Y-93952307D01*
X97006694Y-94058753D01*
X96914121Y-94143995D01*
X96850234Y-94200595D01*
X96823163Y-94221115D01*
X96811453Y-94209866D01*
X96778173Y-94156213D01*
X96735161Y-94073243D01*
X96719635Y-94045309D01*
X96651424Y-93948930D01*
X96545936Y-93820102D01*
X96409269Y-93666064D01*
X96247518Y-93494059D01*
X96238721Y-93484933D01*
X96110037Y-93349826D01*
X95998245Y-93229561D01*
X95910069Y-93131597D01*
X95852232Y-93063395D01*
X95831459Y-93032415D01*
X95833732Y-93027428D01*
X95868909Y-93031778D01*
X95933121Y-93064069D01*
X95956532Y-93077293D01*
X96092275Y-93120453D01*
X96227833Y-93115131D01*
X96343373Y-93061455D01*
X96425794Y-92996623D01*
X96425794Y-91587912D01*
X96425540Y-91281340D01*
X96424558Y-90986725D01*
X96422718Y-90746324D01*
X96419897Y-90555689D01*
X96415968Y-90410374D01*
X96410808Y-90305935D01*
X96404292Y-90237924D01*
X96396295Y-90201896D01*
X96386693Y-90193404D01*
X96385152Y-90193968D01*
X96339572Y-90210996D01*
X96246107Y-90246112D01*
X96114441Y-90295671D01*
X95954259Y-90356027D01*
X95775245Y-90423537D01*
X95202899Y-90639465D01*
X95214805Y-92234785D01*
X95214844Y-92240075D01*
X95217691Y-92612421D01*
X95220612Y-92928150D01*
X95224192Y-93193127D01*
X95229017Y-93413217D01*
X95235672Y-93594284D01*
X95244742Y-93742195D01*
X95256812Y-93862814D01*
X95272467Y-93962006D01*
X95292291Y-94045637D01*
X95316871Y-94119571D01*
X95346791Y-94189673D01*
X95382636Y-94261810D01*
X95424991Y-94341845D01*
X95497021Y-94463898D01*
X95657921Y-94661684D01*
X95850588Y-94809566D01*
X96081705Y-94913359D01*
X96108994Y-94923089D01*
X96124785Y-94933520D01*
X96094735Y-94932642D01*
X96029005Y-94922363D01*
X95937755Y-94904588D01*
X95831146Y-94881222D01*
X95719339Y-94854172D01*
X95612493Y-94825344D01*
X95457970Y-94776409D01*
X95139221Y-94640007D01*
X94856138Y-94462728D01*
X94595212Y-94236755D01*
X94516197Y-94154734D01*
X94407894Y-94031607D01*
X94317718Y-93916960D01*
X94259595Y-93827763D01*
X94239242Y-93788928D01*
X94203600Y-93716932D01*
X94173702Y-93646523D01*
X94149044Y-93571870D01*
X94129121Y-93487139D01*
X94113430Y-93386501D01*
X94101466Y-93264124D01*
X94092726Y-93114175D01*
X94086705Y-92930823D01*
X94082899Y-92708236D01*
X94080805Y-92440583D01*
X94079918Y-92122032D01*
X94079735Y-91746752D01*
X94079735Y-90192675D01*
X93998275Y-90172230D01*
X93931564Y-90149002D01*
X93843363Y-90103658D01*
X93802307Y-90066078D01*
X93736123Y-89974482D01*
X93674229Y-89860389D01*
X93628457Y-89746570D01*
X93610640Y-89655798D01*
X93610789Y-89634083D01*
X93615314Y-89601331D01*
X93633231Y-89615292D01*
X93673886Y-89679463D01*
X93700939Y-89717183D01*
X93797214Y-89800246D01*
X93910987Y-89848986D01*
X94020065Y-89852321D01*
X94047870Y-89843705D01*
X94131649Y-89813835D01*
X94258408Y-89766547D01*
X94419132Y-89705257D01*
X94604809Y-89633380D01*
X94806422Y-89554333D01*
X95517469Y-89273830D01*
X94860708Y-88627214D01*
X94789951Y-88557550D01*
X95148966Y-88557550D01*
X95176924Y-88655127D01*
X95252792Y-88762460D01*
X95375102Y-88887741D01*
X95433619Y-88943008D01*
X95558033Y-89060519D01*
X95705796Y-89200088D01*
X95863158Y-89348727D01*
X96016370Y-89493450D01*
X96425794Y-89880194D01*
X96425794Y-89207907D01*
X96425794Y-88535620D01*
X96261570Y-88408416D01*
X96163583Y-88327622D01*
X96040030Y-88217161D01*
X95928475Y-88109576D01*
X95759604Y-87937939D01*
X95511556Y-88126762D01*
X95367239Y-88241459D01*
X95242655Y-88358906D01*
X95170387Y-88461540D01*
X95148966Y-88557550D01*
X94789951Y-88557550D01*
X94203948Y-87980598D01*
X94204403Y-87822886D01*
X94206566Y-87751033D01*
X94221714Y-87678840D01*
X94261567Y-87616347D01*
X94337801Y-87538676D01*
X94343077Y-87533673D01*
X94430374Y-87453864D01*
X94542137Y-87355657D01*
X94669405Y-87246480D01*
X94803214Y-87133762D01*
X94934604Y-87024930D01*
X95054612Y-86927414D01*
X95154275Y-86848640D01*
X95224633Y-86796037D01*
X95256722Y-86777034D01*
X95272433Y-86790014D01*
X95315736Y-86846977D01*
X95376536Y-86938823D01*
X95446958Y-87054084D01*
X95489757Y-87124774D01*
X95591987Y-87283198D01*
X95708084Y-87452322D01*
X95831960Y-87624313D01*
X95957530Y-87791338D01*
X96078706Y-87945561D01*
X96189401Y-88079149D01*
X96283529Y-88184269D01*
X96355002Y-88253085D01*
X96397734Y-88277765D01*
X96403158Y-88252259D01*
X96408613Y-88169036D01*
X96413480Y-88032907D01*
X96417668Y-87848919D01*
X96421086Y-87622115D01*
X96423640Y-87357539D01*
X96425240Y-87060236D01*
X96425794Y-86735249D01*
X96425794Y-85192732D01*
X96335041Y-85125636D01*
X96253668Y-85053589D01*
X96182076Y-84971170D01*
X96119863Y-84883800D01*
X96296947Y-84883800D01*
X96443235Y-84867686D01*
X96654355Y-84793531D01*
X96879019Y-84658957D01*
X97117674Y-84463738D01*
X97355983Y-84244994D01*
X97690874Y-84747590D01*
X98025765Y-85250187D01*
X97959644Y-85320569D01*
X97916979Y-85357389D01*
X97826587Y-85418758D01*
X97721736Y-85477867D01*
X97549950Y-85564783D01*
X97558746Y-87820597D01*
X97560013Y-88136310D01*
X97561751Y-88525349D01*
X97561807Y-88535620D01*
X97563570Y-88859374D01*
G37*
%TD.AperFunction*%
%TA.AperFunction,EtchedComponent*%
G36*
X92875379Y-91236987D02*
G01*
X93013340Y-91252111D01*
X93078523Y-91256263D01*
X93166397Y-91271253D01*
X93202157Y-91282952D01*
X93213508Y-91302180D01*
X93190798Y-91341074D01*
X93130548Y-91413421D01*
X93090913Y-91463050D01*
X93046578Y-91533818D01*
X93012947Y-91615130D01*
X92988604Y-91715650D01*
X92972135Y-91844039D01*
X92962123Y-92008962D01*
X92957153Y-92219082D01*
X92955811Y-92483061D01*
X92955811Y-93154960D01*
X93063730Y-93190577D01*
X93117135Y-93214035D01*
X93232986Y-93302026D01*
X93330493Y-93423249D01*
X93391861Y-93557787D01*
X93417567Y-93664060D01*
X93422096Y-93722243D01*
X93404123Y-93724762D01*
X93364018Y-93670121D01*
X93351566Y-93650469D01*
X93266473Y-93556606D01*
X93161447Y-93513567D01*
X93021211Y-93514415D01*
X93009227Y-93516472D01*
X92929938Y-93537977D01*
X92803585Y-93578862D01*
X92638879Y-93636047D01*
X92444531Y-93706456D01*
X92229250Y-93787011D01*
X92001747Y-93874634D01*
X91924114Y-93904920D01*
X91708230Y-93988669D01*
X91513031Y-94063718D01*
X91346023Y-94127225D01*
X91214713Y-94176350D01*
X91126606Y-94208249D01*
X91089210Y-94220082D01*
X91080961Y-94218288D01*
X91047301Y-94179689D01*
X91015357Y-94106056D01*
X90952383Y-93952472D01*
X90844393Y-93765235D01*
X90716053Y-93598340D01*
X90610594Y-93481610D01*
X90244288Y-93852485D01*
X90153385Y-93943938D01*
X90041257Y-94054970D01*
X89950027Y-94143221D01*
X89887299Y-94201365D01*
X89860677Y-94222077D01*
X89846247Y-94206379D01*
X89811595Y-94147419D01*
X89767798Y-94059916D01*
X89767037Y-94058306D01*
X89707694Y-93960669D01*
X89606750Y-93831089D01*
X89462000Y-93666925D01*
X89271238Y-93465537D01*
X89186084Y-93377257D01*
X89043179Y-93225241D01*
X88943062Y-93112537D01*
X88886269Y-93039875D01*
X88873337Y-93007989D01*
X88904801Y-93017611D01*
X88981197Y-93069471D01*
X89107246Y-93128575D01*
X89243693Y-93134997D01*
X89370104Y-93087145D01*
X89452363Y-93033247D01*
X89452363Y-91841170D01*
X89452362Y-91801104D01*
X89452178Y-91502736D01*
X89451473Y-91259804D01*
X89449943Y-91065950D01*
X89447282Y-90914817D01*
X89443188Y-90800046D01*
X89437356Y-90715281D01*
X89429483Y-90654162D01*
X89419263Y-90610332D01*
X89406393Y-90577434D01*
X89390570Y-90549109D01*
X89386079Y-90542079D01*
X89318779Y-90464041D01*
X89244445Y-90410702D01*
X89160113Y-90372277D01*
X89255666Y-90314168D01*
X89256105Y-90313901D01*
X89305989Y-90283310D01*
X89346617Y-90253950D01*
X89378937Y-90219440D01*
X89378949Y-90219418D01*
X90609752Y-90219418D01*
X90609752Y-91689615D01*
X90610204Y-91976427D01*
X90611558Y-92253671D01*
X90613719Y-92504968D01*
X90616590Y-92724214D01*
X90620072Y-92905308D01*
X90624068Y-93042148D01*
X90628481Y-93128630D01*
X90633213Y-93158654D01*
X90648859Y-93154625D01*
X90713829Y-93132384D01*
X90814925Y-93095137D01*
X90938200Y-93047946D01*
X90973932Y-93034050D01*
X91149401Y-92965959D01*
X91339552Y-92892354D01*
X91509075Y-92826907D01*
X91798422Y-92715417D01*
X91798422Y-91971532D01*
X91798422Y-91227648D01*
X91673023Y-90977107D01*
X91573915Y-90808017D01*
X91422634Y-90616626D01*
X91249993Y-90454382D01*
X91065844Y-90328973D01*
X90880037Y-90248088D01*
X90702421Y-90219418D01*
X90609752Y-90219418D01*
X89378949Y-90219418D01*
X89403900Y-90173403D01*
X89422454Y-90109458D01*
X89435548Y-90021227D01*
X89444133Y-89902331D01*
X89449158Y-89746389D01*
X89451571Y-89547025D01*
X89452323Y-89297857D01*
X89452363Y-88992507D01*
X89452363Y-88984783D01*
X89452245Y-88692230D01*
X89451680Y-88456065D01*
X89450345Y-88270262D01*
X89447915Y-88128791D01*
X89444067Y-88025624D01*
X89438476Y-87954733D01*
X89430817Y-87910089D01*
X89420768Y-87885665D01*
X89408004Y-87875431D01*
X89392201Y-87873359D01*
X89349239Y-87865463D01*
X89259931Y-87812368D01*
X89170535Y-87721938D01*
X89092381Y-87609116D01*
X89036799Y-87488843D01*
X89015119Y-87376061D01*
X89015132Y-87358056D01*
X89020440Y-87328373D01*
X89040901Y-87343315D01*
X89085781Y-87406928D01*
X89103719Y-87432029D01*
X89200826Y-87521505D01*
X89318322Y-87555360D01*
X89465130Y-87536647D01*
X89477013Y-87533203D01*
X89554931Y-87507067D01*
X89680103Y-87462181D01*
X89843884Y-87401756D01*
X90037634Y-87329003D01*
X90252710Y-87247134D01*
X90480469Y-87159360D01*
X91359369Y-86818566D01*
X91489484Y-87087896D01*
X91539162Y-87185705D01*
X91623934Y-87325365D01*
X91725492Y-87455299D01*
X91860741Y-87598770D01*
X92033507Y-87756654D01*
X92239929Y-87900251D01*
X92463581Y-88003863D01*
X92723914Y-88078293D01*
X92948294Y-88128213D01*
X92963242Y-88283775D01*
X92966199Y-88310272D01*
X92997872Y-88433202D01*
X93062350Y-88527182D01*
X93146510Y-88615027D01*
X92990738Y-88633475D01*
X92946621Y-88639244D01*
X92856363Y-88656729D01*
X92773477Y-88684760D01*
X92691174Y-88728684D01*
X92602667Y-88793849D01*
X92501166Y-88885603D01*
X92379883Y-89009294D01*
X92232028Y-89170268D01*
X92050814Y-89373874D01*
X91912731Y-89517714D01*
X91787949Y-89616676D01*
X91672429Y-89670729D01*
X91557001Y-89685662D01*
X91514110Y-89683822D01*
X91496109Y-89676193D01*
X91532535Y-89657802D01*
X91614169Y-89605388D01*
X91704563Y-89497049D01*
X91766492Y-89359196D01*
X91770185Y-89343560D01*
X91782005Y-89257655D01*
X91793736Y-89124093D01*
X91804623Y-88954147D01*
X91813907Y-88759094D01*
X91820830Y-88550206D01*
X91825587Y-88361584D01*
X91829313Y-88184323D01*
X91830373Y-88055941D01*
X91828303Y-87968960D01*
X91822634Y-87915900D01*
X91812902Y-87889283D01*
X91798640Y-87881632D01*
X91779381Y-87885467D01*
X91733931Y-87902047D01*
X91639985Y-87937820D01*
X91508268Y-87988672D01*
X91349101Y-88050616D01*
X91172806Y-88119667D01*
X90625393Y-88334739D01*
X90617082Y-89176498D01*
X90608771Y-90018257D01*
X90789126Y-90025245D01*
X90893710Y-90036140D01*
X91025316Y-90070982D01*
X91166744Y-90133600D01*
X91326259Y-90228437D01*
X91512126Y-90359938D01*
X91732612Y-90532546D01*
X91870511Y-90642690D01*
X92130375Y-90840191D01*
X92355729Y-90995526D01*
X92551638Y-91111540D01*
X92723166Y-91191079D01*
X92844415Y-91227648D01*
X92875379Y-91236987D01*
G37*
%TD.AperFunction*%
%TA.AperFunction,EtchedComponent*%
G36*
X121311447Y-88376233D02*
G01*
X121311333Y-88725529D01*
X121311375Y-89053364D01*
X121312273Y-89328245D01*
X121314729Y-89555197D01*
X121319445Y-89739245D01*
X121327124Y-89885414D01*
X121338468Y-89998729D01*
X121354179Y-90084215D01*
X121374959Y-90146896D01*
X121401510Y-90191797D01*
X121434536Y-90223944D01*
X121474737Y-90248360D01*
X121522817Y-90270071D01*
X121579477Y-90294101D01*
X121639162Y-90321558D01*
X121706186Y-90356666D01*
X121732263Y-90376828D01*
X121720053Y-90388299D01*
X121664586Y-90419515D01*
X121579477Y-90459555D01*
X121552964Y-90471265D01*
X121482108Y-90505389D01*
X121426650Y-90542110D01*
X121384591Y-90588923D01*
X121353936Y-90653324D01*
X121332685Y-90742807D01*
X121323992Y-90819448D01*
X121318841Y-90864867D01*
X121310407Y-91027001D01*
X121305385Y-91236703D01*
X121301776Y-91501468D01*
X121292105Y-92300596D01*
X121739707Y-92301868D01*
X121877215Y-92302756D01*
X122026552Y-92306505D01*
X122140873Y-92315002D01*
X122236216Y-92330263D01*
X122328619Y-92354304D01*
X122434119Y-92389141D01*
X122606973Y-92454701D01*
X122801859Y-92549389D01*
X122967610Y-92660787D01*
X123123450Y-92800364D01*
X123236956Y-92929947D01*
X123393081Y-93176276D01*
X123510655Y-93456560D01*
X123584787Y-93758068D01*
X123610585Y-94068068D01*
X123609288Y-94130364D01*
X123569703Y-94407542D01*
X123477382Y-94657930D01*
X123335703Y-94876040D01*
X123148043Y-95056386D01*
X122917780Y-95193483D01*
X122876831Y-95210834D01*
X122784565Y-95241961D01*
X122719082Y-95253474D01*
X122705628Y-95249785D01*
X122724827Y-95231872D01*
X122789986Y-95204460D01*
X122817753Y-95193652D01*
X122968106Y-95106218D01*
X123116466Y-94978227D01*
X123246196Y-94825956D01*
X123340662Y-94665679D01*
X123394674Y-94516936D01*
X123441523Y-94274639D01*
X123446781Y-94028028D01*
X123408585Y-93800824D01*
X123400957Y-93775989D01*
X123308579Y-93587398D01*
X123168951Y-93432885D01*
X122988160Y-93314776D01*
X122772293Y-93235399D01*
X122527440Y-93197081D01*
X122259686Y-93202148D01*
X121975120Y-93252927D01*
X121949693Y-93259832D01*
X121820746Y-93301468D01*
X121658221Y-93361271D01*
X121480359Y-93432302D01*
X121305399Y-93507625D01*
X121271462Y-93522857D01*
X120931655Y-93674974D01*
X120624642Y-93811695D01*
X120353872Y-93931513D01*
X120122792Y-94032924D01*
X119934851Y-94114420D01*
X119793496Y-94174497D01*
X119702177Y-94211647D01*
X119664341Y-94224365D01*
X119653652Y-94218802D01*
X119603811Y-94178026D01*
X119522800Y-94104149D01*
X119418967Y-94004892D01*
X119300659Y-93887975D01*
X119201904Y-93790626D01*
X118900780Y-93517546D01*
X118618612Y-93300137D01*
X118352381Y-93136466D01*
X118099068Y-93024598D01*
X117855652Y-92962600D01*
X117643446Y-92929186D01*
X117705909Y-92844700D01*
X117717741Y-92827012D01*
X117763099Y-92731406D01*
X117794643Y-92624248D01*
X117797504Y-92601610D01*
X117802995Y-92513086D01*
X117808063Y-92372975D01*
X117812574Y-92188591D01*
X117816388Y-91967249D01*
X117819368Y-91716265D01*
X117819959Y-91635880D01*
X118949749Y-91635880D01*
X118949767Y-91697151D01*
X118950398Y-91999007D01*
X118951865Y-92279793D01*
X118954078Y-92533580D01*
X118956948Y-92754443D01*
X118960385Y-92936453D01*
X118964301Y-93073684D01*
X118968605Y-93160208D01*
X118973208Y-93190098D01*
X118975074Y-93189724D01*
X119018403Y-93175026D01*
X119109324Y-93141538D01*
X119238610Y-93092740D01*
X119397032Y-93032111D01*
X119575363Y-92963127D01*
X120154058Y-92738158D01*
X120162170Y-91182124D01*
X120162468Y-91121445D01*
X120163405Y-90819448D01*
X120163385Y-90538424D01*
X120162469Y-90284313D01*
X120160716Y-90063056D01*
X120158186Y-89880595D01*
X120154938Y-89742869D01*
X120151033Y-89655821D01*
X120146529Y-89625391D01*
X120144047Y-89625758D01*
X120098846Y-89640333D01*
X120006302Y-89673668D01*
X119875580Y-89722358D01*
X119715846Y-89782996D01*
X119536264Y-89852176D01*
X118949751Y-90079660D01*
X118949749Y-91635880D01*
X117819959Y-91635880D01*
X117821377Y-91442952D01*
X117822277Y-91154625D01*
X117823639Y-89820969D01*
X117737617Y-89766401D01*
X117713370Y-89750674D01*
X117538936Y-89607888D01*
X117422485Y-89446939D01*
X117360905Y-89262037D01*
X117351083Y-89047394D01*
X117357173Y-88953552D01*
X117399805Y-89073094D01*
X117430058Y-89142768D01*
X117512453Y-89244354D01*
X117631377Y-89301622D01*
X117646280Y-89303072D01*
X117723177Y-89291097D01*
X117845551Y-89257903D01*
X118004734Y-89206398D01*
X118192059Y-89139488D01*
X118398858Y-89060084D01*
X118616463Y-88971094D01*
X118736751Y-88920374D01*
X118611650Y-88843812D01*
X118949004Y-88843812D01*
X119160352Y-88764260D01*
X119274886Y-88715056D01*
X119381431Y-88658130D01*
X119451999Y-88607778D01*
X119532298Y-88530847D01*
X119581941Y-88634950D01*
X119583248Y-88637626D01*
X119623813Y-88704409D01*
X119694005Y-88805470D01*
X119784317Y-88927565D01*
X119885239Y-89057448D01*
X119903204Y-89079949D01*
X119996897Y-89195676D01*
X120075133Y-89289668D01*
X120130177Y-89352774D01*
X120154296Y-89375843D01*
X120155868Y-89367048D01*
X120158685Y-89305610D01*
X120161294Y-89190359D01*
X120163645Y-89026999D01*
X120165686Y-88821229D01*
X120167363Y-88578751D01*
X120168626Y-88305266D01*
X120169421Y-88006476D01*
X120169698Y-87688082D01*
X120169698Y-86000321D01*
X119974193Y-86074713D01*
X119966472Y-86077650D01*
X119856932Y-86119303D01*
X119709068Y-86175500D01*
X119541297Y-86239241D01*
X119372038Y-86303528D01*
X118965388Y-86457951D01*
X118957196Y-87650881D01*
X118949004Y-88843812D01*
X118611650Y-88843812D01*
X118280195Y-88640961D01*
X117823639Y-88361549D01*
X117823639Y-87289409D01*
X117823639Y-86217270D01*
X117612494Y-86110273D01*
X117566982Y-86086330D01*
X117356110Y-85947346D01*
X117192153Y-85788376D01*
X117080317Y-85615417D01*
X117025805Y-85434463D01*
X117007252Y-85293700D01*
X117079177Y-85432603D01*
X117123232Y-85504215D01*
X117238947Y-85614519D01*
X117392822Y-85678625D01*
X117589033Y-85698714D01*
X117648411Y-85696055D01*
X117715329Y-85686843D01*
X117795237Y-85668695D01*
X117895648Y-85639221D01*
X118024074Y-85596028D01*
X118188030Y-85536727D01*
X118395027Y-85458925D01*
X118652580Y-85360233D01*
X118856852Y-85280611D01*
X119092768Y-85185910D01*
X119290694Y-85103122D01*
X119445393Y-85034509D01*
X119551626Y-84982337D01*
X119604155Y-84948871D01*
X119679868Y-84874966D01*
X119799007Y-85119803D01*
X119921583Y-85331082D01*
X120133710Y-85594763D01*
X120349272Y-85824885D01*
X120611394Y-85585085D01*
X120674553Y-85527126D01*
X120827280Y-85385979D01*
X120984841Y-85239295D01*
X121121646Y-85110857D01*
X121369777Y-84876428D01*
X121731622Y-85166951D01*
X121878187Y-85286879D01*
X122121421Y-85495505D01*
X122352404Y-85705072D01*
X122561394Y-85906367D01*
X122738644Y-86090177D01*
X122874409Y-86247291D01*
X122953601Y-86348525D01*
X123184333Y-86667348D01*
X123364890Y-86960655D01*
X123497689Y-87233995D01*
X123585150Y-87492919D01*
X123629691Y-87742976D01*
X123633730Y-87989716D01*
X123627636Y-88063583D01*
X123584332Y-88289295D01*
X123503501Y-88474901D01*
X123380999Y-88630911D01*
X123276959Y-88718179D01*
X123093713Y-88811793D01*
X122893992Y-88853592D01*
X122686377Y-88845289D01*
X122479452Y-88788593D01*
X122281798Y-88685218D01*
X122101999Y-88536874D01*
X121948636Y-88345273D01*
X121915403Y-88291401D01*
X121874859Y-88216478D01*
X121859154Y-88173228D01*
X121869752Y-88176220D01*
X121903068Y-88221301D01*
X121951157Y-88300147D01*
X122041171Y-88431364D01*
X122198594Y-88586416D01*
X122380808Y-88700777D01*
X122578131Y-88772400D01*
X122780885Y-88799239D01*
X122979390Y-88779248D01*
X123163965Y-88710380D01*
X123324932Y-88590589D01*
X123370679Y-88540428D01*
X123470930Y-88377915D01*
X123529181Y-88179950D01*
X123548023Y-87938970D01*
X123537841Y-87766399D01*
X123474463Y-87470398D01*
X123352509Y-87166298D01*
X123171325Y-86852861D01*
X122930261Y-86528849D01*
X122628664Y-86193023D01*
X122532219Y-86094380D01*
X122442024Y-86006209D01*
X122376108Y-85950448D01*
X122324131Y-85919786D01*
X122275757Y-85906914D01*
X122220647Y-85904523D01*
X122190216Y-85905597D01*
X122135875Y-85915133D01*
X122078608Y-85940080D01*
X122007557Y-85987085D01*
X121911860Y-86062797D01*
X121780659Y-86173863D01*
X121774024Y-86179572D01*
X121648255Y-86292803D01*
X121534042Y-86404300D01*
X121443726Y-86501501D01*
X121389649Y-86571845D01*
X121311447Y-86701335D01*
X121311447Y-87688082D01*
X121311447Y-88376233D01*
G37*
%TD.AperFunction*%
%TD*%
D11*
%TO.P,H1,1,1*%
%TO.N,GND*%
X127985010Y-51120990D03*
X128644020Y-49530000D03*
X128644020Y-52711980D03*
X130235010Y-48870990D03*
D12*
X130235010Y-51120990D03*
D11*
X130235010Y-53370990D03*
X131826000Y-49530000D03*
X131826000Y-52711980D03*
X132485010Y-51120990D03*
%TD*%
%TO.P,H3,1,1*%
%TO.N,GND*%
X128052000Y-143728000D03*
X128711010Y-142137010D03*
X128711010Y-145318990D03*
X130302000Y-141478000D03*
D12*
X130302000Y-143728000D03*
D11*
X130302000Y-145978000D03*
X131892990Y-142137010D03*
X131892990Y-145318990D03*
X132552000Y-143728000D03*
%TD*%
D13*
%TO.P,J4,1,Pin_1*%
%TO.N,/5V*%
X99171505Y-51054000D03*
D14*
%TO.P,J4,2,Pin_2*%
%TO.N,GND*%
X101711505Y-51054000D03*
%TO.P,J4,3,Pin_3*%
%TO.N,Net-(J4-Pin_3)*%
X104251505Y-51054000D03*
%TO.P,J4,4,Pin_4*%
%TO.N,Net-(J4-Pin_4)*%
X106791505Y-51054000D03*
%TO.P,J4,5,Pin_5*%
%TO.N,Net-(J4-Pin_5)*%
X109331505Y-51054000D03*
%TO.P,J4,6,Pin_6*%
%TO.N,Net-(J4-Pin_6)*%
X111871505Y-51054000D03*
%TD*%
D11*
%TO.P,H4,1,1*%
%TO.N,GND*%
X78455010Y-143830990D03*
X79114020Y-142240000D03*
X79114020Y-145421980D03*
X80705010Y-141580990D03*
D12*
X80705010Y-143830990D03*
D11*
X80705010Y-146080990D03*
X82296000Y-142240000D03*
X82296000Y-145421980D03*
X82955010Y-143830990D03*
%TD*%
%TO.P,H2,1,1*%
%TO.N,GND*%
X78558000Y-51054000D03*
X79217010Y-49463010D03*
X79217010Y-52644990D03*
X80808000Y-48804000D03*
D12*
X80808000Y-51054000D03*
D11*
X80808000Y-53304000D03*
X82398990Y-49463010D03*
X82398990Y-52644990D03*
X83058000Y-51054000D03*
%TD*%
D15*
%TO.P,U2,41,PAD*%
%TO.N,GND*%
X92180000Y-78870000D03*
X93580000Y-78870000D03*
X94980000Y-78870000D03*
X91180000Y-77590000D03*
X92180000Y-77590000D03*
X93580000Y-77590000D03*
X94980000Y-77590000D03*
X95980000Y-77590000D03*
X92180000Y-76310000D03*
X93580000Y-76310000D03*
X94980000Y-76310000D03*
%TD*%
D16*
%TO.P,J6,1,Pin_1*%
%TO.N,GND*%
X89621000Y-143622000D03*
%TO.P,J6,2,Pin_2*%
%TO.N,/5V*%
X92161000Y-143622000D03*
%TO.P,J6,3,Pin_3*%
%TO.N,/Fan/FAN_TACH*%
X94701000Y-143622000D03*
%TO.P,J6,4,Pin_4*%
%TO.N,/Fan/FAN_PWM*%
X97241000Y-143622000D03*
%TD*%
D17*
%TO.P,J3,1,Pin_1*%
%TO.N,GND*%
X87005000Y-50292000D03*
D14*
%TO.P,J3,2,Pin_2*%
%TO.N,/3V3*%
X87405000Y-52832000D03*
%TO.P,J3,3,Pin_3*%
%TO.N,/SCL*%
X87005000Y-55372000D03*
%TO.P,J3,4,Pin_4*%
%TO.N,/SDA*%
X87405000Y-57912000D03*
%TD*%
D18*
%TO.P,FID7,*%
%TO.N,*%
X132260000Y-139060000D03*
%TD*%
D19*
%TO.P,J5,A1,GND*%
%TO.N,GND*%
X84545000Y-86460000D03*
%TO.P,J5,A4,VBUS*%
%TO.N,unconnected-(J5-VBUS-PadA4)*%
X84545000Y-85660000D03*
D20*
%TO.P,J5,A5,CC1*%
%TO.N,unconnected-(J5-CC1-PadA5)*%
X84545000Y-84510000D03*
%TO.P,J5,A6,D+*%
%TO.N,/ESP32/USB_D+*%
X84545000Y-83510000D03*
%TO.P,J5,A7,D-*%
%TO.N,/ESP32/USB_D-*%
X84545000Y-83010000D03*
%TO.P,J5,A8,SBU1*%
%TO.N,unconnected-(J5-SBU1-PadA8)*%
X84545000Y-82010000D03*
D19*
%TO.P,J5,B1,GND*%
%TO.N,GND*%
X84545000Y-80060000D03*
%TO.P,J5,B4,VBUS*%
%TO.N,unconnected-(J5-VBUS-PadB4)*%
X84545000Y-80860000D03*
D20*
%TO.P,J5,B5,CC2*%
%TO.N,unconnected-(J5-CC2-PadB5)*%
X84545000Y-81510000D03*
%TO.P,J5,B6,D+*%
%TO.N,/ESP32/USB_D+*%
X84545000Y-82510000D03*
%TO.P,J5,B7,D-*%
%TO.N,/ESP32/USB_D-*%
X84545000Y-84010000D03*
%TO.P,J5,B8,SBU2*%
%TO.N,unconnected-(J5-SBU2-PadB8)*%
X84545000Y-85010000D03*
D21*
%TO.P,J5,S1,SHIELD*%
%TO.N,GND*%
X79790000Y-87580000D03*
D22*
X83970000Y-87580000D03*
D21*
X79790000Y-78940000D03*
D22*
X83970000Y-78940000D03*
%TD*%
D23*
%TO.P,U4,1,GND*%
%TO.N,GND*%
X125690000Y-81360000D03*
%TO.P,U4,2,3V3*%
%TO.N,/3V3*%
X124420000Y-81360000D03*
%TO.P,U4,3,EN*%
%TO.N,/ESP32/EN*%
X123150000Y-81360000D03*
%TO.P,U4,4,GPIO4/TOUCH4/ADC1_CH3*%
%TO.N,unconnected-(U4-GPIO4{slash}TOUCH4{slash}ADC1_CH3-Pad4)*%
X121880000Y-81360000D03*
%TO.P,U4,5,GPIO5/TOUCH5/ADC1_CH4*%
%TO.N,unconnected-(U4-GPIO5{slash}TOUCH5{slash}ADC1_CH4-Pad5)*%
X120610000Y-81360000D03*
%TO.P,U4,6,GPIO6/TOUCH6/ADC1_CH5*%
%TO.N,unconnected-(U4-GPIO6{slash}TOUCH6{slash}ADC1_CH5-Pad6)*%
X119340000Y-81360000D03*
%TO.P,U4,7,GPIO7/TOUCH7/ADC1_CH6*%
%TO.N,unconnected-(U4-GPIO7{slash}TOUCH7{slash}ADC1_CH6-Pad7)*%
X118070000Y-81360000D03*
%TO.P,U4,8,GPIO15/U0RTS/ADC2_CH4/XTAL_32K_P*%
%TO.N,unconnected-(U4-GPIO15{slash}U0RTS{slash}ADC2_CH4{slash}XTAL_32K_P-Pad8)*%
X116800000Y-81360000D03*
%TO.P,U4,9,GPIO16/U0CTS/ADC2_CH5/XTAL_32K_NH5*%
%TO.N,unconnected-(U4-GPIO16{slash}U0CTS{slash}ADC2_CH5{slash}XTAL_32K_NH5-Pad9)*%
X115530000Y-81360000D03*
%TO.P,U4,10,GPIO17/U1TXD/ADC2_CH6*%
%TO.N,/TX*%
X114260000Y-81360000D03*
%TO.P,U4,11,GPIO18/U1RXD/ADC2_CH7/CLK_OUT3*%
%TO.N,/RX*%
X112990000Y-81360000D03*
%TO.P,U4,12,GPIO8/TOUCH8/ADC1_CH7/SUBSPICS1*%
%TO.N,unconnected-(U4-GPIO8{slash}TOUCH8{slash}ADC1_CH7{slash}SUBSPICS1-Pad12)*%
X111720000Y-81360000D03*
%TO.P,U4,13,GPIO19/U1RTS/ADC2_CH8/CLK_OUT2/USB_D-*%
%TO.N,/ESP32/USB_D-*%
X110450000Y-81360000D03*
%TO.P,U4,14,GPIO20/U1CTS/ADC2_CH9/CLK_OUT1/USB_D+*%
%TO.N,/ESP32/USB_D+*%
X109180000Y-81360000D03*
D24*
%TO.P,U4,15,GPIO3/TOUCH3/ADC1_CH2\u002A*%
%TO.N,/3V3*%
X107930000Y-79595000D03*
%TO.P,U4,16,\u002AGPIO46*%
%TO.N,unconnected-(U4-\u002AGPIO46-Pad16)*%
X107930000Y-78325000D03*
%TO.P,U4,17,GPIO9/TOUCH9/ADC1_CH8/FSPIHD/SUBSPIHD*%
%TO.N,unconnected-(U4-GPIO9{slash}TOUCH9{slash}ADC1_CH8{slash}FSPIHD{slash}SUBSPIHD-Pad17)*%
X107930000Y-77055000D03*
%TO.P,U4,18,GPIO10/TOUCH10/ADC1_CH9/FSPICS0/FSPIIO4/SUBSPICS0*%
%TO.N,unconnected-(U4-GPIO10{slash}TOUCH10{slash}ADC1_CH9{slash}FSPICS0{slash}FSPIIO4{slash}SUBSPICS0-Pad18)*%
X107930000Y-75785000D03*
%TO.P,U4,19,GPIO11/TOUCH11/ADC2_CH0/FSPID/FSPIIO5/SUBSPID*%
%TO.N,/Power/PGOOD*%
X107930000Y-74515000D03*
%TO.P,U4,20,GPIO12/TOUCH12/ADC2_CH1/FSPICLK/FSPIIO6/SUBSPICLK*%
%TO.N,unconnected-(U4-GPIO12{slash}TOUCH12{slash}ADC2_CH1{slash}FSPICLK{slash}FSPIIO6{slash}SUBSPICLK-Pad20)*%
X107930000Y-73245000D03*
%TO.P,U4,21,GPIO13/TOUCH13/ADC2_CH2/FSPIQ/FSPIIO7/SUBSPIQ*%
%TO.N,/Power/PMB_ALRT*%
X107930000Y-71975000D03*
%TO.P,U4,22,GPIO14/TOUCH14/ADC2_CH3/FSPIWP/FSPIDQS/SUBSPIWP*%
%TO.N,unconnected-(U4-GPIO14{slash}TOUCH14{slash}ADC2_CH3{slash}FSPIWP{slash}FSPIDQS{slash}SUBSPIWP-Pad22)*%
X107930000Y-70705000D03*
%TO.P,U4,23,GPIO21*%
%TO.N,unconnected-(U4-GPIO21-Pad23)*%
X107930000Y-69435000D03*
%TO.P,U4,24,GPIO47/SPICLK_P/SUBSPICLK_P_DIFF*%
%TO.N,/SDA*%
X107930000Y-68165000D03*
%TO.P,U4,25,GPIO48/SPICLK_N/SUBSPICLK_N_DIFF*%
%TO.N,/SCL*%
X107930000Y-66895000D03*
%TO.P,U4,26,\u002AGPIO45*%
%TO.N,unconnected-(U4-\u002AGPIO45-Pad26)*%
X107930000Y-65625000D03*
D23*
%TO.P,U4,27,GPIO0/BOOT\u002A*%
%TO.N,/ESP32/IO0*%
X109180000Y-63860000D03*
%TO.P,U4,28,SPIIO6/GPIO35/FSPID/SUBSPID*%
%TO.N,unconnected-(U4-SPIIO6{slash}GPIO35{slash}FSPID{slash}SUBSPID-Pad28)*%
X110450000Y-63860000D03*
%TO.P,U4,29,SPIIO7/GPIO36/FSPICLK/SUBSPICLK*%
%TO.N,unconnected-(U4-SPIIO7{slash}GPIO36{slash}FSPICLK{slash}SUBSPICLK-Pad29)*%
X111720000Y-63860000D03*
%TO.P,U4,30,SPIDQS/GPIO37/FSPIQ/SUBSPIQ*%
%TO.N,unconnected-(U4-SPIDQS{slash}GPIO37{slash}FSPIQ{slash}SUBSPIQ-Pad30)*%
X112990000Y-63860000D03*
%TO.P,U4,31,GPIO38/FSPIWP/SUBSPIWP*%
%TO.N,unconnected-(U4-GPIO38{slash}FSPIWP{slash}SUBSPIWP-Pad31)*%
X114260000Y-63860000D03*
%TO.P,U4,32,MTCK/GPIO39/CLK_OUT3/SUBSPICS1*%
%TO.N,Net-(J4-Pin_3)*%
X115530000Y-63860000D03*
%TO.P,U4,33,MTDO/GPIO40/CLK_OUT2*%
%TO.N,Net-(J4-Pin_4)*%
X116800000Y-63860000D03*
%TO.P,U4,34,MTDI/GPIO41/CLK_OUT1*%
%TO.N,Net-(J4-Pin_5)*%
X118070000Y-63860000D03*
%TO.P,U4,35,MTMS/GPIO42*%
%TO.N,Net-(J4-Pin_6)*%
X119340000Y-63860000D03*
%TO.P,U4,36,U0RXD/GPIO44/CLK_OUT2*%
%TO.N,/ESP32/P_RX*%
X120610000Y-63860000D03*
%TO.P,U4,37,U0TXD/GPIO43/CLK_OUT1*%
%TO.N,/ESP32/P_TX*%
X121880000Y-63860000D03*
%TO.P,U4,38,GPIO2/TOUCH2/ADC1_CH1*%
%TO.N,/VDD*%
X123150000Y-63860000D03*
%TO.P,U4,39,GPIO1/TOUCH1/ADC1_CH0*%
%TO.N,/RST*%
X124420000Y-63860000D03*
%TO.P,U4,40,GND*%
%TO.N,GND*%
X125690000Y-63860000D03*
D25*
%TO.P,U4,41,GND*%
X116570000Y-75510000D03*
X117970000Y-75510000D03*
X119370000Y-75510000D03*
X116570000Y-74110000D03*
X117970000Y-74110000D03*
X119370000Y-74110000D03*
X116570000Y-72710000D03*
X117970000Y-72710000D03*
X119370000Y-72710000D03*
%TD*%
D26*
%TO.P,J2,1,Pin_1*%
%TO.N,/ESP32/EN*%
X129400000Y-58365000D03*
%TO.P,J2,2,Pin_2*%
%TO.N,/3V3*%
X129400000Y-57095000D03*
%TO.P,J2,3,Pin_3*%
%TO.N,/ESP32/P_TX*%
X128130000Y-58365000D03*
%TO.P,J2,4,Pin_4*%
%TO.N,GND*%
X128130000Y-57095000D03*
%TO.P,J2,5,Pin_5*%
%TO.N,/ESP32/P_RX*%
X126860000Y-58365000D03*
%TO.P,J2,6,Pin_6*%
%TO.N,/ESP32/IO0*%
X126860000Y-57095000D03*
%TD*%
D27*
%TO.P,U8,1,VDD3_0*%
%TO.N,/BM1370/VDD1_0*%
X109526562Y-113032000D03*
%TO.P,U8,2,VDD2_0*%
%TO.N,/BM1370/VDD2_0*%
X109526562Y-113534000D03*
%TO.P,U8,3,VDD1_0*%
%TO.N,/BM1370/VDD3_0*%
X109526562Y-114036000D03*
%TO.P,U8,4,VSS*%
%TO.N,GND*%
X109526562Y-114538000D03*
%TO.P,U8,5,NRSTI*%
%TO.N,/BM1370/RST_N*%
X109526562Y-115040000D03*
%TO.P,U8,6,CI*%
%TO.N,/BM1370/CI*%
X109526562Y-115542000D03*
%TO.P,U8,7,RO*%
%TO.N,/BM1370/RO*%
X109526562Y-116044000D03*
%TO.P,U8,8,CLKI*%
%TO.N,/BM1370/CLKI*%
X109526562Y-116546000D03*
%TO.P,U8,9,BI*%
%TO.N,/BM1370/BI*%
X109526562Y-117048000D03*
%TO.P,U8,10,ROSC_SEL*%
%TO.N,Net-(U8-ROSC_SEL)*%
X109526562Y-117550000D03*
%TO.P,U8,11,LITE_PAD*%
%TO.N,Net-(U8-LITE_PAD)*%
X109526562Y-118052000D03*
%TO.P,U8,12,INV_CLKO*%
%TO.N,Net-(U8-INV_CLKO)*%
X109526562Y-118554000D03*
%TO.P,U8,13,PLL_VSS*%
%TO.N,GND*%
X109526562Y-119056000D03*
%TO.P,U8,14,VDDIO_08_0*%
%TO.N,/BM1370/0V8*%
X109526562Y-119558000D03*
%TO.P,U8,15,VDDIO_12_0*%
%TO.N,/BM1370/1V2*%
X109526562Y-120060000D03*
%TO.P,U8,16,VDDIO_12_1*%
%TO.N,Net-(U8-VDDIO_12_1)*%
X101694562Y-120060000D03*
%TO.P,U8,17,VDDIO_08_1*%
%TO.N,Net-(U8-VDDIO_08_1)*%
X101694562Y-119558000D03*
%TO.P,U8,18,VSS*%
%TO.N,GND*%
X101694562Y-119056000D03*
%TO.P,U8,19,PIN_MODE*%
%TO.N,/BM1370/PIN_MODE*%
X101694562Y-118554000D03*
%TO.P,U8,20,TEMP_P*%
%TO.N,/Fan/TEMP_P*%
X101694562Y-118052000D03*
%TO.P,U8,21,TEMP_N*%
%TO.N,/Fan/TEMP_N*%
X101694562Y-117550000D03*
%TO.P,U8,22,BO*%
%TO.N,/BM1370/BO*%
X101694562Y-117048000D03*
%TO.P,U8,23,CLKO*%
%TO.N,/BM1370/CLKO*%
X101694562Y-116546000D03*
%TO.P,U8,24,RI*%
%TO.N,/BM1370/RI*%
X101694562Y-116044000D03*
%TO.P,U8,25,CO*%
%TO.N,/BM1370/CO*%
X101694562Y-115542000D03*
%TO.P,U8,26,NRSTO*%
%TO.N,/BM1370/NRSTO*%
X101694562Y-115040000D03*
%TO.P,U8,27,VSS*%
%TO.N,GND*%
X101694562Y-114538000D03*
%TO.P,U8,28,VDD1_1*%
%TO.N,/BM1370/VDD3_1*%
X101694562Y-114036000D03*
%TO.P,U8,29,VDD2_1*%
%TO.N,/BM1370/VDD2_1*%
X101694562Y-113534000D03*
%TO.P,U8,30,VDD3_1*%
%TO.N,/BM1370/VDD1_1*%
X101694562Y-113032000D03*
D28*
%TO.P,U8,31,VDD*%
%TO.N,/VDD*%
X105610562Y-113676000D03*
D29*
%TO.P,U8,32,VSS*%
%TO.N,GND*%
X105610562Y-117786000D03*
%TD*%
D18*
%TO.P,FID8,*%
%TO.N,*%
X78850000Y-139070000D03*
%TD*%
D30*
%TO.P,J1,1*%
%TO.N,/5V*%
X82330000Y-72120000D03*
X88530000Y-72120000D03*
%TO.P,J1,2*%
%TO.N,GND*%
X82330000Y-61120000D03*
%TO.P,J1,3*%
X88530000Y-61120000D03*
%TD*%
D31*
%TO.P,SW1,1*%
%TO.N,GND*%
X132246000Y-104448000D03*
%TO.P,SW1,2*%
%TO.N,/ESP32/EN*%
X128136000Y-104448000D03*
%TD*%
D18*
%TO.P,FID5,*%
%TO.N,*%
X125270000Y-50310000D03*
%TD*%
D31*
%TO.P,SW2,1*%
%TO.N,GND*%
X132142000Y-113155000D03*
%TO.P,SW2,2*%
%TO.N,/ESP32/IO0*%
X128032000Y-113155000D03*
%TD*%
D18*
%TO.P,FID6,*%
%TO.N,*%
X78750000Y-55900000D03*
%TD*%
D32*
%TO.P,J7,1,Pin_1*%
%TO.N,GND*%
X102000000Y-141675000D03*
%TO.P,J7,2,Pin_2*%
%TO.N,/5V*%
X103000000Y-141675000D03*
%TO.P,J7,3,Pin_3*%
%TO.N,/Fan/FAN_TACH*%
X104000000Y-141675000D03*
%TO.P,J7,4,Pin_4*%
%TO.N,/Fan/FAN_PWM*%
X105000000Y-141675000D03*
D33*
%TO.P,J7,MP,MountPin*%
%TO.N,unconnected-(J7-MountPin-PadMP)*%
X100700000Y-144200000D03*
X106300000Y-144200000D03*
%TD*%
D34*
%TO.N,GND*%
X105610000Y-116830000D03*
X112180000Y-119260000D03*
X113580000Y-132650000D03*
X98050000Y-114260000D03*
X104490000Y-118700000D03*
X100050000Y-61700000D03*
X112180000Y-120800000D03*
X101350000Y-62800000D03*
X106740000Y-119930000D03*
X97450000Y-60200000D03*
X111900000Y-87400000D03*
X106740000Y-118720000D03*
X104640000Y-130470000D03*
X105540000Y-132550000D03*
X100050000Y-65750000D03*
D35*
X116540000Y-70920000D03*
D34*
X125600000Y-65940000D03*
X116770000Y-124080000D03*
X106740000Y-117780000D03*
D36*
X95080000Y-91220000D03*
D34*
X104490000Y-117760000D03*
X105630000Y-118700000D03*
X115260000Y-109040000D03*
X123750000Y-117530000D03*
X111900000Y-89050000D03*
X101400000Y-60700000D03*
X100050000Y-63800000D03*
X100100000Y-60700000D03*
X106740000Y-116860000D03*
X98450000Y-78230000D03*
X96070000Y-137650000D03*
X116050000Y-128010000D03*
X104490000Y-119910000D03*
X119270000Y-54220000D03*
X128130000Y-56090000D03*
X112980000Y-114270000D03*
D35*
X80680000Y-61050000D03*
X104600000Y-143100000D03*
D34*
X99550000Y-67970000D03*
X101350000Y-63800000D03*
X91790000Y-89910000D03*
X112000000Y-86150000D03*
X117090000Y-100360000D03*
X121580000Y-112400000D03*
X101350000Y-61700000D03*
X111860000Y-83000000D03*
X111850000Y-85100000D03*
X98750000Y-61100000D03*
X122640000Y-102460000D03*
X96070000Y-141200000D03*
X113180000Y-130220000D03*
D35*
X117910000Y-70950000D03*
D34*
X119280000Y-102930000D03*
X99370000Y-119240000D03*
X111900000Y-90200000D03*
X97450000Y-61100000D03*
X123710000Y-120230000D03*
X111900000Y-91400000D03*
X100050000Y-64750000D03*
X96600000Y-108920000D03*
X104490000Y-115746000D03*
X100490000Y-76620000D03*
X100050000Y-62800000D03*
X98460000Y-76630000D03*
X99490000Y-70390000D03*
X98440000Y-121490000D03*
X92680000Y-133370000D03*
X128690000Y-107620000D03*
X112512000Y-61250000D03*
X104490000Y-116840000D03*
X104560000Y-76600000D03*
D35*
X119454234Y-70914234D03*
X128020000Y-84450000D03*
D34*
X101350000Y-64750000D03*
X106740000Y-115766000D03*
X116990000Y-98200000D03*
X98750000Y-60200000D03*
X102570000Y-76600000D03*
X101350000Y-65750000D03*
X132297000Y-108743000D03*
X117550000Y-103000000D03*
X98460000Y-74920000D03*
%TO.N,/VDD*%
X102500000Y-101300000D03*
X103750000Y-100100000D03*
D36*
X120850000Y-69510000D03*
D34*
X105000000Y-99000000D03*
X106250000Y-99000000D03*
X102500000Y-97900000D03*
X107500000Y-101300000D03*
X84500000Y-76160000D03*
X107500000Y-97900000D03*
X108750000Y-97880000D03*
X102500000Y-99000000D03*
X106250000Y-100100000D03*
X103750000Y-99000000D03*
X108750000Y-101280000D03*
X107500000Y-99000000D03*
X108750000Y-102380000D03*
X103750000Y-101300000D03*
X103750000Y-97900000D03*
X102500000Y-100100000D03*
X106250000Y-97900000D03*
D36*
X99780000Y-81020000D03*
D34*
X107500000Y-100100000D03*
X106250000Y-101300000D03*
X108750000Y-98980000D03*
X105000000Y-97900000D03*
X105000000Y-101300000D03*
X108750000Y-100080000D03*
X102500000Y-102400000D03*
X107500000Y-102400000D03*
X103750000Y-102400000D03*
X105000000Y-100100000D03*
D36*
%TO.N,/ESP32/EN*%
X122101300Y-70905000D03*
X127228000Y-104448000D03*
D34*
%TO.N,/5V*%
X93620000Y-68280000D03*
X92350000Y-66250000D03*
X93600000Y-69250000D03*
X93600000Y-71200000D03*
X92350000Y-68300000D03*
D37*
X109280000Y-61185155D03*
D34*
X108290000Y-131179000D03*
X93600000Y-67250000D03*
X92350000Y-70250000D03*
X99710000Y-131420000D03*
D35*
X80680000Y-70950000D03*
D34*
X93620000Y-70230000D03*
X92330000Y-71220000D03*
X92330000Y-69270000D03*
X98770000Y-138720000D03*
X93620000Y-66230000D03*
X92330000Y-67270000D03*
D36*
X104700000Y-139400000D03*
D34*
%TO.N,/3V3*%
X129830000Y-56090000D03*
D35*
X126000000Y-84500000D03*
D34*
X123394000Y-86260000D03*
X112160000Y-74520000D03*
X95550000Y-135970000D03*
D37*
X111440000Y-55180000D03*
D34*
X122930000Y-99700000D03*
X118711400Y-59800000D03*
X127250000Y-107630000D03*
D35*
X115370000Y-61560000D03*
D34*
X95560000Y-126330000D03*
D36*
%TO.N,/TX*%
X116380000Y-79250000D03*
%TO.N,/RX*%
X115580000Y-78420000D03*
%TO.N,/RST*%
X121476817Y-70170000D03*
%TO.N,/SCL*%
X94317599Y-134229617D03*
X88970000Y-81220000D03*
%TO.N,/Fan/FAN_PWM*%
X90900000Y-132800000D03*
%TO.N,Net-(U2-BP1V5)*%
X91690000Y-82980000D03*
X83660000Y-76570000D03*
%TO.N,/ESP32/P_TX*%
X123105000Y-61285000D03*
%TO.N,/ESP32/P_RX*%
X123040000Y-59730000D03*
%TO.N,/ESP32/IO0*%
X121244400Y-66945600D03*
X124830000Y-55100000D03*
X126520000Y-102640000D03*
%TO.N,Net-(U2-VDD5)*%
X92570000Y-74110000D03*
X102820000Y-73740000D03*
%TO.N,/Power/PGOOD*%
X89020000Y-82280000D03*
X109410000Y-74490000D03*
%TO.N,/SDA*%
X82130000Y-73910000D03*
X94340000Y-133580000D03*
X88990000Y-80510000D03*
X82390000Y-75900000D03*
D34*
%TO.N,Net-(U8-VDDIO_12_1)*%
X100770000Y-123700000D03*
%TO.N,Net-(U8-VDDIO_08_1)*%
X99180000Y-123710000D03*
D36*
%TO.N,Net-(U8-ROSC_SEL)*%
X119430000Y-116250000D03*
%TO.N,Net-(U8-LITE_PAD)*%
X119420000Y-118020000D03*
%TO.N,Net-(U8-INV_CLKO)*%
X124540000Y-121820000D03*
%TO.N,/Fan/TEMP_N*%
X92180000Y-119960000D03*
%TO.N,/Fan/TEMP_P*%
X92940000Y-119930000D03*
%TO.N,/Power/AGND*%
X89340000Y-73770000D03*
X89170000Y-77830000D03*
X90680000Y-72940000D03*
X89340000Y-74960000D03*
%TO.N,/Power/PMB_ALRT*%
X93330000Y-81550000D03*
D34*
%TO.N,/BM1370/VDD3_0*%
X113470000Y-111290000D03*
%TO.N,/BM1370/1V2*%
X110950000Y-124990000D03*
X124600000Y-101830000D03*
X117120000Y-101750000D03*
%TO.N,/BM1370/0V8*%
X110970000Y-123700000D03*
%TO.N,/BM1370/VDD2_0*%
X112390000Y-109350000D03*
%TO.N,/BM1370/VDD1_0*%
X111030000Y-107870000D03*
%TO.N,/BM1370/VDD1_1*%
X100553800Y-107457400D03*
%TO.N,/BM1370/VDD2_1*%
X99360000Y-109210000D03*
%TO.N,/BM1370/VDD3_1*%
X98140000Y-111060000D03*
D36*
%TO.N,/BM1370/BI*%
X119420000Y-114790000D03*
%TO.N,/BM1370/RST_N*%
X113800000Y-98950000D03*
%TO.N,/BM1370/CI*%
X113770000Y-99770000D03*
%TO.N,/BM1370/RO*%
X113830000Y-100500000D03*
X118320000Y-108370000D03*
%TO.N,/BM1370/CLKI*%
X118740000Y-113660000D03*
%TO.N,/BM1370/NRSTO*%
X92480000Y-112210000D03*
%TO.N,/BM1370/CO*%
X92480000Y-113611428D03*
%TO.N,/BM1370/RI*%
X92480000Y-115012856D03*
%TO.N,/BM1370/CLKO*%
X92480000Y-116414284D03*
%TO.N,/BM1370/BO*%
X92480000Y-117815712D03*
%TO.N,/BM1370/PIN_MODE*%
X91400000Y-120430000D03*
%TO.N,/Fan/FAN_TACH*%
X93570000Y-136700000D03*
%TD*%
D38*
%TO.N,GND*%
X102930816Y-143100000D02*
X102000000Y-142169184D01*
D39*
X112712000Y-114538000D02*
X109526562Y-114538000D01*
X132345000Y-104448000D02*
X132345000Y-108695000D01*
X100051000Y-114541000D02*
X100054000Y-114538000D01*
D38*
X125690000Y-82480000D02*
X125690000Y-81360000D01*
D39*
X132241000Y-108799000D02*
X132297000Y-108743000D01*
X125600000Y-65940000D02*
X125600000Y-63950000D01*
D40*
X80680000Y-61050000D02*
X80750000Y-61120000D01*
D39*
X112980000Y-114270000D02*
X112712000Y-114538000D01*
X117910000Y-70950000D02*
X117970000Y-71010000D01*
X132345000Y-108695000D02*
X132297000Y-108743000D01*
D38*
X104600000Y-143100000D02*
X102930816Y-143100000D01*
D39*
X99370000Y-119240000D02*
X99554000Y-119056000D01*
D38*
X128020000Y-84450000D02*
X127660000Y-84450000D01*
X128130000Y-56090000D02*
X128130000Y-57095000D01*
D39*
X100054000Y-114538000D02*
X101694562Y-114538000D01*
D38*
X127660000Y-84450000D02*
X125690000Y-82480000D01*
D39*
X112180000Y-119260000D02*
X111976000Y-119056000D01*
D40*
X80750000Y-61120000D02*
X82330000Y-61120000D01*
D38*
X84545000Y-79515000D02*
X83970000Y-78940000D01*
X84545000Y-80060000D02*
X84545000Y-79515000D01*
D39*
X98331000Y-114541000D02*
X100051000Y-114541000D01*
X125600000Y-63950000D02*
X125690000Y-63860000D01*
X132241000Y-113155000D02*
X132241000Y-108799000D01*
X111976000Y-119056000D02*
X108526562Y-119056000D01*
D38*
X84545000Y-86460000D02*
X84545000Y-87005000D01*
D39*
X98050000Y-114260000D02*
X98331000Y-114541000D01*
D38*
X102000000Y-142169184D02*
X102000000Y-141675000D01*
D39*
X119454234Y-70914234D02*
X119370000Y-70998468D01*
X99554000Y-119056000D02*
X102683562Y-119056000D01*
D38*
X84545000Y-87005000D02*
X83970000Y-87580000D01*
D41*
%TO.N,/VDD*%
X92270000Y-81770000D02*
X93040000Y-81000000D01*
D39*
X120870000Y-69510000D02*
X123150000Y-67230000D01*
X102690562Y-114040000D02*
X102694562Y-114036000D01*
D41*
X99760000Y-81000000D02*
X99780000Y-81020000D01*
X87900000Y-80960000D02*
X88710000Y-81770000D01*
D39*
X123150000Y-67230000D02*
X123150000Y-63860000D01*
D41*
X84750000Y-76160000D02*
X87900000Y-79310000D01*
D39*
X120850000Y-69510000D02*
X120870000Y-69510000D01*
D41*
X84500000Y-76160000D02*
X84750000Y-76160000D01*
X87900000Y-79310000D02*
X87900000Y-80960000D01*
X88710000Y-81770000D02*
X92270000Y-81770000D01*
X93040000Y-81000000D02*
X99760000Y-81000000D01*
D39*
%TO.N,/ESP32/EN*%
X127675000Y-61485000D02*
X129400000Y-59760000D01*
X122101300Y-70898700D02*
X126540000Y-66460000D01*
X123160000Y-71963700D02*
X122101300Y-70905000D01*
X127228000Y-104448000D02*
X128027000Y-104448000D01*
X126540000Y-66460000D02*
X126540000Y-62620000D01*
X129400000Y-59760000D02*
X129400000Y-58365000D01*
X126540000Y-62620000D02*
X127675000Y-61485000D01*
X122101300Y-70905000D02*
X122101300Y-70898700D01*
X123160000Y-81133600D02*
X123160000Y-71963700D01*
D38*
%TO.N,/5V*%
X103000000Y-141675000D02*
X103000000Y-141100000D01*
X103000000Y-141100000D02*
X104700000Y-139400000D01*
D40*
X81160000Y-70950000D02*
X82330000Y-72120000D01*
X80680000Y-70950000D02*
X81160000Y-70950000D01*
D38*
%TO.N,/3V3*%
X129830000Y-56090000D02*
X129400000Y-56520000D01*
X129400000Y-56520000D02*
X129400000Y-57095000D01*
X124420000Y-82860000D02*
X124420000Y-81360000D01*
D39*
X107930000Y-79595000D02*
X110115000Y-79595000D01*
X112160000Y-77550000D02*
X112160000Y-74520000D01*
D38*
X126000000Y-84500000D02*
X126000000Y-84440000D01*
X126000000Y-84440000D02*
X124420000Y-82860000D01*
D39*
X110115000Y-79595000D02*
X112160000Y-77550000D01*
%TO.N,/TX*%
X116380000Y-79250000D02*
X114840000Y-79250000D01*
X114260000Y-79830000D02*
X114260000Y-81360000D01*
X114840000Y-79250000D02*
X114260000Y-79830000D01*
%TO.N,/RX*%
X114280000Y-78420000D02*
X112990000Y-79710000D01*
X112990000Y-79710000D02*
X112990000Y-81360000D01*
X115580000Y-78420000D02*
X114280000Y-78420000D01*
%TO.N,/RST*%
X121476817Y-70170000D02*
X124420000Y-67226817D01*
X124420000Y-67226817D02*
X124420000Y-63860000D01*
D41*
%TO.N,/SCL*%
X81430000Y-74660000D02*
X79560000Y-72790000D01*
X79560000Y-72790000D02*
X79560000Y-58130000D01*
X79560000Y-58130000D02*
X82318000Y-55372000D01*
D39*
X106885000Y-66895000D02*
X106610000Y-66620000D01*
D41*
X88970000Y-81220000D02*
X88360000Y-80610000D01*
X88360000Y-80610000D02*
X88360000Y-78750000D01*
X88360000Y-78750000D02*
X84270000Y-74660000D01*
X94027216Y-134520000D02*
X90490000Y-134520000D01*
X82318000Y-55372000D02*
X87005000Y-55372000D01*
D39*
X107930000Y-66895000D02*
X106885000Y-66895000D01*
D41*
X94317599Y-134229617D02*
X94027216Y-134520000D01*
X81890000Y-125920000D02*
X81890000Y-74660000D01*
D39*
X106610000Y-66620000D02*
X106610000Y-59449183D01*
D41*
X81890000Y-74660000D02*
X81430000Y-74660000D01*
X84270000Y-74660000D02*
X81890000Y-74660000D01*
X90490000Y-134520000D02*
X81890000Y-125920000D01*
D39*
X106610000Y-59449183D02*
X102532817Y-55372000D01*
X102532817Y-55372000D02*
X87355000Y-55372000D01*
D41*
%TO.N,/Fan/FAN_PWM*%
X105501600Y-138975074D02*
X99226526Y-132700000D01*
X99226526Y-132700000D02*
X91000000Y-132700000D01*
X105000000Y-141675000D02*
X105501600Y-141173400D01*
X91000000Y-132700000D02*
X90900000Y-132800000D01*
X105501600Y-141173400D02*
X105501600Y-138975074D01*
%TO.N,/ESP32/USB_D+*%
X85320000Y-82510000D02*
X85450000Y-82640000D01*
X103530000Y-83510000D02*
X104080000Y-82960000D01*
X84545000Y-82510000D02*
X85320000Y-82510000D01*
X104080000Y-82960000D02*
X109271632Y-82960000D01*
X84545000Y-83510000D02*
X85450000Y-83510000D01*
X109530000Y-82701632D02*
X109530000Y-81710000D01*
X109271632Y-82960000D02*
X109530000Y-82701632D01*
X109530000Y-81710000D02*
X109180000Y-81360000D01*
X85450000Y-83510000D02*
X103530000Y-83510000D01*
X85450000Y-82640000D02*
X85450000Y-83510000D01*
%TO.N,/ESP32/USB_D-*%
X110100000Y-82630000D02*
X110100000Y-81710000D01*
X84545000Y-84010000D02*
X85690000Y-84010000D01*
X110100000Y-81710000D02*
X110450000Y-81360000D01*
X83770000Y-83010000D02*
X83690000Y-83090000D01*
X104240000Y-83320000D02*
X109410000Y-83320000D01*
X83810000Y-84010000D02*
X84545000Y-84010000D01*
X83690000Y-83090000D02*
X83690000Y-83890000D01*
X83690000Y-83890000D02*
X83810000Y-84010000D01*
X84545000Y-83010000D02*
X83770000Y-83010000D01*
X85690000Y-84010000D02*
X85837600Y-83862400D01*
X103697600Y-83862400D02*
X104240000Y-83320000D01*
X85837600Y-83862400D02*
X103697600Y-83862400D01*
X109410000Y-83320000D02*
X110100000Y-82630000D01*
%TO.N,Net-(U2-BP1V5)*%
X83990000Y-76900000D02*
X83660000Y-76570000D01*
X88880000Y-82980000D02*
X87420000Y-81520000D01*
X91690000Y-82980000D02*
X88880000Y-82980000D01*
X87420000Y-79290000D02*
X85030000Y-76900000D01*
X87420000Y-81520000D02*
X87420000Y-79290000D01*
X85030000Y-76900000D02*
X83990000Y-76900000D01*
D39*
%TO.N,/ESP32/P_TX*%
X121880000Y-62510000D02*
X121880000Y-63860000D01*
X126005000Y-61285000D02*
X128230000Y-59060000D01*
X128230000Y-59060000D02*
X128230000Y-58355000D01*
X123105000Y-61285000D02*
X121880000Y-62510000D01*
X123105000Y-61285000D02*
X126005000Y-61285000D01*
%TO.N,/ESP32/P_RX*%
X123040000Y-59730000D02*
X120610000Y-62160000D01*
X123040000Y-59730000D02*
X125050000Y-57720000D01*
X126325000Y-57720000D02*
X126960000Y-58355000D01*
X125050000Y-57720000D02*
X126325000Y-57720000D01*
X120610000Y-62160000D02*
X120610000Y-63860000D01*
%TO.N,/ESP32/IO0*%
X126830000Y-56955000D02*
X126960000Y-57085000D01*
D41*
X109180000Y-63860000D02*
X109180000Y-65190000D01*
D39*
X125830000Y-111062000D02*
X127923000Y-113155000D01*
X126520000Y-102640000D02*
X125830000Y-103330000D01*
D41*
X109180000Y-65190000D02*
X110935600Y-66945600D01*
D39*
X126310000Y-55100000D02*
X126830000Y-55620000D01*
X124830000Y-55100000D02*
X126310000Y-55100000D01*
D41*
X110935600Y-66945600D02*
X121244400Y-66945600D01*
D39*
X126830000Y-55620000D02*
X126830000Y-56955000D01*
X125830000Y-103330000D02*
X125830000Y-111062000D01*
D41*
%TO.N,Net-(U2-VDD5)*%
X92630000Y-74170000D02*
X92570000Y-74110000D01*
X102390000Y-74170000D02*
X92630000Y-74170000D01*
X102820000Y-73740000D02*
X102390000Y-74170000D01*
%TO.N,/Power/PGOOD*%
X106610000Y-80190000D02*
X106610000Y-74840000D01*
X106610000Y-74840000D02*
X106935000Y-74515000D01*
X93720000Y-81950000D02*
X104850000Y-81950000D01*
X93390000Y-82280000D02*
X93720000Y-81950000D01*
X106935000Y-74515000D02*
X107930000Y-74515000D01*
X89020000Y-82280000D02*
X93390000Y-82280000D01*
X109385000Y-74515000D02*
X109410000Y-74490000D01*
X104850000Y-81950000D02*
X106610000Y-80190000D01*
X107930000Y-74515000D02*
X109385000Y-74515000D01*
%TO.N,/SDA*%
X90650000Y-134200000D02*
X82230000Y-125780000D01*
D39*
X107180000Y-68165000D02*
X107930000Y-68165000D01*
D41*
X93280000Y-134200000D02*
X90650000Y-134200000D01*
X82130000Y-73910000D02*
X82130000Y-74280000D01*
X88990000Y-80510000D02*
X88670000Y-80190000D01*
X82230000Y-125780000D02*
X82230000Y-76060000D01*
X93900000Y-133580000D02*
X93280000Y-134200000D01*
X88670000Y-80190000D02*
X88670000Y-78633474D01*
X82230000Y-76060000D02*
X82390000Y-75900000D01*
X81540000Y-74320000D02*
X79861600Y-72641600D01*
D39*
X106150000Y-67135000D02*
X107180000Y-68165000D01*
D41*
X81298000Y-57912000D02*
X87405000Y-57912000D01*
X82130000Y-74280000D02*
X82090000Y-74320000D01*
X94340000Y-133580000D02*
X93900000Y-133580000D01*
D39*
X87087000Y-57880000D02*
X104300000Y-57880000D01*
X87055000Y-57912000D02*
X87087000Y-57880000D01*
D41*
X82090000Y-74320000D02*
X81540000Y-74320000D01*
X88670000Y-78633474D02*
X84356526Y-74320000D01*
D39*
X104300000Y-57880000D02*
X106150000Y-59730000D01*
D41*
X79861600Y-72641600D02*
X79861600Y-59348400D01*
X82491600Y-75900000D02*
X82390000Y-75900000D01*
X84356526Y-74320000D02*
X82090000Y-74320000D01*
X79861600Y-59348400D02*
X81298000Y-57912000D01*
D39*
X106150000Y-59730000D02*
X106150000Y-67135000D01*
%TO.N,Net-(U8-VDDIO_12_1)*%
X100760000Y-123690000D02*
X100760000Y-120410000D01*
X100760000Y-120410000D02*
X101110000Y-120060000D01*
X100770000Y-123700000D02*
X100760000Y-123690000D01*
X101110000Y-120060000D02*
X101694562Y-120060000D01*
%TO.N,Net-(U8-VDDIO_08_1)*%
X99180000Y-123710000D02*
X99180000Y-120670000D01*
X100292000Y-119558000D02*
X101697438Y-119558000D01*
X99180000Y-120670000D02*
X100292000Y-119558000D01*
%TO.N,Net-(J4-Pin_3)*%
X115530000Y-63020000D02*
X116380000Y-62170000D01*
X112780000Y-54210000D02*
X107407505Y-54210000D01*
X115530000Y-63860000D02*
X115530000Y-63020000D01*
X107407505Y-54210000D02*
X104251505Y-51054000D01*
X116380000Y-62170000D02*
X116380000Y-57810000D01*
X116380000Y-57810000D02*
X112780000Y-54210000D01*
%TO.N,Net-(J4-Pin_6)*%
X119340000Y-63860000D02*
X119340000Y-55550000D01*
X119340000Y-55550000D02*
X114844000Y-51054000D01*
X114844000Y-51054000D02*
X111871505Y-51054000D01*
%TO.N,Net-(J4-Pin_5)*%
X110777505Y-52500000D02*
X109331505Y-51054000D01*
X118070000Y-63860000D02*
X118070000Y-56010000D01*
X114560000Y-52500000D02*
X110777505Y-52500000D01*
X118070000Y-56010000D02*
X114560000Y-52500000D01*
%TO.N,Net-(J4-Pin_4)*%
X113650000Y-53350000D02*
X109087505Y-53350000D01*
X116800000Y-63860000D02*
X116800000Y-62820000D01*
X117220000Y-56920000D02*
X113650000Y-53350000D01*
X116800000Y-62820000D02*
X117220000Y-62400000D01*
X109087505Y-53350000D02*
X106791505Y-51054000D01*
X117220000Y-62400000D02*
X117220000Y-56920000D01*
%TO.N,Net-(U8-ROSC_SEL)*%
X116820000Y-117550000D02*
X109526562Y-117550000D01*
X118120000Y-116250000D02*
X116820000Y-117550000D01*
X119430000Y-116250000D02*
X118120000Y-116250000D01*
%TO.N,Net-(U8-LITE_PAD)*%
X118772000Y-118052000D02*
X109526562Y-118052000D01*
X118804000Y-118020000D02*
X118772000Y-118052000D01*
X119420000Y-118020000D02*
X118804000Y-118020000D01*
%TO.N,Net-(U8-INV_CLKO)*%
X116834000Y-118554000D02*
X109526562Y-118554000D01*
X124540000Y-121820000D02*
X124250000Y-121530000D01*
X124250000Y-121530000D02*
X119810000Y-121530000D01*
X119810000Y-121530000D02*
X116834000Y-118554000D01*
%TO.N,/Fan/TEMP_N*%
X92180000Y-119960000D02*
X92180000Y-119640000D01*
X94280000Y-117550000D02*
X101694562Y-117550000D01*
X94275000Y-117545000D02*
X94280000Y-117550000D01*
X92180000Y-119640000D02*
X94275000Y-117545000D01*
%TO.N,/Fan/TEMP_P*%
X92940000Y-119930000D02*
X94825000Y-118045000D01*
X94825000Y-118045000D02*
X94832000Y-118052000D01*
X94832000Y-118052000D02*
X101694562Y-118052000D01*
D41*
%TO.N,/Power/AGND*%
X89340000Y-74960000D02*
X89340000Y-77660000D01*
X89850000Y-73770000D02*
X90680000Y-72940000D01*
X89340000Y-73770000D02*
X89850000Y-73770000D01*
X89340000Y-77660000D02*
X89170000Y-77830000D01*
X89340000Y-73770000D02*
X89340000Y-74960000D01*
%TO.N,/Power/PMB_ALRT*%
X106665000Y-71975000D02*
X107930000Y-71975000D01*
X106230000Y-80040000D02*
X106230000Y-72410000D01*
X104720000Y-81550000D02*
X106230000Y-80040000D01*
X93330000Y-81550000D02*
X104720000Y-81550000D01*
X106230000Y-72410000D02*
X106665000Y-71975000D01*
D39*
%TO.N,/BM1370/VDD3_0*%
X110571000Y-114039000D02*
X110568000Y-114036000D01*
X113470000Y-112590000D02*
X112021000Y-114039000D01*
X110568000Y-114036000D02*
X109526562Y-114036000D01*
X112021000Y-114039000D02*
X110571000Y-114039000D01*
X113470000Y-111290000D02*
X113470000Y-112590000D01*
%TO.N,/BM1370/1V2*%
X110200000Y-120330000D02*
X109930000Y-120060000D01*
X110200000Y-124240000D02*
X110200000Y-120330000D01*
X124520000Y-101750000D02*
X124600000Y-101830000D01*
X109930000Y-120060000D02*
X109526562Y-120060000D01*
X110950000Y-124990000D02*
X110200000Y-124240000D01*
X117120000Y-101750000D02*
X124520000Y-101750000D01*
%TO.N,/BM1370/0V8*%
X110970000Y-123700000D02*
X110970000Y-120070000D01*
X110970000Y-120070000D02*
X110458000Y-119558000D01*
X110458000Y-119558000D02*
X109526562Y-119558000D01*
%TO.N,/BM1370/VDD2_0*%
X112380000Y-109360000D02*
X112380000Y-112680000D01*
X111526000Y-113534000D02*
X109526562Y-113534000D01*
X112390000Y-109350000D02*
X112380000Y-109360000D01*
X112380000Y-112680000D02*
X111526000Y-113534000D01*
%TO.N,/BM1370/VDD1_0*%
X111030000Y-107870000D02*
X111000000Y-107900000D01*
X110528000Y-113032000D02*
X109526562Y-113032000D01*
X111000000Y-112560000D02*
X110528000Y-113032000D01*
X111000000Y-107900000D02*
X111000000Y-112560000D01*
%TO.N,/BM1370/VDD1_1*%
X100540000Y-112750000D02*
X100822000Y-113032000D01*
X100553800Y-107457400D02*
X100540000Y-107471200D01*
X100822000Y-113032000D02*
X101522000Y-113032000D01*
X100540000Y-107471200D02*
X100540000Y-112750000D01*
%TO.N,/BM1370/VDD2_1*%
X99360000Y-109210000D02*
X99360000Y-112970000D01*
X99927000Y-113537000D02*
X99930000Y-113534000D01*
X99360000Y-112970000D02*
X99927000Y-113537000D01*
X99930000Y-113534000D02*
X101694562Y-113534000D01*
%TO.N,/BM1370/VDD3_1*%
X100704000Y-114036000D02*
X101694562Y-114036000D01*
X100700000Y-114040000D02*
X100704000Y-114036000D01*
X99150000Y-114040000D02*
X100700000Y-114040000D01*
X98140000Y-111060000D02*
X98140000Y-113030000D01*
X98140000Y-113030000D02*
X99150000Y-114040000D01*
%TO.N,/BM1370/BI*%
X119420000Y-114790000D02*
X118310000Y-114790000D01*
X116052000Y-117048000D02*
X109526562Y-117048000D01*
X118310000Y-114790000D02*
X116052000Y-117048000D01*
%TO.N,/BM1370/RST_N*%
X113800000Y-98950000D02*
X113420000Y-98950000D01*
X113840000Y-115040000D02*
X109526562Y-115040000D01*
X117140000Y-108980000D02*
X117140000Y-111740000D01*
X117140000Y-111740000D02*
X113840000Y-115040000D01*
X112400000Y-99970000D02*
X112400000Y-104240000D01*
X113420000Y-98950000D02*
X112400000Y-99970000D01*
X112400000Y-104240000D02*
X117140000Y-108980000D01*
%TO.N,/BM1370/CI*%
X117710000Y-108640000D02*
X117710000Y-112030000D01*
X113520000Y-99770000D02*
X113110000Y-100180000D01*
X113770000Y-99770000D02*
X113520000Y-99770000D01*
X117710000Y-112030000D02*
X114198000Y-115542000D01*
X113110000Y-104040000D02*
X117710000Y-108640000D01*
X114198000Y-115542000D02*
X109526562Y-115542000D01*
X113110000Y-100180000D02*
X113110000Y-104040000D01*
%TO.N,/BM1370/RO*%
X113830000Y-103880000D02*
X113830000Y-100500000D01*
X114636000Y-116044000D02*
X109526562Y-116044000D01*
X118320000Y-108370000D02*
X113830000Y-103880000D01*
X114636000Y-116044000D02*
X118320000Y-112360000D01*
X118320000Y-112360000D02*
X118320000Y-108370000D01*
%TO.N,/BM1370/CLKI*%
X118740000Y-113660000D02*
X118220000Y-113660000D01*
X115334000Y-116546000D02*
X109526562Y-116546000D01*
X118220000Y-113660000D02*
X115334000Y-116546000D01*
%TO.N,/BM1370/NRSTO*%
X95310000Y-115040000D02*
X101694562Y-115040000D01*
X92480000Y-112210000D02*
X95310000Y-115040000D01*
%TO.N,/BM1370/CO*%
X92480000Y-113611428D02*
X92480000Y-113930000D01*
X92480000Y-113930000D02*
X94092000Y-115542000D01*
X94092000Y-115542000D02*
X101694562Y-115542000D01*
%TO.N,/BM1370/RI*%
X93511144Y-116044000D02*
X101694562Y-116044000D01*
X92480000Y-115012856D02*
X93511144Y-116044000D01*
%TO.N,/BM1370/CLKO*%
X92611716Y-116546000D02*
X101694562Y-116546000D01*
X92480000Y-116414284D02*
X92611716Y-116546000D01*
%TO.N,/BM1370/BO*%
X92480000Y-117815712D02*
X92974288Y-117815712D01*
X92974288Y-117815712D02*
X93742000Y-117048000D01*
X93742000Y-117048000D02*
X101694562Y-117048000D01*
%TO.N,/BM1370/PIN_MODE*%
X91650000Y-120680000D02*
X93610000Y-120680000D01*
X93610000Y-120680000D02*
X95736000Y-118554000D01*
X91400000Y-120430000D02*
X91650000Y-120680000D01*
X95736000Y-118554000D02*
X101694562Y-118554000D01*
D41*
%TO.N,/Fan/FAN_TACH*%
X105200000Y-140198606D02*
X104000000Y-141398606D01*
X93918400Y-137048400D02*
X103148400Y-137048400D01*
X105200000Y-139100000D02*
X105200000Y-140198606D01*
X103148400Y-137048400D02*
X105200000Y-139100000D01*
X104000000Y-141398606D02*
X104000000Y-141675000D01*
X93570000Y-136700000D02*
X93918400Y-137048400D01*
%TD*%
%TA.AperFunction,Conductor*%
%TO.N,GND*%
G36*
X92496206Y-74505312D02*
G01*
X92515362Y-74506838D01*
X92570000Y-74515492D01*
X92622977Y-74507101D01*
X92642559Y-74505577D01*
X105904124Y-74529573D01*
X105971128Y-74549379D01*
X106016787Y-74602266D01*
X106027900Y-74653573D01*
X106027900Y-79904924D01*
X106008215Y-79971963D01*
X105991581Y-79992605D01*
X104903127Y-81081058D01*
X104841804Y-81114543D01*
X104815222Y-81117377D01*
X100305309Y-81109245D01*
X100238306Y-81089439D01*
X100192646Y-81036553D01*
X100183060Y-81004642D01*
X100165647Y-80894699D01*
X100165647Y-80894698D01*
X100136783Y-80838050D01*
X100108050Y-80781658D01*
X100108046Y-80781654D01*
X100108045Y-80781652D01*
X100018347Y-80691954D01*
X100018344Y-80691952D01*
X100018342Y-80691950D01*
X99905304Y-80634354D01*
X99905303Y-80634353D01*
X99905300Y-80634352D01*
X99780003Y-80614508D01*
X99779997Y-80614508D01*
X99654699Y-80634352D01*
X99654698Y-80634352D01*
X99579337Y-80672751D01*
X99541658Y-80691950D01*
X99541657Y-80691951D01*
X99541652Y-80691954D01*
X99472026Y-80761581D01*
X99410703Y-80795066D01*
X99384345Y-80797900D01*
X92999799Y-80797900D01*
X92979752Y-80806204D01*
X92959705Y-80814508D01*
X92959704Y-80814508D01*
X92925524Y-80828665D01*
X92925519Y-80828668D01*
X92695137Y-81059049D01*
X92633814Y-81092533D01*
X92607232Y-81095367D01*
X89752468Y-81090220D01*
X89685465Y-81070414D01*
X89639805Y-81017528D01*
X89628699Y-80967537D01*
X89627224Y-80828665D01*
X89569029Y-75350045D01*
X89587999Y-75282805D01*
X89605336Y-75261055D01*
X89668050Y-75198342D01*
X89725646Y-75085304D01*
X89725646Y-75085302D01*
X89725647Y-75085301D01*
X89725647Y-75085300D01*
X89745492Y-74960003D01*
X89745492Y-74959996D01*
X89725647Y-74834699D01*
X89725647Y-74834698D01*
X89725646Y-74834696D01*
X89668050Y-74721658D01*
X89668046Y-74721654D01*
X89668045Y-74721652D01*
X89658411Y-74712018D01*
X89624926Y-74650695D01*
X89629910Y-74581003D01*
X89671782Y-74525070D01*
X89737246Y-74500653D01*
X89746312Y-74500337D01*
X92496206Y-74505312D01*
G37*
%TD.AperFunction*%
%TD*%
%TA.AperFunction,Conductor*%
%TO.N,GND*%
G36*
X119916378Y-70319418D02*
G01*
X119983324Y-70339418D01*
X120028830Y-70392437D01*
X120039794Y-70443623D01*
X120037810Y-71640434D01*
X120018014Y-71707440D01*
X119965134Y-71753108D01*
X119900557Y-71763518D01*
X119867833Y-71760000D01*
X119620000Y-71760000D01*
X119620000Y-75386000D01*
X119600315Y-75453039D01*
X119547511Y-75498794D01*
X119496000Y-75510000D01*
X119370000Y-75510000D01*
X119370000Y-75636000D01*
X119350315Y-75703039D01*
X119297511Y-75748794D01*
X119246000Y-75760000D01*
X116694000Y-75760000D01*
X116626961Y-75740315D01*
X116581206Y-75687511D01*
X116570000Y-75636000D01*
X116570000Y-75510000D01*
X116444000Y-75510000D01*
X116376961Y-75490315D01*
X116331206Y-75437511D01*
X116320000Y-75386000D01*
X116320000Y-75260000D01*
X116820000Y-75260000D01*
X117720000Y-75260000D01*
X118220000Y-75260000D01*
X119120000Y-75260000D01*
X119120000Y-74360000D01*
X118220000Y-74360000D01*
X118220000Y-75260000D01*
X117720000Y-75260000D01*
X117720000Y-74360000D01*
X116820000Y-74360000D01*
X116820000Y-75260000D01*
X116320000Y-75260000D01*
X116320000Y-73860000D01*
X116820000Y-73860000D01*
X117720000Y-73860000D01*
X118220000Y-73860000D01*
X119120000Y-73860000D01*
X119120000Y-72960000D01*
X118220000Y-72960000D01*
X118220000Y-73860000D01*
X117720000Y-73860000D01*
X117720000Y-72960000D01*
X116820000Y-72960000D01*
X116820000Y-73860000D01*
X116320000Y-73860000D01*
X116320000Y-72460000D01*
X116820000Y-72460000D01*
X117720000Y-72460000D01*
X118220000Y-72460000D01*
X119120000Y-72460000D01*
X119120000Y-71760000D01*
X118872155Y-71760000D01*
X118812627Y-71766401D01*
X118812616Y-71766403D01*
X118713332Y-71803434D01*
X118643640Y-71808418D01*
X118626668Y-71803434D01*
X118527383Y-71766403D01*
X118527372Y-71766401D01*
X118467844Y-71760000D01*
X118220000Y-71760000D01*
X118220000Y-72460000D01*
X117720000Y-72460000D01*
X117720000Y-71760000D01*
X117472155Y-71760000D01*
X117412627Y-71766401D01*
X117412616Y-71766403D01*
X117313332Y-71803434D01*
X117243640Y-71808418D01*
X117226668Y-71803434D01*
X117127383Y-71766403D01*
X117127372Y-71766401D01*
X117067844Y-71760000D01*
X116820000Y-71760000D01*
X116820000Y-72460000D01*
X116320000Y-72460000D01*
X116320000Y-71760000D01*
X116072155Y-71760000D01*
X116012627Y-71766401D01*
X116012621Y-71766402D01*
X115955052Y-71787874D01*
X115885361Y-71792857D01*
X115824038Y-71759371D01*
X115790554Y-71698047D01*
X115787721Y-71671492D01*
X115789793Y-70424376D01*
X115809589Y-70357371D01*
X115862469Y-70311704D01*
X115914375Y-70300585D01*
X119916378Y-70319418D01*
G37*
%TD.AperFunction*%
%TD*%
%TA.AperFunction,Conductor*%
%TO.N,/5V*%
G36*
X94532607Y-65409727D02*
G01*
X94578402Y-65462497D01*
X94589645Y-65514446D01*
X94580000Y-68899823D01*
X94580000Y-72235344D01*
X94560315Y-72302383D01*
X94507511Y-72348138D01*
X94455346Y-72359342D01*
X81423346Y-72290650D01*
X81356412Y-72270613D01*
X81310936Y-72217568D01*
X81300000Y-72166652D01*
X81300000Y-67374995D01*
X81319685Y-67307956D01*
X81372489Y-67262201D01*
X81441647Y-67252257D01*
X81505203Y-67281282D01*
X81511681Y-67287314D01*
X81660342Y-67435975D01*
X81660345Y-67435977D01*
X81832402Y-67550941D01*
X82023580Y-67630130D01*
X82226530Y-67670499D01*
X82226534Y-67670500D01*
X82226535Y-67670500D01*
X82433466Y-67670500D01*
X82433467Y-67670499D01*
X82636420Y-67630130D01*
X82827598Y-67550941D01*
X82999655Y-67435977D01*
X83145977Y-67289655D01*
X83260941Y-67117598D01*
X83340130Y-66926420D01*
X83380500Y-66723465D01*
X83380500Y-66516535D01*
X83340130Y-66313580D01*
X83260941Y-66122402D01*
X83145977Y-65950345D01*
X83145975Y-65950342D01*
X82999657Y-65804024D01*
X82827596Y-65689057D01*
X82703050Y-65637469D01*
X82648647Y-65593628D01*
X82626582Y-65527334D01*
X82643861Y-65459634D01*
X82694999Y-65412024D01*
X82750407Y-65398908D01*
X86180808Y-65396327D01*
X86247861Y-65415961D01*
X86293656Y-65468731D01*
X86303651Y-65537882D01*
X86274674Y-65601459D01*
X86237198Y-65630810D01*
X86227004Y-65636004D01*
X86080505Y-65742441D01*
X86080500Y-65742445D01*
X85952445Y-65870500D01*
X85952441Y-65870505D01*
X85846006Y-66017002D01*
X85763788Y-66178360D01*
X85763787Y-66178363D01*
X85707829Y-66350589D01*
X85679500Y-66529448D01*
X85679500Y-66710551D01*
X85707829Y-66889410D01*
X85763787Y-67061636D01*
X85763788Y-67061639D01*
X85846006Y-67222997D01*
X85952441Y-67369494D01*
X85952445Y-67369499D01*
X86080500Y-67497554D01*
X86080505Y-67497558D01*
X86208287Y-67590396D01*
X86227006Y-67603996D01*
X86278299Y-67630131D01*
X86388360Y-67686211D01*
X86388363Y-67686212D01*
X86474476Y-67714191D01*
X86560591Y-67742171D01*
X86643429Y-67755291D01*
X86739449Y-67770500D01*
X86739454Y-67770500D01*
X86920551Y-67770500D01*
X87007259Y-67756765D01*
X87099409Y-67742171D01*
X87271639Y-67686211D01*
X87432994Y-67603996D01*
X87579501Y-67497553D01*
X87707553Y-67369501D01*
X87813996Y-67222994D01*
X87896211Y-67061639D01*
X87952171Y-66889409D01*
X87966765Y-66797259D01*
X87980500Y-66710551D01*
X87980500Y-66529448D01*
X87964019Y-66425397D01*
X87952171Y-66350591D01*
X87896211Y-66178361D01*
X87896211Y-66178360D01*
X87867698Y-66122402D01*
X87813996Y-66017006D01*
X87765562Y-65950342D01*
X87707558Y-65870505D01*
X87707554Y-65870500D01*
X87579499Y-65742445D01*
X87579494Y-65742441D01*
X87432995Y-65636004D01*
X87420891Y-65629837D01*
X87370095Y-65581863D01*
X87353299Y-65514042D01*
X87375836Y-65447907D01*
X87430551Y-65404455D01*
X87477091Y-65395352D01*
X94465555Y-65390093D01*
X94532607Y-65409727D01*
G37*
%TD.AperFunction*%
%TD*%
%TA.AperFunction,Conductor*%
%TO.N,/VDD*%
G36*
X109395630Y-96993391D02*
G01*
X109463486Y-97014272D01*
X109509281Y-97068525D01*
X109520000Y-97119380D01*
X109520000Y-112281949D01*
X109499998Y-112350070D01*
X109446342Y-112396563D01*
X109418581Y-112405528D01*
X109393188Y-112410579D01*
X109368608Y-112413000D01*
X109148860Y-112413000D01*
X109148851Y-112413001D01*
X109049665Y-112426059D01*
X109038644Y-112427510D01*
X109038642Y-112427510D01*
X109038641Y-112427511D01*
X108901507Y-112484312D01*
X108783740Y-112574678D01*
X108693374Y-112692445D01*
X108636572Y-112829581D01*
X108622062Y-112939795D01*
X108622062Y-113124201D01*
X108622063Y-113124210D01*
X108634959Y-113222171D01*
X108636382Y-113232978D01*
X108636572Y-113234417D01*
X108636724Y-113234784D01*
X108636760Y-113235119D01*
X108638709Y-113242393D01*
X108637574Y-113242697D01*
X108644311Y-113305374D01*
X108636726Y-113331209D01*
X108636572Y-113331580D01*
X108622062Y-113441795D01*
X108622062Y-113626201D01*
X108622063Y-113626210D01*
X108636572Y-113736417D01*
X108636724Y-113736784D01*
X108636760Y-113737119D01*
X108638709Y-113744393D01*
X108637574Y-113744697D01*
X108644311Y-113807374D01*
X108636726Y-113833209D01*
X108636572Y-113833580D01*
X108622062Y-113943795D01*
X108622062Y-114128201D01*
X108622063Y-114128210D01*
X108634959Y-114226171D01*
X108636382Y-114236978D01*
X108636572Y-114238417D01*
X108636724Y-114238784D01*
X108636760Y-114239119D01*
X108638709Y-114246393D01*
X108637574Y-114246697D01*
X108644311Y-114309374D01*
X108636726Y-114335209D01*
X108636572Y-114335580D01*
X108622062Y-114445795D01*
X108622062Y-114501500D01*
X108602060Y-114569621D01*
X108548404Y-114616114D01*
X108496062Y-114627500D01*
X102725061Y-114627500D01*
X102656940Y-114607498D01*
X102610447Y-114553842D01*
X102599061Y-114501500D01*
X102599061Y-114445798D01*
X102599060Y-114445789D01*
X102586796Y-114352631D01*
X102584552Y-114335582D01*
X102584401Y-114335219D01*
X102584366Y-114334887D01*
X102582414Y-114327601D01*
X102583550Y-114327296D01*
X102576812Y-114264631D01*
X102584402Y-114238780D01*
X102584552Y-114238418D01*
X102599062Y-114128203D01*
X102599061Y-113943798D01*
X102584552Y-113833582D01*
X102584401Y-113833219D01*
X102584366Y-113832887D01*
X102582414Y-113825601D01*
X102583550Y-113825296D01*
X102576812Y-113762631D01*
X102584402Y-113736780D01*
X102584552Y-113736418D01*
X102599062Y-113626203D01*
X102599061Y-113441798D01*
X102584552Y-113331582D01*
X102584401Y-113331219D01*
X102584366Y-113330887D01*
X102582414Y-113323601D01*
X102583550Y-113323296D01*
X102576812Y-113260631D01*
X102584402Y-113234780D01*
X102584552Y-113234418D01*
X102599062Y-113124203D01*
X102599061Y-112939798D01*
X102584552Y-112829582D01*
X102543709Y-112730978D01*
X102527749Y-112692445D01*
X102527747Y-112692442D01*
X102437384Y-112574678D01*
X102319620Y-112484315D01*
X102319619Y-112484314D01*
X102319616Y-112484312D01*
X102182480Y-112427510D01*
X102072267Y-112413000D01*
X102072265Y-112413000D01*
X101916000Y-112413000D01*
X101847879Y-112392998D01*
X101801386Y-112339342D01*
X101790000Y-112287000D01*
X101790000Y-97022640D01*
X101810002Y-96954519D01*
X101863658Y-96908026D01*
X101917629Y-96896651D01*
X109395630Y-96993391D01*
G37*
%TD.AperFunction*%
%TD*%
%TA.AperFunction,Conductor*%
%TO.N,unconnected-(J7-MountPin-PadMP)*%
G36*
X102754205Y-140419685D02*
G01*
X102799960Y-140472489D01*
X102809904Y-140541647D01*
X102780879Y-140605203D01*
X102774846Y-140611682D01*
X102733442Y-140653085D01*
X102702058Y-140675887D01*
X102611656Y-140721950D01*
X102587681Y-140745926D01*
X102526358Y-140779411D01*
X102456666Y-140774427D01*
X102412319Y-140745926D01*
X102388347Y-140721954D01*
X102388344Y-140721952D01*
X102388342Y-140721950D01*
X102297939Y-140675887D01*
X102275301Y-140664352D01*
X102181524Y-140649500D01*
X101818482Y-140649500D01*
X101737519Y-140662323D01*
X101724696Y-140664354D01*
X101611658Y-140721950D01*
X101611657Y-140721951D01*
X101611652Y-140721954D01*
X101521954Y-140811652D01*
X101521951Y-140811657D01*
X101464352Y-140924698D01*
X101449500Y-141018475D01*
X101449500Y-142331517D01*
X101460292Y-142399657D01*
X101464354Y-142425304D01*
X101521950Y-142538342D01*
X101521952Y-142538344D01*
X101521954Y-142538347D01*
X101611652Y-142628045D01*
X101611654Y-142628046D01*
X101611658Y-142628050D01*
X101724696Y-142685646D01*
X101777932Y-142694077D01*
X101841064Y-142724005D01*
X101846214Y-142728869D01*
X102621046Y-143503701D01*
X102736087Y-143570120D01*
X102830013Y-143595286D01*
X102830015Y-143595287D01*
X102830016Y-143595287D01*
X102839229Y-143597755D01*
X102864397Y-143604500D01*
X102864398Y-143604500D01*
X102997235Y-143604500D01*
X103991771Y-143604500D01*
X104058810Y-143624185D01*
X104079452Y-143640819D01*
X104129109Y-143690476D01*
X104129115Y-143690481D01*
X104272302Y-143780452D01*
X104272305Y-143780454D01*
X104272309Y-143780455D01*
X104272310Y-143780456D01*
X104344913Y-143805860D01*
X104431943Y-143836314D01*
X104599997Y-143855249D01*
X104600000Y-143855249D01*
X104600003Y-143855249D01*
X104768056Y-143836314D01*
X104768059Y-143836313D01*
X104927690Y-143780456D01*
X104927692Y-143780454D01*
X104927694Y-143780454D01*
X104927697Y-143780452D01*
X105070884Y-143690481D01*
X105070885Y-143690480D01*
X105070890Y-143690477D01*
X105190477Y-143570890D01*
X105190961Y-143570120D01*
X105280452Y-143427697D01*
X105280454Y-143427694D01*
X105280454Y-143427692D01*
X105280456Y-143427690D01*
X105336313Y-143268059D01*
X105336313Y-143268058D01*
X105336314Y-143268056D01*
X105355249Y-143100002D01*
X105355249Y-143099997D01*
X105336313Y-142931940D01*
X105336313Y-142931938D01*
X105289721Y-142798787D01*
X105286159Y-142729008D01*
X105320887Y-142668381D01*
X105350463Y-142647350D01*
X105388342Y-142628050D01*
X105478050Y-142538342D01*
X105535646Y-142425304D01*
X105535646Y-142425302D01*
X105535647Y-142425301D01*
X105550499Y-142331524D01*
X105550500Y-142331519D01*
X105550499Y-141671543D01*
X105570183Y-141604505D01*
X105586818Y-141583863D01*
X105782070Y-141388612D01*
X105828214Y-141308688D01*
X105852100Y-141219543D01*
X105852100Y-141127256D01*
X105852100Y-140524000D01*
X105871785Y-140456961D01*
X105924589Y-140411206D01*
X105976100Y-140400000D01*
X108476000Y-140400000D01*
X108543039Y-140419685D01*
X108588794Y-140472489D01*
X108600000Y-140524000D01*
X108600000Y-147076000D01*
X108580315Y-147143039D01*
X108527511Y-147188794D01*
X108476000Y-147200000D01*
X99024000Y-147200000D01*
X98956961Y-147180315D01*
X98911206Y-147127511D01*
X98900000Y-147076000D01*
X98900000Y-140524000D01*
X98919685Y-140456961D01*
X98972489Y-140411206D01*
X99024000Y-140400000D01*
X102687166Y-140400000D01*
X102754205Y-140419685D01*
G37*
%TD.AperFunction*%
%TD*%
%TA.AperFunction,Conductor*%
%TO.N,GND*%
G36*
X102026226Y-59639591D02*
G01*
X102093200Y-59659496D01*
X102138780Y-59712451D01*
X102149816Y-59763773D01*
X102140183Y-66276273D01*
X102120399Y-66343284D01*
X102067528Y-66388960D01*
X102016274Y-66400090D01*
X95334091Y-66404970D01*
X95267037Y-66385334D01*
X95221243Y-66332564D01*
X95210000Y-66280970D01*
X95210000Y-64784721D01*
X81093308Y-64760214D01*
X81026303Y-64740413D01*
X80980639Y-64687530D01*
X80969524Y-64636695D01*
X80950481Y-59694888D01*
X80969907Y-59627774D01*
X81022534Y-59581816D01*
X81074887Y-59570412D01*
X102026226Y-59639591D01*
G37*
%TD.AperFunction*%
%TD*%
M02*
