%TF.GenerationSoftware,KiCad,Pcbnew,8.0.7*%
%TF.CreationDate,2025-01-16T15:43:03+03:00*%
%TF.ProjectId,bitshoka,62697473-686f-46b6-912e-6b696361645f,rev?*%
%TF.SameCoordinates,Original*%
%TF.FileFunction,Soldermask,Bot*%
%TF.FilePolarity,Negative*%
%FSLAX46Y46*%
G04 Gerber Fmt 4.6, Leading zero omitted, Abs format (unit mm)*
G04 Created by KiCad (PCBNEW 8.0.7) date 2025-01-16 15:43:03*
%MOMM*%
%LPD*%
G01*
G04 APERTURE LIST*
G04 Aperture macros list*
%AMRoundRect*
0 Rectangle with rounded corners*
0 $1 Rounding radius*
0 $2 $3 $4 $5 $6 $7 $8 $9 X,Y pos of 4 corners*
0 Add a 4 corners polygon primitive as box body*
4,1,4,$2,$3,$4,$5,$6,$7,$8,$9,$2,$3,0*
0 Add four circle primitives for the rounded corners*
1,1,$1+$1,$2,$3*
1,1,$1+$1,$4,$5*
1,1,$1+$1,$6,$7*
1,1,$1+$1,$8,$9*
0 Add four rect primitives between the rounded corners*
20,1,$1+$1,$2,$3,$4,$5,0*
20,1,$1+$1,$4,$5,$6,$7,0*
20,1,$1+$1,$6,$7,$8,$9,0*
20,1,$1+$1,$8,$9,$2,$3,0*%
G04 Aperture macros list end*
%ADD10C,0.000000*%
%ADD11C,0.120000*%
%ADD12C,3.000000*%
%ADD13C,0.800000*%
%ADD14C,6.000000*%
%ADD15R,1.700000X1.700000*%
%ADD16O,1.700000X1.700000*%
%ADD17C,3.500000*%
%ADD18C,0.400000*%
%ADD19C,1.295400*%
%ADD20C,1.574800*%
%ADD21C,1.700000*%
%ADD22C,2.000000*%
%ADD23C,0.650000*%
%ADD24RoundRect,0.150000X0.425000X-0.150000X0.425000X0.150000X-0.425000X0.150000X-0.425000X-0.150000X0*%
%ADD25RoundRect,0.075000X0.500000X-0.075000X0.500000X0.075000X-0.500000X0.075000X-0.500000X-0.075000X0*%
%ADD26O,1.800000X1.000000*%
%ADD27O,2.100000X1.000000*%
%ADD28R,0.900000X1.500000*%
%ADD29R,1.500000X0.900000*%
%ADD30R,0.900000X0.900000*%
%ADD31C,0.990600*%
%ADD32C,0.787400*%
%ADD33RoundRect,0.055250X0.340750X0.055250X-0.340750X0.055250X-0.340750X-0.055250X0.340750X-0.055250X0*%
%ADD34C,1.600000*%
%ADD35C,1.800000*%
%ADD36RoundRect,0.102000X1.000000X-1.000000X1.000000X1.000000X-1.000000X1.000000X-1.000000X-1.000000X0*%
%ADD37R,0.900000X1.800000*%
%ADD38RoundRect,0.150000X-0.150000X-0.625000X0.150000X-0.625000X0.150000X0.625000X-0.150000X0.625000X0*%
%ADD39RoundRect,0.250000X-0.350000X-0.650000X0.350000X-0.650000X0.350000X0.650000X-0.350000X0.650000X0*%
G04 APERTURE END LIST*
D10*
%TO.C,G\u002A\u002A\u002A*%
G36*
X121859114Y-88107759D02*
G01*
X121843473Y-88123399D01*
X121827833Y-88107759D01*
X121843473Y-88092118D01*
X121859114Y-88107759D01*
G37*
G36*
X116157828Y-85222108D02*
G01*
X116493743Y-85558022D01*
X116150534Y-85902299D01*
X115807325Y-86246575D01*
X115470355Y-85910649D01*
X115133384Y-85574723D01*
X115477649Y-85230458D01*
X115821913Y-84886193D01*
X116157828Y-85222108D01*
G37*
G36*
X116493589Y-87277487D02*
G01*
X116518227Y-87315204D01*
X116633855Y-87493653D01*
X116716622Y-87629059D01*
X116767441Y-87729471D01*
X116787226Y-87802935D01*
X116776891Y-87857499D01*
X116737350Y-87901210D01*
X116669515Y-87942116D01*
X116574303Y-87988265D01*
X116388116Y-88076478D01*
X116386546Y-89082883D01*
X116384976Y-90089289D01*
X116464551Y-90183859D01*
X116476737Y-90197778D01*
X116545541Y-90261774D01*
X116605315Y-90297850D01*
X116657092Y-90325023D01*
X116653787Y-90360176D01*
X116588229Y-90401238D01*
X116580484Y-90405102D01*
X116510169Y-90460906D01*
X116447582Y-90539202D01*
X116443008Y-90546849D01*
X116429174Y-90573666D01*
X116417712Y-90606248D01*
X116408381Y-90650275D01*
X116400940Y-90711426D01*
X116395147Y-90795381D01*
X116390763Y-90907820D01*
X116387546Y-91054423D01*
X116385256Y-91240868D01*
X116383650Y-91472837D01*
X116382489Y-91756007D01*
X116381530Y-92096059D01*
X116377851Y-93550616D01*
X116023025Y-93886884D01*
X115950416Y-93955368D01*
X115836360Y-94061504D01*
X115743155Y-94146411D01*
X115678912Y-94202743D01*
X115651745Y-94223153D01*
X115636755Y-94207514D01*
X115600459Y-94149250D01*
X115553974Y-94062683D01*
X115549430Y-94054047D01*
X115483779Y-93955807D01*
X115375520Y-93822106D01*
X115228858Y-93657886D01*
X115047998Y-93468091D01*
X115031749Y-93451456D01*
X114903402Y-93318325D01*
X114793571Y-93201386D01*
X114708654Y-93107682D01*
X114655050Y-93044255D01*
X114639160Y-93018148D01*
X114641725Y-93016720D01*
X114679665Y-93028926D01*
X114740495Y-93069591D01*
X114764635Y-93086430D01*
X114886781Y-93130401D01*
X115021724Y-93129211D01*
X115143975Y-93082072D01*
X115227586Y-93027288D01*
X115227586Y-91839123D01*
X115227585Y-91797507D01*
X115227307Y-91480980D01*
X115225981Y-91220278D01*
X115222801Y-91009381D01*
X115216960Y-90842266D01*
X115207651Y-90712914D01*
X115194069Y-90615303D01*
X115175406Y-90543412D01*
X115150855Y-90491221D01*
X115119611Y-90452709D01*
X115080867Y-90421855D01*
X115033815Y-90392637D01*
X115030476Y-90390662D01*
X114971245Y-90352009D01*
X114961428Y-90329663D01*
X114995220Y-90311410D01*
X115000165Y-90309376D01*
X115064398Y-90267801D01*
X115133744Y-90204506D01*
X115211946Y-90120396D01*
X115220846Y-88932823D01*
X115229746Y-87745250D01*
X115087902Y-87603407D01*
X115020020Y-87532948D01*
X114966547Y-87471894D01*
X114946059Y-87440573D01*
X114959110Y-87432410D01*
X115018962Y-87423175D01*
X115110941Y-87419582D01*
X115296850Y-87391812D01*
X115501715Y-87308835D01*
X115716327Y-87173937D01*
X115934365Y-86990412D01*
X116163756Y-86772513D01*
X116493589Y-87277487D01*
G37*
G36*
X112816570Y-85667944D02*
G01*
X112866136Y-85804747D01*
X112973858Y-86057869D01*
X113090631Y-86270538D01*
X113224207Y-86457779D01*
X113353859Y-86599453D01*
X113501318Y-86707834D01*
X113669377Y-86773404D01*
X113876055Y-86805782D01*
X114113853Y-86825247D01*
X114276279Y-87106774D01*
X114438704Y-87388301D01*
X114160609Y-87397295D01*
X113882513Y-87406289D01*
X113882513Y-88736102D01*
X113882577Y-89025503D01*
X113883209Y-89316908D01*
X113885092Y-89556254D01*
X113888914Y-89749248D01*
X113895358Y-89901596D01*
X113905111Y-90019004D01*
X113918858Y-90107178D01*
X113937284Y-90171826D01*
X113961076Y-90218652D01*
X113990917Y-90253364D01*
X114027495Y-90281668D01*
X114071495Y-90309270D01*
X114163597Y-90365281D01*
X114084547Y-90407587D01*
X114079455Y-90410444D01*
X114007726Y-90469671D01*
X113944005Y-90549390D01*
X113940100Y-90555821D01*
X113926353Y-90582048D01*
X113914985Y-90614076D01*
X113905769Y-90657582D01*
X113898480Y-90718242D01*
X113892893Y-90801731D01*
X113888783Y-90913725D01*
X113885926Y-91059901D01*
X113884095Y-91245934D01*
X113883066Y-91477501D01*
X113882613Y-91760277D01*
X113882513Y-92099939D01*
X113882513Y-93550991D01*
X113504112Y-93905451D01*
X113125711Y-94259910D01*
X113051238Y-94099169D01*
X113040907Y-94078426D01*
X112978454Y-93981083D01*
X112878797Y-93855956D01*
X112738412Y-93698843D01*
X112553777Y-93505539D01*
X112451821Y-93400454D01*
X112305554Y-93245691D01*
X112204715Y-93132503D01*
X112148927Y-93060371D01*
X112137812Y-93028775D01*
X112170992Y-93037198D01*
X112248091Y-93085119D01*
X112292799Y-93111404D01*
X112424891Y-93150097D01*
X112555131Y-93139277D01*
X112664990Y-93079207D01*
X112667013Y-93077351D01*
X112682089Y-93060309D01*
X112694310Y-93036011D01*
X112703973Y-92998312D01*
X112711378Y-92941067D01*
X112716823Y-92858130D01*
X112720608Y-92743357D01*
X112723032Y-92590603D01*
X112724393Y-92393722D01*
X112724991Y-92146570D01*
X112725123Y-91843001D01*
X112724727Y-91631972D01*
X112722825Y-91352048D01*
X112719472Y-91106447D01*
X112714808Y-90900815D01*
X112708970Y-90740800D01*
X112702096Y-90632048D01*
X112694324Y-90580206D01*
X112688240Y-90566902D01*
X112632805Y-90496387D01*
X112553538Y-90434304D01*
X112443553Y-90369411D01*
X112544781Y-90301193D01*
X112581934Y-90275819D01*
X112617687Y-90247403D01*
X112646888Y-90214103D01*
X112670200Y-90170154D01*
X112688292Y-90109786D01*
X112701828Y-90027231D01*
X112711474Y-89916723D01*
X112717896Y-89772493D01*
X112721760Y-89588772D01*
X112723732Y-89359794D01*
X112724477Y-89079791D01*
X112724662Y-88742993D01*
X112725123Y-87407538D01*
X112593126Y-87397919D01*
X112560542Y-87394973D01*
X112507735Y-87383758D01*
X112459235Y-87357993D01*
X112404304Y-87309015D01*
X112332204Y-87228163D01*
X112232196Y-87106774D01*
X112003263Y-86825247D01*
X112364193Y-86816434D01*
X112725123Y-86807621D01*
X112727478Y-86112616D01*
X112729833Y-85417611D01*
X112816570Y-85667944D01*
G37*
G36*
X102359820Y-90317351D02*
G01*
X102444266Y-90368568D01*
X102349381Y-90417635D01*
X102335102Y-90425103D01*
X102290598Y-90451211D01*
X102253968Y-90481737D01*
X102224444Y-90522495D01*
X102201262Y-90579300D01*
X102183656Y-90657966D01*
X102170859Y-90764306D01*
X102162106Y-90904136D01*
X102156631Y-91083270D01*
X102153668Y-91307522D01*
X102152452Y-91582707D01*
X102152217Y-91914638D01*
X102152217Y-93147038D01*
X102259557Y-93185853D01*
X102309110Y-93208503D01*
X102428650Y-93300528D01*
X102528278Y-93427289D01*
X102590888Y-93569003D01*
X102592258Y-93574143D01*
X102610172Y-93663637D01*
X102608261Y-93710234D01*
X102589210Y-93707752D01*
X102555704Y-93650008D01*
X102550505Y-93639962D01*
X102491278Y-93572281D01*
X102408394Y-93516824D01*
X102379474Y-93503418D01*
X102345453Y-93491104D01*
X102307912Y-93485319D01*
X102260772Y-93487874D01*
X102197951Y-93500583D01*
X102113369Y-93525257D01*
X102000946Y-93563710D01*
X101854601Y-93617753D01*
X101668254Y-93689199D01*
X101435824Y-93779860D01*
X101151232Y-93891549D01*
X101112521Y-93906741D01*
X100900388Y-93989617D01*
X100708046Y-94064140D01*
X100543174Y-94127383D01*
X100413449Y-94176414D01*
X100326548Y-94208305D01*
X100290151Y-94220126D01*
X100289157Y-94220128D01*
X100260658Y-94192339D01*
X100218268Y-94121761D01*
X100170777Y-94022913D01*
X100151745Y-93980853D01*
X100003921Y-93722671D01*
X99817791Y-93488216D01*
X99608159Y-93296604D01*
X99582007Y-93276971D01*
X99432841Y-93173437D01*
X99290932Y-93093970D01*
X99138884Y-93031195D01*
X98959302Y-92977734D01*
X98734791Y-92926210D01*
X98648769Y-92908168D01*
X98648769Y-91758335D01*
X98648771Y-91706568D01*
X98648693Y-91406077D01*
X98647806Y-91160897D01*
X98645207Y-90964751D01*
X98639990Y-90811359D01*
X98631253Y-90694443D01*
X98618091Y-90607724D01*
X98599600Y-90544923D01*
X98574877Y-90499762D01*
X98543017Y-90465962D01*
X98503117Y-90437243D01*
X98454273Y-90407328D01*
X98448784Y-90403984D01*
X98393228Y-90366787D01*
X98387010Y-90346484D01*
X98425269Y-90330134D01*
X98435148Y-90326305D01*
X98500924Y-90282373D01*
X98569193Y-90215140D01*
X98648769Y-90120570D01*
X98648451Y-89004681D01*
X98648257Y-88325715D01*
X99806158Y-88325715D01*
X99806158Y-90742661D01*
X99806172Y-90825816D01*
X99806591Y-91204906D01*
X99807562Y-91564283D01*
X99809038Y-91899186D01*
X99810972Y-92204854D01*
X99813319Y-92476526D01*
X99816031Y-92709442D01*
X99819064Y-92898839D01*
X99822370Y-93039958D01*
X99825904Y-93128038D01*
X99829618Y-93158317D01*
X99837280Y-93156520D01*
X99893178Y-93137587D01*
X99991896Y-93101488D01*
X100122300Y-93052525D01*
X100273256Y-92995001D01*
X100433627Y-92933219D01*
X100592280Y-92871483D01*
X100738079Y-92814095D01*
X100859890Y-92765359D01*
X100946578Y-92729576D01*
X100987008Y-92711051D01*
X100990717Y-92706017D01*
X100997785Y-92676905D01*
X101003917Y-92619819D01*
X101009167Y-92531303D01*
X101013591Y-92407895D01*
X101017246Y-92246139D01*
X101020185Y-92042575D01*
X101022466Y-91793744D01*
X101024143Y-91496189D01*
X101025272Y-91146448D01*
X101025909Y-90741065D01*
X101026109Y-90276581D01*
X101026025Y-89957882D01*
X101025567Y-89537084D01*
X101024661Y-89173045D01*
X101023249Y-88862306D01*
X101021277Y-88601408D01*
X101018686Y-88386890D01*
X101015421Y-88215294D01*
X101011426Y-88083158D01*
X101006643Y-87987024D01*
X101001017Y-87923432D01*
X100994491Y-87888922D01*
X100987008Y-87880035D01*
X100985565Y-87880544D01*
X100940277Y-87897308D01*
X100847087Y-87932251D01*
X100715688Y-87981723D01*
X100555773Y-88042077D01*
X100377032Y-88109662D01*
X99806158Y-88325715D01*
X98648257Y-88325715D01*
X98648132Y-87888793D01*
X98526089Y-87837554D01*
X98468717Y-87806759D01*
X98355574Y-87703822D01*
X98268740Y-87567116D01*
X98222276Y-87416146D01*
X98204945Y-87294458D01*
X98268779Y-87394125D01*
X98309625Y-87450212D01*
X98411217Y-87533444D01*
X98531146Y-87560345D01*
X98554605Y-87555752D01*
X98634296Y-87531460D01*
X98759945Y-87488657D01*
X98924084Y-87430029D01*
X99119246Y-87358257D01*
X99337963Y-87276026D01*
X99572768Y-87186019D01*
X99733039Y-87124415D01*
X99952652Y-87041409D01*
X100148726Y-86968953D01*
X100314327Y-86909520D01*
X100442518Y-86865586D01*
X100526368Y-86839624D01*
X100558940Y-86834110D01*
X100572918Y-86858779D01*
X100605230Y-86928909D01*
X100644964Y-87023673D01*
X100708610Y-87159584D01*
X100871515Y-87405853D01*
X101080467Y-87628330D01*
X101325235Y-87818382D01*
X101595586Y-87967378D01*
X101881287Y-88066684D01*
X102152217Y-88133569D01*
X102152217Y-89072672D01*
X102152335Y-89271313D01*
X102153108Y-89500726D01*
X102154985Y-89680504D01*
X102158400Y-89818187D01*
X102163790Y-89921309D01*
X102171589Y-89997410D01*
X102182233Y-90054026D01*
X102196156Y-90098695D01*
X102213795Y-90138954D01*
X102228947Y-90167384D01*
X102292764Y-90256477D01*
X102314910Y-90276581D01*
X102359820Y-90317351D01*
G37*
G36*
X106870320Y-84730453D02*
G01*
X106969368Y-84884541D01*
X107057111Y-85024926D01*
X107126465Y-85140053D01*
X107172035Y-85220963D01*
X107188424Y-85258694D01*
X107186943Y-85271800D01*
X107149915Y-85329408D01*
X107060202Y-85396955D01*
X106913925Y-85477535D01*
X106748908Y-85560232D01*
X106757521Y-87820738D01*
X106758918Y-88176004D01*
X106760615Y-88559928D01*
X106762402Y-88889269D01*
X106764402Y-89168429D01*
X106766739Y-89401809D01*
X106769535Y-89593810D01*
X106772914Y-89748835D01*
X106776999Y-89871284D01*
X106781913Y-89965558D01*
X106787780Y-90036060D01*
X106794722Y-90087191D01*
X106802864Y-90123352D01*
X106812327Y-90148945D01*
X106823236Y-90168371D01*
X106889347Y-90239621D01*
X106977312Y-90296273D01*
X107074287Y-90337048D01*
X106978155Y-90386759D01*
X106968450Y-90392167D01*
X106885667Y-90465946D01*
X106816258Y-90572324D01*
X106810964Y-90583389D01*
X106796327Y-90617231D01*
X106784264Y-90654771D01*
X106774526Y-90701895D01*
X106766864Y-90764488D01*
X106761030Y-90848438D01*
X106756775Y-90959631D01*
X106753851Y-91103953D01*
X106752009Y-91287291D01*
X106751001Y-91515531D01*
X106750579Y-91794560D01*
X106750493Y-92130264D01*
X106750493Y-93552352D01*
X106393146Y-93887752D01*
X106319334Y-93956725D01*
X106204889Y-94062344D01*
X106111543Y-94146818D01*
X106047401Y-94202853D01*
X106020567Y-94223153D01*
X106009956Y-94212862D01*
X105977679Y-94160453D01*
X105935336Y-94078555D01*
X105909614Y-94035136D01*
X105835729Y-93935515D01*
X105726926Y-93804954D01*
X105589560Y-93650968D01*
X105429988Y-93481072D01*
X105338515Y-93385389D01*
X105191323Y-93228087D01*
X105089003Y-93113211D01*
X105031231Y-93040327D01*
X105017680Y-93008998D01*
X105048024Y-93018790D01*
X105121938Y-93069265D01*
X105136164Y-93079260D01*
X105265127Y-93132397D01*
X105399981Y-93131575D01*
X105522523Y-93076467D01*
X105608744Y-93012096D01*
X105616745Y-90426984D01*
X105617411Y-90202072D01*
X105618409Y-89815832D01*
X105619171Y-89450702D01*
X105619696Y-89111288D01*
X105619984Y-88802195D01*
X105620036Y-88528028D01*
X105619851Y-88293395D01*
X105619430Y-88102900D01*
X105618771Y-87961149D01*
X105617877Y-87872748D01*
X105616745Y-87842302D01*
X105614569Y-87842943D01*
X105571909Y-87858528D01*
X105481743Y-87892440D01*
X105352892Y-87941333D01*
X105194174Y-88001865D01*
X105014409Y-88070691D01*
X104420074Y-88298651D01*
X104420074Y-91065397D01*
X104420076Y-91159169D01*
X104420162Y-91629409D01*
X104420437Y-92041948D01*
X104420980Y-92400886D01*
X104421871Y-92710323D01*
X104423188Y-92974361D01*
X104425011Y-93197098D01*
X104427419Y-93382637D01*
X104430493Y-93535076D01*
X104434311Y-93658518D01*
X104438953Y-93757061D01*
X104444498Y-93834807D01*
X104451026Y-93895857D01*
X104458616Y-93944310D01*
X104467347Y-93984266D01*
X104477299Y-94019828D01*
X104479568Y-94027218D01*
X104586345Y-94298488D01*
X104724714Y-94529442D01*
X104889861Y-94713463D01*
X105076971Y-94843935D01*
X105089154Y-94850289D01*
X105151152Y-94886826D01*
X105161601Y-94904656D01*
X105118458Y-94903800D01*
X105019678Y-94884277D01*
X104863217Y-94846111D01*
X104807718Y-94831063D01*
X104531001Y-94733044D01*
X104259728Y-94602528D01*
X104022318Y-94452806D01*
X103933958Y-94383765D01*
X103720882Y-94179631D01*
X103538739Y-93950017D01*
X103397432Y-93708543D01*
X103306865Y-93468827D01*
X103301429Y-93439775D01*
X103291398Y-93336186D01*
X103282275Y-93172158D01*
X103274105Y-92949096D01*
X103266938Y-92668403D01*
X103260818Y-92331482D01*
X103255793Y-91939738D01*
X103240961Y-90547826D01*
X103121593Y-90434274D01*
X103002224Y-90320722D01*
X103080382Y-90278893D01*
X103103994Y-90265825D01*
X103141700Y-90240281D01*
X103172126Y-90207823D01*
X103196053Y-90162267D01*
X103214260Y-90097431D01*
X103227526Y-90007132D01*
X103236632Y-89885187D01*
X103242357Y-89725413D01*
X103245481Y-89521626D01*
X103246784Y-89267644D01*
X103247045Y-88957285D01*
X103247045Y-87848654D01*
X103173925Y-87830303D01*
X103119891Y-87810582D01*
X103004959Y-87730087D01*
X102906112Y-87613135D01*
X102836661Y-87477606D01*
X102809917Y-87341380D01*
X102809881Y-87322984D01*
X102813964Y-87289316D01*
X102831552Y-87302332D01*
X102871806Y-87365620D01*
X102909001Y-87416199D01*
X103021166Y-87499638D01*
X103158711Y-87529064D01*
X103173034Y-87525830D01*
X103239861Y-87504249D01*
X103351896Y-87465129D01*
X103500604Y-87411667D01*
X103677446Y-87347061D01*
X103873888Y-87274509D01*
X104081392Y-87197210D01*
X104291423Y-87118361D01*
X104495444Y-87041160D01*
X104684917Y-86968806D01*
X104851308Y-86904497D01*
X104986080Y-86851430D01*
X105080695Y-86812803D01*
X105126619Y-86791815D01*
X105135681Y-86797712D01*
X105169171Y-86845692D01*
X105219060Y-86931646D01*
X105278341Y-87043934D01*
X105302706Y-87090684D01*
X105378347Y-87223751D01*
X105454108Y-87342539D01*
X105516739Y-87425821D01*
X105621780Y-87544705D01*
X105623082Y-86369738D01*
X105624385Y-85194770D01*
X105533632Y-85127674D01*
X105451929Y-85054981D01*
X105377887Y-84969304D01*
X105312894Y-84878031D01*
X105445179Y-84892612D01*
X105546658Y-84893252D01*
X105736010Y-84847910D01*
X105945877Y-84744390D01*
X106175613Y-84583041D01*
X106424569Y-84364213D01*
X106552217Y-84241951D01*
X106870320Y-84730453D01*
G37*
G36*
X109763539Y-86855282D02*
G01*
X109775467Y-86867171D01*
X109794276Y-86919485D01*
X109901787Y-87152708D01*
X110045770Y-87367745D01*
X110237938Y-87582717D01*
X110271095Y-87615559D01*
X110468115Y-87789006D01*
X110662839Y-87917001D01*
X110874076Y-88010116D01*
X111120630Y-88078923D01*
X111348769Y-88129679D01*
X111348769Y-89049322D01*
X111348769Y-89968966D01*
X111256100Y-89968966D01*
X111200905Y-89975114D01*
X111096192Y-89999509D01*
X110982393Y-90036130D01*
X110942439Y-90051856D01*
X110822839Y-90104292D01*
X110668686Y-90176788D01*
X110489068Y-90264612D01*
X110293070Y-90363031D01*
X110089779Y-90467314D01*
X109888279Y-90572728D01*
X109697658Y-90674539D01*
X109527001Y-90768017D01*
X109385394Y-90848428D01*
X109281924Y-90911040D01*
X109225676Y-90951120D01*
X109178658Y-90995519D01*
X109128365Y-91049931D01*
X109088778Y-91107751D01*
X109058611Y-91176372D01*
X109036577Y-91263189D01*
X109021391Y-91375596D01*
X109011765Y-91520987D01*
X109006416Y-91706755D01*
X109004055Y-91940296D01*
X109003397Y-92229003D01*
X109003435Y-92309926D01*
X109004640Y-92537559D01*
X109007318Y-92741022D01*
X109011261Y-92912636D01*
X109016260Y-93044723D01*
X109022108Y-93129606D01*
X109028597Y-93159606D01*
X109062757Y-93150843D01*
X109139645Y-93124123D01*
X109239743Y-93085711D01*
X109341415Y-93045560D01*
X109483366Y-92990049D01*
X109646166Y-92926758D01*
X109810964Y-92863036D01*
X110196928Y-92714258D01*
X110186333Y-92100171D01*
X110183802Y-91975264D01*
X110175936Y-91753039D01*
X110162814Y-91581084D01*
X110142198Y-91451073D01*
X110111852Y-91354682D01*
X110069535Y-91283583D01*
X110013012Y-91229452D01*
X109940042Y-91183962D01*
X109916953Y-91170884D01*
X109878263Y-91139044D01*
X109893294Y-91125413D01*
X109957025Y-91131075D01*
X110064435Y-91157113D01*
X110106370Y-91171951D01*
X110179720Y-91212542D01*
X110261709Y-91278131D01*
X110359226Y-91375225D01*
X110479159Y-91510333D01*
X110628397Y-91689962D01*
X110700382Y-91776825D01*
X110837233Y-91929228D01*
X110957196Y-92039652D01*
X111070983Y-92115923D01*
X111189305Y-92165865D01*
X111322874Y-92197305D01*
X111521496Y-92231327D01*
X111435132Y-92317691D01*
X111402687Y-92351763D01*
X111376838Y-92389615D01*
X111360936Y-92438398D01*
X111352567Y-92511019D01*
X111349316Y-92620385D01*
X111348769Y-92779405D01*
X111348769Y-93154754D01*
X111457228Y-93190549D01*
X111519239Y-93216920D01*
X111644671Y-93317091D01*
X111738906Y-93466623D01*
X111798013Y-93660099D01*
X111818630Y-93769582D01*
X111757418Y-93669915D01*
X111745905Y-93651820D01*
X111660319Y-93557182D01*
X111554861Y-93513355D01*
X111414168Y-93513330D01*
X111360120Y-93527007D01*
X111258418Y-93559392D01*
X111118003Y-93607184D01*
X110947758Y-93667093D01*
X110756566Y-93735825D01*
X110553310Y-93810089D01*
X110346874Y-93886592D01*
X110146140Y-93962043D01*
X109959992Y-94033150D01*
X109797313Y-94096620D01*
X109666985Y-94149162D01*
X109577892Y-94187484D01*
X109538917Y-94208293D01*
X109538553Y-94208654D01*
X109502900Y-94222731D01*
X109462224Y-94192976D01*
X109412061Y-94114070D01*
X109347948Y-93980693D01*
X109347206Y-93979034D01*
X109282867Y-93848769D01*
X109210683Y-93735656D01*
X109117008Y-93620923D01*
X108988195Y-93485796D01*
X108870193Y-93374579D01*
X108613104Y-93181638D01*
X108343833Y-93046305D01*
X108056466Y-92965277D01*
X107845320Y-92926373D01*
X107845320Y-91951806D01*
X107845320Y-90977239D01*
X108056466Y-90954786D01*
X108341123Y-90909002D01*
X108668648Y-90821813D01*
X109022383Y-90693565D01*
X109407469Y-90522375D01*
X109829044Y-90306364D01*
X109863958Y-90287659D01*
X109951319Y-90241338D01*
X110021715Y-90200251D01*
X110076915Y-90157620D01*
X110118691Y-90106665D01*
X110148813Y-90040608D01*
X110169053Y-89952669D01*
X110181180Y-89836068D01*
X110186965Y-89684028D01*
X110188180Y-89489767D01*
X110186594Y-89246508D01*
X110183979Y-88947471D01*
X110175739Y-87879459D01*
X109597045Y-88105471D01*
X109018350Y-88331483D01*
X109021385Y-88813956D01*
X109022435Y-88915622D01*
X109028984Y-89125577D01*
X109042978Y-89286012D01*
X109066672Y-89406096D01*
X109102319Y-89494996D01*
X109152171Y-89561879D01*
X109218481Y-89615913D01*
X109324769Y-89687439D01*
X109240695Y-89687439D01*
X109169530Y-89679796D01*
X109063043Y-89638642D01*
X108947764Y-89557336D01*
X108816932Y-89430798D01*
X108663786Y-89253946D01*
X108556390Y-89126204D01*
X108446791Y-89002292D01*
X108350255Y-88899307D01*
X108279608Y-88831355D01*
X108267731Y-88821409D01*
X108107811Y-88718321D01*
X107929631Y-88649160D01*
X107758238Y-88623892D01*
X107651020Y-88623892D01*
X107748170Y-88533140D01*
X107752758Y-88528848D01*
X107797097Y-88483978D01*
X107824392Y-88440398D01*
X107838773Y-88382144D01*
X107844372Y-88293256D01*
X107845320Y-88157770D01*
X107844708Y-88046312D01*
X107840821Y-87952824D01*
X107831084Y-87900682D01*
X107812944Y-87878065D01*
X107783847Y-87873153D01*
X107742580Y-87866178D01*
X107651768Y-87814534D01*
X107561431Y-87725274D01*
X107483180Y-87613575D01*
X107428624Y-87494616D01*
X107409372Y-87383573D01*
X107411439Y-87335139D01*
X107419184Y-87320707D01*
X107438047Y-87360520D01*
X107443185Y-87372424D01*
X107521841Y-87475157D01*
X107636102Y-87538608D01*
X107767118Y-87551820D01*
X107788972Y-87547434D01*
X107873596Y-87522679D01*
X108004317Y-87479214D01*
X108172973Y-87419937D01*
X108371399Y-87347748D01*
X108591432Y-87265544D01*
X108824910Y-87176224D01*
X108895711Y-87148847D01*
X109143818Y-87053502D01*
X109341002Y-86979064D01*
X109492989Y-86923669D01*
X109605509Y-86885456D01*
X109684288Y-86862562D01*
X109735056Y-86853125D01*
X109763539Y-86855282D01*
G37*
G36*
X97565609Y-88861412D02*
G01*
X97567629Y-89144816D01*
X97569974Y-89381994D01*
X97572765Y-89577339D01*
X97576126Y-89735243D01*
X97580177Y-89860101D01*
X97585042Y-89956306D01*
X97590842Y-90028251D01*
X97597700Y-90080329D01*
X97605738Y-90116935D01*
X97615078Y-90142460D01*
X97625843Y-90161300D01*
X97692373Y-90232180D01*
X97778996Y-90291077D01*
X97875887Y-90338003D01*
X97777770Y-90388741D01*
X97744582Y-90405772D01*
X97703500Y-90428787D01*
X97669376Y-90455029D01*
X97641497Y-90489892D01*
X97619150Y-90538768D01*
X97601622Y-90607052D01*
X97588199Y-90700138D01*
X97578168Y-90823417D01*
X97570817Y-90982285D01*
X97565432Y-91182134D01*
X97561300Y-91428358D01*
X97557707Y-91726350D01*
X97553941Y-92081504D01*
X97538301Y-93555646D01*
X97189961Y-93889400D01*
X97121863Y-93954345D01*
X97008733Y-94060791D01*
X96916160Y-94146033D01*
X96852273Y-94202633D01*
X96825202Y-94223153D01*
X96813492Y-94211904D01*
X96780212Y-94158251D01*
X96737200Y-94075281D01*
X96721674Y-94047347D01*
X96653463Y-93950968D01*
X96547975Y-93822140D01*
X96411308Y-93668102D01*
X96249557Y-93496097D01*
X96240760Y-93486971D01*
X96112076Y-93351864D01*
X96000284Y-93231599D01*
X95912108Y-93133635D01*
X95854271Y-93065433D01*
X95833498Y-93034453D01*
X95835771Y-93029466D01*
X95870948Y-93033816D01*
X95935160Y-93066107D01*
X95958571Y-93079331D01*
X96094314Y-93122491D01*
X96229872Y-93117169D01*
X96345412Y-93063493D01*
X96427833Y-92998661D01*
X96427833Y-91589950D01*
X96427579Y-91283378D01*
X96426597Y-90988763D01*
X96424757Y-90748362D01*
X96421936Y-90557727D01*
X96418007Y-90412412D01*
X96412847Y-90307973D01*
X96406331Y-90239962D01*
X96398334Y-90203934D01*
X96388732Y-90195442D01*
X96387191Y-90196006D01*
X96341611Y-90213034D01*
X96248146Y-90248150D01*
X96116480Y-90297709D01*
X95956298Y-90358065D01*
X95777284Y-90425575D01*
X95204938Y-90641503D01*
X95216844Y-92236823D01*
X95216883Y-92242113D01*
X95219730Y-92614459D01*
X95222651Y-92930188D01*
X95226231Y-93195165D01*
X95231056Y-93415255D01*
X95237711Y-93596322D01*
X95246781Y-93744233D01*
X95258851Y-93864852D01*
X95274506Y-93964044D01*
X95294330Y-94047675D01*
X95318910Y-94121609D01*
X95348830Y-94191711D01*
X95384675Y-94263848D01*
X95427030Y-94343883D01*
X95499060Y-94465936D01*
X95659960Y-94663722D01*
X95852627Y-94811604D01*
X96083744Y-94915397D01*
X96111033Y-94925127D01*
X96126824Y-94935558D01*
X96096774Y-94934680D01*
X96031044Y-94924401D01*
X95939794Y-94906626D01*
X95833185Y-94883260D01*
X95721378Y-94856210D01*
X95614532Y-94827382D01*
X95460009Y-94778447D01*
X95141260Y-94642045D01*
X94858177Y-94464766D01*
X94597251Y-94238793D01*
X94518236Y-94156772D01*
X94409933Y-94033645D01*
X94319757Y-93918998D01*
X94261634Y-93829801D01*
X94241281Y-93790966D01*
X94205639Y-93718970D01*
X94175741Y-93648561D01*
X94151083Y-93573908D01*
X94131160Y-93489177D01*
X94115469Y-93388539D01*
X94103505Y-93266162D01*
X94094765Y-93116213D01*
X94088744Y-92932861D01*
X94084938Y-92710274D01*
X94082844Y-92442621D01*
X94081957Y-92124070D01*
X94081774Y-91748790D01*
X94081774Y-90194713D01*
X94000314Y-90174268D01*
X93933603Y-90151040D01*
X93845402Y-90105696D01*
X93804346Y-90068116D01*
X93738162Y-89976520D01*
X93676268Y-89862427D01*
X93630496Y-89748608D01*
X93612679Y-89657836D01*
X93612828Y-89636121D01*
X93617353Y-89603369D01*
X93635270Y-89617330D01*
X93675925Y-89681501D01*
X93702978Y-89719221D01*
X93799253Y-89802284D01*
X93913026Y-89851024D01*
X94022104Y-89854359D01*
X94049909Y-89845743D01*
X94133688Y-89815873D01*
X94260447Y-89768585D01*
X94421171Y-89707295D01*
X94606848Y-89635418D01*
X94808461Y-89556371D01*
X95519508Y-89275868D01*
X94862747Y-88629252D01*
X94791990Y-88559588D01*
X95151005Y-88559588D01*
X95178963Y-88657165D01*
X95254831Y-88764498D01*
X95377141Y-88889779D01*
X95435658Y-88945046D01*
X95560072Y-89062557D01*
X95707835Y-89202126D01*
X95865197Y-89350765D01*
X96018409Y-89495488D01*
X96427833Y-89882232D01*
X96427833Y-89209945D01*
X96427833Y-88537658D01*
X96263609Y-88410454D01*
X96165622Y-88329660D01*
X96042069Y-88219199D01*
X95930514Y-88111614D01*
X95761643Y-87939977D01*
X95513595Y-88128800D01*
X95369278Y-88243497D01*
X95244694Y-88360944D01*
X95172426Y-88463578D01*
X95151005Y-88559588D01*
X94791990Y-88559588D01*
X94205987Y-87982636D01*
X94206442Y-87824924D01*
X94208605Y-87753071D01*
X94223753Y-87680878D01*
X94263606Y-87618385D01*
X94339840Y-87540714D01*
X94345116Y-87535711D01*
X94432413Y-87455902D01*
X94544176Y-87357695D01*
X94671444Y-87248518D01*
X94805253Y-87135800D01*
X94936643Y-87026968D01*
X95056651Y-86929452D01*
X95156314Y-86850678D01*
X95226672Y-86798075D01*
X95258761Y-86779072D01*
X95274472Y-86792052D01*
X95317775Y-86849015D01*
X95378575Y-86940861D01*
X95448997Y-87056122D01*
X95491796Y-87126812D01*
X95594026Y-87285236D01*
X95710123Y-87454360D01*
X95833999Y-87626351D01*
X95959569Y-87793376D01*
X96080745Y-87947599D01*
X96191440Y-88081187D01*
X96285568Y-88186307D01*
X96357041Y-88255123D01*
X96399773Y-88279803D01*
X96405197Y-88254297D01*
X96410652Y-88171074D01*
X96415519Y-88034945D01*
X96419707Y-87850957D01*
X96423125Y-87624153D01*
X96425679Y-87359577D01*
X96427279Y-87062274D01*
X96427833Y-86737287D01*
X96427833Y-85194770D01*
X96337080Y-85127674D01*
X96255707Y-85055627D01*
X96184115Y-84973208D01*
X96121902Y-84885838D01*
X96298986Y-84885838D01*
X96445274Y-84869724D01*
X96656394Y-84795569D01*
X96881058Y-84660995D01*
X97119713Y-84465776D01*
X97358022Y-84247032D01*
X97692913Y-84749628D01*
X98027804Y-85252225D01*
X97961683Y-85322607D01*
X97919018Y-85359427D01*
X97828626Y-85420796D01*
X97723775Y-85479905D01*
X97551989Y-85566821D01*
X97560785Y-87822635D01*
X97562052Y-88138348D01*
X97563790Y-88527387D01*
X97563846Y-88537658D01*
X97565609Y-88861412D01*
G37*
G36*
X92875233Y-91236781D02*
G01*
X93013194Y-91251905D01*
X93078377Y-91256057D01*
X93166251Y-91271047D01*
X93202011Y-91282746D01*
X93213362Y-91301974D01*
X93190652Y-91340868D01*
X93130402Y-91413215D01*
X93090767Y-91462844D01*
X93046432Y-91533612D01*
X93012801Y-91614924D01*
X92988458Y-91715444D01*
X92971989Y-91843833D01*
X92961977Y-92008756D01*
X92957007Y-92218876D01*
X92955665Y-92482855D01*
X92955665Y-93154754D01*
X93063584Y-93190371D01*
X93116989Y-93213829D01*
X93232840Y-93301820D01*
X93330347Y-93423043D01*
X93391715Y-93557581D01*
X93417421Y-93663854D01*
X93421950Y-93722037D01*
X93403977Y-93724556D01*
X93363872Y-93669915D01*
X93351420Y-93650263D01*
X93266327Y-93556400D01*
X93161301Y-93513361D01*
X93021065Y-93514209D01*
X93009081Y-93516266D01*
X92929792Y-93537771D01*
X92803439Y-93578656D01*
X92638733Y-93635841D01*
X92444385Y-93706250D01*
X92229104Y-93786805D01*
X92001601Y-93874428D01*
X91923968Y-93904714D01*
X91708084Y-93988463D01*
X91512885Y-94063512D01*
X91345877Y-94127019D01*
X91214567Y-94176144D01*
X91126460Y-94208043D01*
X91089064Y-94219876D01*
X91080815Y-94218082D01*
X91047155Y-94179483D01*
X91015211Y-94105850D01*
X90952237Y-93952266D01*
X90844247Y-93765029D01*
X90715907Y-93598134D01*
X90610448Y-93481404D01*
X90244142Y-93852279D01*
X90153239Y-93943732D01*
X90041111Y-94054764D01*
X89949881Y-94143015D01*
X89887153Y-94201159D01*
X89860531Y-94221871D01*
X89846101Y-94206173D01*
X89811449Y-94147213D01*
X89767652Y-94059710D01*
X89766891Y-94058100D01*
X89707548Y-93960463D01*
X89606604Y-93830883D01*
X89461854Y-93666719D01*
X89271092Y-93465331D01*
X89185938Y-93377051D01*
X89043033Y-93225035D01*
X88942916Y-93112331D01*
X88886123Y-93039669D01*
X88873191Y-93007783D01*
X88904655Y-93017405D01*
X88981051Y-93069265D01*
X89107100Y-93128369D01*
X89243547Y-93134791D01*
X89369958Y-93086939D01*
X89452217Y-93033041D01*
X89452217Y-91840964D01*
X89452216Y-91800898D01*
X89452032Y-91502530D01*
X89451327Y-91259598D01*
X89449797Y-91065744D01*
X89447136Y-90914611D01*
X89443042Y-90799840D01*
X89437210Y-90715075D01*
X89429337Y-90653956D01*
X89419117Y-90610126D01*
X89406247Y-90577228D01*
X89390424Y-90548903D01*
X89385933Y-90541873D01*
X89318633Y-90463835D01*
X89244299Y-90410496D01*
X89159967Y-90372071D01*
X89255520Y-90313962D01*
X89255959Y-90313695D01*
X89305843Y-90283104D01*
X89346471Y-90253744D01*
X89378791Y-90219234D01*
X89378803Y-90219212D01*
X90609606Y-90219212D01*
X90609606Y-91689409D01*
X90610058Y-91976221D01*
X90611412Y-92253465D01*
X90613573Y-92504762D01*
X90616444Y-92724008D01*
X90619926Y-92905102D01*
X90623922Y-93041942D01*
X90628335Y-93128424D01*
X90633067Y-93158448D01*
X90648713Y-93154419D01*
X90713683Y-93132178D01*
X90814779Y-93094931D01*
X90938054Y-93047740D01*
X90973786Y-93033844D01*
X91149255Y-92965753D01*
X91339406Y-92892148D01*
X91508929Y-92826701D01*
X91798276Y-92715211D01*
X91798276Y-91971326D01*
X91798276Y-91227442D01*
X91672877Y-90976901D01*
X91573769Y-90807811D01*
X91422488Y-90616420D01*
X91249847Y-90454176D01*
X91065698Y-90328767D01*
X90879891Y-90247882D01*
X90702275Y-90219212D01*
X90609606Y-90219212D01*
X89378803Y-90219212D01*
X89403754Y-90173197D01*
X89422308Y-90109252D01*
X89435402Y-90021021D01*
X89443987Y-89902125D01*
X89449012Y-89746183D01*
X89451425Y-89546819D01*
X89452177Y-89297651D01*
X89452217Y-88992301D01*
X89452217Y-88984577D01*
X89452099Y-88692024D01*
X89451534Y-88455859D01*
X89450199Y-88270056D01*
X89447769Y-88128585D01*
X89443921Y-88025418D01*
X89438330Y-87954527D01*
X89430671Y-87909883D01*
X89420622Y-87885459D01*
X89407858Y-87875225D01*
X89392055Y-87873153D01*
X89349093Y-87865257D01*
X89259785Y-87812162D01*
X89170389Y-87721732D01*
X89092235Y-87608910D01*
X89036653Y-87488637D01*
X89014973Y-87375855D01*
X89014986Y-87357850D01*
X89020294Y-87328167D01*
X89040755Y-87343109D01*
X89085635Y-87406722D01*
X89103573Y-87431823D01*
X89200680Y-87521299D01*
X89318176Y-87555154D01*
X89464984Y-87536441D01*
X89476867Y-87532997D01*
X89554785Y-87506861D01*
X89679957Y-87461975D01*
X89843738Y-87401550D01*
X90037488Y-87328797D01*
X90252564Y-87246928D01*
X90480323Y-87159154D01*
X91359223Y-86818360D01*
X91489338Y-87087690D01*
X91539016Y-87185499D01*
X91623788Y-87325159D01*
X91725346Y-87455093D01*
X91860595Y-87598564D01*
X92033361Y-87756448D01*
X92239783Y-87900045D01*
X92463435Y-88003657D01*
X92723768Y-88078087D01*
X92948148Y-88128007D01*
X92963096Y-88283569D01*
X92966053Y-88310066D01*
X92997726Y-88432996D01*
X93062204Y-88526976D01*
X93146364Y-88614821D01*
X92990592Y-88633269D01*
X92946475Y-88639038D01*
X92856217Y-88656523D01*
X92773331Y-88684554D01*
X92691028Y-88728478D01*
X92602521Y-88793643D01*
X92501020Y-88885397D01*
X92379737Y-89009088D01*
X92231882Y-89170062D01*
X92050668Y-89373668D01*
X91912585Y-89517508D01*
X91787803Y-89616470D01*
X91672283Y-89670523D01*
X91556855Y-89685456D01*
X91513964Y-89683616D01*
X91495963Y-89675987D01*
X91532389Y-89657596D01*
X91614023Y-89605182D01*
X91704417Y-89496843D01*
X91766346Y-89358990D01*
X91770039Y-89343354D01*
X91781859Y-89257449D01*
X91793590Y-89123887D01*
X91804477Y-88953941D01*
X91813761Y-88758888D01*
X91820684Y-88550000D01*
X91825441Y-88361378D01*
X91829167Y-88184117D01*
X91830227Y-88055735D01*
X91828157Y-87968754D01*
X91822488Y-87915694D01*
X91812756Y-87889077D01*
X91798494Y-87881426D01*
X91779235Y-87885261D01*
X91733785Y-87901841D01*
X91639839Y-87937614D01*
X91508122Y-87988466D01*
X91348955Y-88050410D01*
X91172660Y-88119461D01*
X90625247Y-88334533D01*
X90616936Y-89176292D01*
X90608625Y-90018051D01*
X90788980Y-90025039D01*
X90893564Y-90035934D01*
X91025170Y-90070776D01*
X91166598Y-90133394D01*
X91326113Y-90228231D01*
X91511980Y-90359732D01*
X91732466Y-90532340D01*
X91870365Y-90642484D01*
X92130229Y-90839985D01*
X92355583Y-90995320D01*
X92551492Y-91111334D01*
X92723020Y-91190873D01*
X92844269Y-91227442D01*
X92875233Y-91236781D01*
G37*
G36*
X121311700Y-88375021D02*
G01*
X121311586Y-88724317D01*
X121311628Y-89052152D01*
X121312526Y-89327033D01*
X121314982Y-89553985D01*
X121319698Y-89738033D01*
X121327377Y-89884202D01*
X121338721Y-89997517D01*
X121354432Y-90083003D01*
X121375212Y-90145684D01*
X121401763Y-90190585D01*
X121434789Y-90222732D01*
X121474990Y-90247148D01*
X121523070Y-90268859D01*
X121579730Y-90292889D01*
X121639415Y-90320346D01*
X121706439Y-90355454D01*
X121732516Y-90375616D01*
X121720306Y-90387087D01*
X121664839Y-90418303D01*
X121579730Y-90458343D01*
X121553217Y-90470053D01*
X121482361Y-90504177D01*
X121426903Y-90540898D01*
X121384844Y-90587711D01*
X121354189Y-90652112D01*
X121332938Y-90741595D01*
X121324245Y-90818236D01*
X121319094Y-90863655D01*
X121310660Y-91025789D01*
X121305638Y-91235491D01*
X121302029Y-91500256D01*
X121292358Y-92299384D01*
X121739960Y-92300656D01*
X121877468Y-92301544D01*
X122026805Y-92305293D01*
X122141126Y-92313790D01*
X122236469Y-92329051D01*
X122328872Y-92353092D01*
X122434372Y-92387929D01*
X122607226Y-92453489D01*
X122802112Y-92548177D01*
X122967863Y-92659575D01*
X123123703Y-92799152D01*
X123237209Y-92928735D01*
X123393334Y-93175064D01*
X123510908Y-93455348D01*
X123585040Y-93756856D01*
X123610838Y-94066856D01*
X123609541Y-94129152D01*
X123569956Y-94406330D01*
X123477635Y-94656718D01*
X123335956Y-94874828D01*
X123148296Y-95055174D01*
X122918033Y-95192271D01*
X122877084Y-95209622D01*
X122784818Y-95240749D01*
X122719335Y-95252262D01*
X122705881Y-95248573D01*
X122725080Y-95230660D01*
X122790239Y-95203248D01*
X122818006Y-95192440D01*
X122968359Y-95105006D01*
X123116719Y-94977015D01*
X123246449Y-94824744D01*
X123340915Y-94664467D01*
X123394927Y-94515724D01*
X123441776Y-94273427D01*
X123447034Y-94026816D01*
X123408838Y-93799612D01*
X123401210Y-93774777D01*
X123308832Y-93586186D01*
X123169204Y-93431673D01*
X122988413Y-93313564D01*
X122772546Y-93234187D01*
X122527693Y-93195869D01*
X122259939Y-93200936D01*
X121975373Y-93251715D01*
X121949946Y-93258620D01*
X121820999Y-93300256D01*
X121658474Y-93360059D01*
X121480612Y-93431090D01*
X121305652Y-93506413D01*
X121271715Y-93521645D01*
X120931908Y-93673762D01*
X120624895Y-93810483D01*
X120354125Y-93930301D01*
X120123045Y-94031712D01*
X119935104Y-94113208D01*
X119793749Y-94173285D01*
X119702430Y-94210435D01*
X119664594Y-94223153D01*
X119653905Y-94217590D01*
X119604064Y-94176814D01*
X119523053Y-94102937D01*
X119419220Y-94003680D01*
X119300912Y-93886763D01*
X119202157Y-93789414D01*
X118901033Y-93516334D01*
X118618865Y-93298925D01*
X118352634Y-93135254D01*
X118099321Y-93023386D01*
X117855905Y-92961388D01*
X117643699Y-92927974D01*
X117706162Y-92843488D01*
X117717994Y-92825800D01*
X117763352Y-92730194D01*
X117794896Y-92623036D01*
X117797757Y-92600398D01*
X117803248Y-92511874D01*
X117808316Y-92371763D01*
X117812827Y-92187379D01*
X117816641Y-91966037D01*
X117819621Y-91715053D01*
X117820212Y-91634668D01*
X118950002Y-91634668D01*
X118950020Y-91695939D01*
X118950651Y-91997795D01*
X118952118Y-92278581D01*
X118954331Y-92532368D01*
X118957201Y-92753231D01*
X118960638Y-92935241D01*
X118964554Y-93072472D01*
X118968858Y-93158996D01*
X118973461Y-93188886D01*
X118975327Y-93188512D01*
X119018656Y-93173814D01*
X119109577Y-93140326D01*
X119238863Y-93091528D01*
X119397285Y-93030899D01*
X119575616Y-92961915D01*
X120154311Y-92736946D01*
X120162423Y-91180912D01*
X120162721Y-91120233D01*
X120163658Y-90818236D01*
X120163638Y-90537212D01*
X120162722Y-90283101D01*
X120160969Y-90061844D01*
X120158439Y-89879383D01*
X120155191Y-89741657D01*
X120151286Y-89654609D01*
X120146782Y-89624179D01*
X120144300Y-89624546D01*
X120099099Y-89639121D01*
X120006555Y-89672456D01*
X119875833Y-89721146D01*
X119716099Y-89781784D01*
X119536517Y-89850964D01*
X118950004Y-90078448D01*
X118950002Y-91634668D01*
X117820212Y-91634668D01*
X117821630Y-91441740D01*
X117822530Y-91153413D01*
X117823892Y-89819757D01*
X117737870Y-89765189D01*
X117713623Y-89749462D01*
X117539189Y-89606676D01*
X117422738Y-89445727D01*
X117361158Y-89260825D01*
X117351336Y-89046182D01*
X117357426Y-88952340D01*
X117400058Y-89071882D01*
X117430311Y-89141556D01*
X117512706Y-89243142D01*
X117631630Y-89300410D01*
X117646533Y-89301860D01*
X117723430Y-89289885D01*
X117845804Y-89256691D01*
X118004987Y-89205186D01*
X118192312Y-89138276D01*
X118399111Y-89058872D01*
X118616716Y-88969882D01*
X118737004Y-88919162D01*
X118611903Y-88842600D01*
X118949257Y-88842600D01*
X119160605Y-88763048D01*
X119275139Y-88713844D01*
X119381684Y-88656918D01*
X119452252Y-88606566D01*
X119532551Y-88529635D01*
X119582194Y-88633738D01*
X119583501Y-88636414D01*
X119624066Y-88703197D01*
X119694258Y-88804258D01*
X119784570Y-88926353D01*
X119885492Y-89056236D01*
X119903457Y-89078737D01*
X119997150Y-89194464D01*
X120075386Y-89288456D01*
X120130430Y-89351562D01*
X120154549Y-89374631D01*
X120156121Y-89365836D01*
X120158938Y-89304398D01*
X120161547Y-89189147D01*
X120163898Y-89025787D01*
X120165939Y-88820017D01*
X120167616Y-88577539D01*
X120168879Y-88304054D01*
X120169674Y-88005264D01*
X120169951Y-87686870D01*
X120169951Y-85999109D01*
X119974446Y-86073501D01*
X119966725Y-86076438D01*
X119857185Y-86118091D01*
X119709321Y-86174288D01*
X119541550Y-86238029D01*
X119372291Y-86302316D01*
X118965641Y-86456739D01*
X118957449Y-87649669D01*
X118949257Y-88842600D01*
X118611903Y-88842600D01*
X118280448Y-88639749D01*
X117823892Y-88360337D01*
X117823892Y-87288197D01*
X117823892Y-86216058D01*
X117612747Y-86109061D01*
X117567235Y-86085118D01*
X117356363Y-85946134D01*
X117192406Y-85787164D01*
X117080570Y-85614205D01*
X117026058Y-85433251D01*
X117007505Y-85292488D01*
X117079430Y-85431391D01*
X117123485Y-85503003D01*
X117239200Y-85613307D01*
X117393075Y-85677413D01*
X117589286Y-85697502D01*
X117648664Y-85694843D01*
X117715582Y-85685631D01*
X117795490Y-85667483D01*
X117895901Y-85638009D01*
X118024327Y-85594816D01*
X118188283Y-85535515D01*
X118395280Y-85457713D01*
X118652833Y-85359021D01*
X118857105Y-85279399D01*
X119093021Y-85184698D01*
X119290947Y-85101910D01*
X119445646Y-85033297D01*
X119551879Y-84981125D01*
X119604408Y-84947659D01*
X119680121Y-84873754D01*
X119799260Y-85118591D01*
X119921836Y-85329870D01*
X120133963Y-85593551D01*
X120349525Y-85823673D01*
X120611647Y-85583873D01*
X120674806Y-85525914D01*
X120827533Y-85384767D01*
X120985094Y-85238083D01*
X121121899Y-85109645D01*
X121370030Y-84875216D01*
X121731875Y-85165739D01*
X121878440Y-85285667D01*
X122121674Y-85494293D01*
X122352657Y-85703860D01*
X122561647Y-85905155D01*
X122738897Y-86088965D01*
X122874662Y-86246079D01*
X122953854Y-86347313D01*
X123184586Y-86666136D01*
X123365143Y-86959443D01*
X123497942Y-87232783D01*
X123585403Y-87491707D01*
X123629944Y-87741764D01*
X123633983Y-87988504D01*
X123627889Y-88062371D01*
X123584585Y-88288083D01*
X123503754Y-88473689D01*
X123381252Y-88629699D01*
X123277212Y-88716967D01*
X123093966Y-88810581D01*
X122894245Y-88852380D01*
X122686630Y-88844077D01*
X122479705Y-88787381D01*
X122282051Y-88684006D01*
X122102252Y-88535662D01*
X121948889Y-88344061D01*
X121915656Y-88290189D01*
X121875112Y-88215266D01*
X121859407Y-88172016D01*
X121870005Y-88175008D01*
X121903321Y-88220089D01*
X121951410Y-88298935D01*
X122041424Y-88430152D01*
X122198847Y-88585204D01*
X122381061Y-88699565D01*
X122578384Y-88771188D01*
X122781138Y-88798027D01*
X122979643Y-88778036D01*
X123164218Y-88709168D01*
X123325185Y-88589377D01*
X123370932Y-88539216D01*
X123471183Y-88376703D01*
X123529434Y-88178738D01*
X123548276Y-87937758D01*
X123538094Y-87765187D01*
X123474716Y-87469186D01*
X123352762Y-87165086D01*
X123171578Y-86851649D01*
X122930514Y-86527637D01*
X122628917Y-86191811D01*
X122532472Y-86093168D01*
X122442277Y-86004997D01*
X122376361Y-85949236D01*
X122324384Y-85918574D01*
X122276010Y-85905702D01*
X122220900Y-85903311D01*
X122190469Y-85904385D01*
X122136128Y-85913921D01*
X122078861Y-85938868D01*
X122007810Y-85985873D01*
X121912113Y-86061585D01*
X121780912Y-86172651D01*
X121774277Y-86178360D01*
X121648508Y-86291591D01*
X121534295Y-86403088D01*
X121443979Y-86500289D01*
X121389902Y-86570633D01*
X121311700Y-86700123D01*
X121311700Y-87686870D01*
X121311700Y-88375021D01*
G37*
D11*
%TO.C,U4*%
X133180000Y-81610000D02*
X133180000Y-63610000D01*
%TO.C,U8*%
X104290562Y-115206000D02*
X102510562Y-115206000D01*
X102510562Y-116646000D01*
X104290562Y-116646000D01*
X104290562Y-115206000D01*
G36*
X104290562Y-115206000D02*
G01*
X102510562Y-115206000D01*
X102510562Y-116646000D01*
X104290562Y-116646000D01*
X104290562Y-115206000D01*
G37*
X104290562Y-118916000D02*
X102510562Y-118916000D01*
X102510562Y-120356000D01*
X104290562Y-120356000D01*
X104290562Y-118916000D01*
G36*
X104290562Y-118916000D02*
G01*
X102510562Y-118916000D01*
X102510562Y-120356000D01*
X104290562Y-120356000D01*
X104290562Y-118916000D01*
G37*
X104300562Y-112726000D02*
X102520562Y-112726000D01*
X102520562Y-114596000D01*
X104300562Y-114596000D01*
X104300562Y-112726000D01*
G36*
X104300562Y-112726000D02*
G01*
X102520562Y-112726000D01*
X102520562Y-114596000D01*
X104300562Y-114596000D01*
X104300562Y-112726000D01*
G37*
X104300562Y-117046000D02*
X102520562Y-117046000D01*
X102520562Y-118486000D01*
X104300562Y-118486000D01*
X104300562Y-117046000D01*
G36*
X104300562Y-117046000D02*
G01*
X102520562Y-117046000D01*
X102520562Y-118486000D01*
X104300562Y-118486000D01*
X104300562Y-117046000D01*
G37*
X106500562Y-115206000D02*
X104720562Y-115206000D01*
X104720562Y-116646000D01*
X106500562Y-116646000D01*
X106500562Y-115206000D01*
G36*
X106500562Y-115206000D02*
G01*
X104720562Y-115206000D01*
X104720562Y-116646000D01*
X106500562Y-116646000D01*
X106500562Y-115206000D01*
G37*
X106500562Y-118916000D02*
X104720562Y-118916000D01*
X104720562Y-120356000D01*
X106500562Y-120356000D01*
X106500562Y-118916000D01*
G36*
X106500562Y-118916000D02*
G01*
X104720562Y-118916000D01*
X104720562Y-120356000D01*
X106500562Y-120356000D01*
X106500562Y-118916000D01*
G37*
X106510562Y-112736000D02*
X104730562Y-112736000D01*
X104730562Y-114606000D01*
X106510562Y-114606000D01*
X106510562Y-112736000D01*
G36*
X106510562Y-112736000D02*
G01*
X104730562Y-112736000D01*
X104730562Y-114606000D01*
X106510562Y-114606000D01*
X106510562Y-112736000D01*
G37*
X106510562Y-117046000D02*
X104730562Y-117046000D01*
X104730562Y-118486000D01*
X106510562Y-118486000D01*
X106510562Y-117046000D01*
G36*
X106510562Y-117046000D02*
G01*
X104730562Y-117046000D01*
X104730562Y-118486000D01*
X106510562Y-118486000D01*
X106510562Y-117046000D01*
G37*
X108710562Y-112746000D02*
X106930562Y-112746000D01*
X106930562Y-114626000D01*
X108710562Y-114626000D01*
X108710562Y-112746000D01*
G36*
X108710562Y-112746000D02*
G01*
X106930562Y-112746000D01*
X106930562Y-114626000D01*
X108710562Y-114626000D01*
X108710562Y-112746000D01*
G37*
X108710562Y-115216000D02*
X106930562Y-115216000D01*
X106930562Y-116656000D01*
X108710562Y-116656000D01*
X108710562Y-115216000D01*
G36*
X108710562Y-115216000D02*
G01*
X106930562Y-115216000D01*
X106930562Y-116656000D01*
X108710562Y-116656000D01*
X108710562Y-115216000D01*
G37*
X108710562Y-118926000D02*
X106930562Y-118926000D01*
X106930562Y-120366000D01*
X108710562Y-120366000D01*
X108710562Y-118926000D01*
G36*
X108710562Y-118926000D02*
G01*
X106930562Y-118926000D01*
X106930562Y-120366000D01*
X108710562Y-120366000D01*
X108710562Y-118926000D01*
G37*
X108720562Y-117056000D02*
X106940562Y-117056000D01*
X106940562Y-118496000D01*
X108720562Y-118496000D01*
X108720562Y-117056000D01*
G36*
X108720562Y-117056000D02*
G01*
X106940562Y-117056000D01*
X106940562Y-118496000D01*
X108720562Y-118496000D01*
X108720562Y-117056000D01*
G37*
%TD*%
D12*
%TO.C,H6*%
X84764000Y-94984000D03*
%TD*%
%TO.C,H5*%
X126130000Y-136350000D03*
%TD*%
D13*
%TO.C,H1*%
X127985010Y-51120990D03*
X128644020Y-49530000D03*
X128644020Y-52711980D03*
X130235010Y-48870990D03*
D14*
X130235010Y-51120990D03*
D13*
X130235010Y-53370990D03*
X131826000Y-49530000D03*
X131826000Y-52711980D03*
X132485010Y-51120990D03*
%TD*%
%TO.C,H3*%
X128052000Y-143728000D03*
X128711010Y-142137010D03*
X128711010Y-145318990D03*
X130302000Y-141478000D03*
D14*
X130302000Y-143728000D03*
D13*
X130302000Y-145978000D03*
X131892990Y-142137010D03*
X131892990Y-145318990D03*
X132552000Y-143728000D03*
%TD*%
D15*
%TO.C,J4*%
X99171505Y-51054000D03*
D16*
X101711505Y-51054000D03*
X104251505Y-51054000D03*
X106791505Y-51054000D03*
X109331505Y-51054000D03*
X111871505Y-51054000D03*
%TD*%
D13*
%TO.C,H4*%
X78455010Y-143830990D03*
X79114020Y-142240000D03*
X79114020Y-145421980D03*
X80705010Y-141580990D03*
D14*
X80705010Y-143830990D03*
D13*
X80705010Y-146080990D03*
X82296000Y-142240000D03*
X82296000Y-145421980D03*
X82955010Y-143830990D03*
%TD*%
D17*
%TO.C,H8*%
X84710000Y-136360000D03*
%TD*%
D13*
%TO.C,H2*%
X78558000Y-51054000D03*
X79217010Y-49463010D03*
X79217010Y-52644990D03*
X80808000Y-48804000D03*
D14*
X80808000Y-51054000D03*
D13*
X80808000Y-53304000D03*
X82398990Y-49463010D03*
X82398990Y-52644990D03*
X83058000Y-51054000D03*
%TD*%
D17*
%TO.C,H7*%
X126060000Y-94910000D03*
%TD*%
D18*
%TO.C,U2*%
X92180000Y-78870000D03*
X93580000Y-78870000D03*
X94980000Y-78870000D03*
X91180000Y-77590000D03*
X92180000Y-77590000D03*
X93580000Y-77590000D03*
X94980000Y-77590000D03*
X95980000Y-77590000D03*
X92180000Y-76310000D03*
X93580000Y-76310000D03*
X94980000Y-76310000D03*
%TD*%
D19*
%TO.C,J6*%
X94701000Y-145782001D03*
D20*
X89621000Y-143622000D03*
X92161000Y-143622000D03*
X94701000Y-143622000D03*
X97241000Y-143622000D03*
%TD*%
D21*
%TO.C,J3*%
X87005000Y-50292000D03*
D16*
X87405000Y-52832000D03*
X87005000Y-55372000D03*
X87405000Y-57912000D03*
%TD*%
D22*
%TO.C,FID7*%
X132260000Y-139060000D03*
%TD*%
D23*
%TO.C,J5*%
X83470000Y-86150000D03*
X83470000Y-80370000D03*
D24*
X84545000Y-86460000D03*
X84545000Y-85660000D03*
D25*
X84545000Y-84510000D03*
X84545000Y-83510000D03*
X84545000Y-83010000D03*
X84545000Y-82010000D03*
D24*
X84545000Y-80060000D03*
X84545000Y-80860000D03*
D25*
X84545000Y-81510000D03*
X84545000Y-82510000D03*
X84545000Y-84010000D03*
X84545000Y-85010000D03*
D26*
X79790000Y-87580000D03*
D27*
X83970000Y-87580000D03*
D26*
X79790000Y-78940000D03*
D27*
X83970000Y-78940000D03*
%TD*%
D28*
%TO.C,U4*%
X125690000Y-81360000D03*
X124420000Y-81360000D03*
X123150000Y-81360000D03*
X121880000Y-81360000D03*
X120610000Y-81360000D03*
X119340000Y-81360000D03*
X118070000Y-81360000D03*
X116800000Y-81360000D03*
X115530000Y-81360000D03*
X114260000Y-81360000D03*
X112990000Y-81360000D03*
X111720000Y-81360000D03*
X110450000Y-81360000D03*
X109180000Y-81360000D03*
D29*
X107930000Y-79595000D03*
X107930000Y-78325000D03*
X107930000Y-77055000D03*
X107930000Y-75785000D03*
X107930000Y-74515000D03*
X107930000Y-73245000D03*
X107930000Y-71975000D03*
X107930000Y-70705000D03*
X107930000Y-69435000D03*
X107930000Y-68165000D03*
X107930000Y-66895000D03*
X107930000Y-65625000D03*
D28*
X109180000Y-63860000D03*
X110450000Y-63860000D03*
X111720000Y-63860000D03*
X112990000Y-63860000D03*
X114260000Y-63860000D03*
X115530000Y-63860000D03*
X116800000Y-63860000D03*
X118070000Y-63860000D03*
X119340000Y-63860000D03*
X120610000Y-63860000D03*
X121880000Y-63860000D03*
X123150000Y-63860000D03*
X124420000Y-63860000D03*
X125690000Y-63860000D03*
D30*
X116570000Y-75510000D03*
X117970000Y-75510000D03*
X119370000Y-75510000D03*
X116570000Y-74110000D03*
X117970000Y-74110000D03*
X119370000Y-74110000D03*
X116570000Y-72710000D03*
X117970000Y-72710000D03*
X119370000Y-72710000D03*
%TD*%
D31*
%TO.C,J2*%
X130670000Y-57730000D03*
X125590000Y-58746000D03*
X125590000Y-56714000D03*
D32*
X129400000Y-58365000D03*
X129400000Y-57095000D03*
X128130000Y-58365000D03*
X128130000Y-57095000D03*
X126860000Y-58365000D03*
X126860000Y-57095000D03*
%TD*%
D33*
%TO.C,U8*%
X109526562Y-113032000D03*
X109526562Y-113534000D03*
X109526562Y-114036000D03*
X109526562Y-114538000D03*
X109526562Y-115040000D03*
X109526562Y-115542000D03*
X109526562Y-116044000D03*
X109526562Y-116546000D03*
X109526562Y-117048000D03*
X109526562Y-117550000D03*
X109526562Y-118052000D03*
X109526562Y-118554000D03*
X109526562Y-119056000D03*
X109526562Y-119558000D03*
X109526562Y-120060000D03*
X101694562Y-120060000D03*
X101694562Y-119558000D03*
X101694562Y-119056000D03*
X101694562Y-118554000D03*
X101694562Y-118052000D03*
X101694562Y-117550000D03*
X101694562Y-117048000D03*
X101694562Y-116546000D03*
X101694562Y-116044000D03*
X101694562Y-115542000D03*
X101694562Y-115040000D03*
X101694562Y-114538000D03*
X101694562Y-114036000D03*
X101694562Y-113534000D03*
X101694562Y-113032000D03*
%TD*%
D22*
%TO.C,FID8*%
X78850000Y-139070000D03*
%TD*%
D34*
%TO.C,J1*%
X82330000Y-66620000D03*
D35*
X86830000Y-66620000D03*
D36*
X82330000Y-72120000D03*
X88530000Y-72120000D03*
X82330000Y-61120000D03*
X88530000Y-61120000D03*
%TD*%
D37*
%TO.C,SW1*%
X132246000Y-104448000D03*
X128136000Y-104448000D03*
%TD*%
D22*
%TO.C,FID5*%
X125270000Y-50310000D03*
%TD*%
D37*
%TO.C,SW2*%
X132142000Y-113155000D03*
X128032000Y-113155000D03*
%TD*%
D22*
%TO.C,FID6*%
X78750000Y-55900000D03*
%TD*%
D38*
%TO.C,J7*%
X102000000Y-141675000D03*
X103000000Y-141675000D03*
X104000000Y-141675000D03*
X105000000Y-141675000D03*
D39*
X100700000Y-144200000D03*
X106300000Y-144200000D03*
%TD*%
M02*
